<svg version="1.1" xmlns="http://www.w3.org/2000/svg" xmlns:xlink="http://www.w3.org/1999/xlink" shape-rendering="crispEdges" width="32" height="32" viewBox="0 0 32 32"><g><path fill="rgba(0,0,0,0)" d="M0,0h32v3h-32ZM0,28h32v4h-32Z"/><path fill="rgba(255,255,255,0)" d="M0,3h17v1h-17ZM31,3h1v1h-1ZM0,4h16v10h-16ZM0,14h3v1h-3ZM0,15h2v1h-2ZM0,16h1v1h-1ZM31,18h1v1h-1ZM30,19h2v6h-2ZM29,25h3v1h-3ZM28,26h4v1h-4ZM0,27h1v1h-1ZM27,27h5v1h-5Z"/><path fill="rgba(128,128,128,255)" d="M17,3h14v1h-14ZM16,4h1v10h-1ZM30,4h1v13h-1ZM22,13h6v1h-6ZM3,14h14v1h-14ZM21,14h1v2h-1ZM24,14h2v2h-2ZM2,15h1v1h-1ZM16,15h1v2h-1ZM1,16h1v1h-1ZM21,16h5v1h-5ZM0,17h1v9h-1ZM16,17h5v1h-5ZM27,17h4v1h-4ZM26,19h3v6h-3ZM9,21h8v1h-8ZM3,22h6v1h-6ZM17,22h6v1h-6ZM26,25h2v1h-2ZM0,26h27v1h-27Z"/><path fill="rgba(255,255,255,255)" d="M17,4h1v13h-1ZM19,4h10v7h-10ZM20,11h8v1h-8ZM28,14h1v3h-1ZM1,17h15v1h-15ZM1,18h1v8h-1ZM3,23h6v1h-6ZM17,23h6v1h-6ZM9,24h8v1h-8Z"/><path fill="rgba(192,192,192,255)" d="M18,4h1v7h-1ZM29,4h1v1h-1ZM29,6h1v5h-1ZM18,11h2v1h-2ZM28,11h2v1h-2ZM18,12h12v1h-12ZM18,13h4v1h-4ZM28,13h2v1h-2ZM18,14h3v3h-3ZM23,14h1v2h-1ZM27,14h1v3h-1ZM29,14h1v3h-1ZM3,15h13v1h-13ZM2,16h14v1h-14ZM2,18h15v1h-15ZM2,19h19v2h-19ZM23,19h3v2h-3ZM2,21h7v1h-7ZM17,21h9v1h-9ZM2,22h1v2h-1ZM23,22h3v2h-3ZM2,24h7v1h-7ZM17,24h9v1h-9ZM2,25h24v1h-24Z"/><path fill="rgba(0,0,0,255)" d="M31,4h1v14h-1ZM29,5h1v1h-1ZM22,14h1v2h-1ZM26,14h1v3h-1ZM21,17h6v1h-6ZM17,18h14v1h-14ZM29,19h1v6h-1ZM9,22h8v2h-8ZM28,25h1v1h-1ZM27,26h1v1h-1ZM1,27h26v1h-26Z"/><path fill="rgba(255,0,0,255)" d="M21,19h2v2h-2Z"/></g></svg>