<svg version="1.1" xmlns="http://www.w3.org/2000/svg" xmlns:xlink="http://www.w3.org/1999/xlink" shape-rendering="crispEdges" width="16" height="16" viewBox="0 0 16 16"><g><path fill="rgba(255,255,255,0)" d="M0,0h16v3h-16ZM0,3h2v1h-2ZM15,3h1v1h-1ZM0,4h1v1h-1ZM15,10h1v1h-1ZM0,11h1v1h-1ZM14,11h2v1h-2ZM0,12h16v4h-16Z"/><path fill="rgba(128,128,128,255)" d="M2,3h13v1h-13ZM1,4h1v1h-1ZM14,4h1v1h-1ZM0,5h1v5h-1ZM13,5h2v5h-2ZM5,7h4v1h-4ZM2,8h3v1h-3ZM9,8h3v1h-3ZM0,10h14v1h-14Z"/><path fill="rgba(192,192,192,255)" d="M2,4h12v1h-12ZM1,6h10v1h-10ZM12,6h1v1h-1ZM1,7h4v1h-4ZM9,7h4v1h-4ZM1,8h1v1h-1ZM12,8h1v1h-1ZM1,9h4v1h-4ZM9,9h4v1h-4Z"/><path fill="rgba(0,0,0,255)" d="M15,4h1v6h-1ZM5,8h4v1h-4ZM14,10h1v1h-1ZM1,11h13v1h-13Z"/><path fill="rgba(255,255,255,255)" d="M1,5h12v1h-12ZM5,9h4v1h-4Z"/><path fill="rgba(255,0,0,255)" d="M11,6h1v1h-1Z"/></g></svg>