<svg version="1.1" xmlns="http://www.w3.org/2000/svg" xmlns:xlink="http://www.w3.org/1999/xlink" shape-rendering="crispEdges" width="32" height="32" viewBox="0 0 32 32"><g><path fill="rgba(0,0,0,0)" d="M0,0h11v1h-11ZM19,0h13v1h-13ZM0,1h8v1h-8ZM22,1h10v1h-10ZM0,2h6v1h-6ZM24,2h8v1h-8ZM0,3h5v1h-5ZM25,3h7v1h-7ZM0,4h4v1h-4ZM26,4h6v1h-6ZM0,5h3v1h-3ZM27,5h5v1h-5ZM0,6h2v1h-2ZM28,6h4v1h-4ZM0,7h1v2h-1ZM29,7h3v1h-3ZM30,8h2v1h-2ZM31,9h1v2h-1ZM0,16h1v2h-1ZM0,18h2v1h-2ZM31,18h1v2h-1ZM0,19h3v1h-3ZM0,20h4v1h-4ZM30,20h2v1h-2ZM0,21h5v1h-5ZM29,21h3v1h-3ZM0,22h6v1h-6ZM28,22h4v1h-4ZM0,23h7v1h-7ZM27,23h5v1h-5ZM0,24h8v1h-8ZM26,24h6v1h-6ZM0,25h10v1h-10ZM24,25h8v1h-8ZM0,26h13v1h-13ZM21,26h11v6h-11ZM0,27h15v1h-15ZM0,28h16v1h-16ZM0,29h17v1h-17ZM0,30h18v1h-18ZM0,31h19v1h-19Z"/><path fill="rgba(153,153,153,255)" d="M11,0h8v1h-8ZM8,1h3v1h-3ZM19,1h3v1h-3ZM6,2h2v1h-2ZM22,2h2v1h-2ZM5,3h1v1h-1ZM24,3h1v1h-1ZM4,4h1v1h-1ZM3,5h1v1h-1ZM2,6h1v1h-1ZM1,7h1v2h-1ZM29,8h1v1h-1ZM0,9h1v7h-1ZM30,9h1v2h-1ZM30,11h2v5h-2ZM1,16h1v2h-1ZM29,16h3v2h-3ZM2,18h1v1h-1ZM28,18h3v1h-3ZM27,19h4v1h-4ZM26,20h4v1h-4ZM25,21h4v1h-4ZM24,22h4v1h-4ZM7,23h1v1h-1ZM22,23h5v1h-5ZM8,24h3v1h-3ZM19,24h7v1h-7ZM10,25h4v1h-4ZM19,25h5v1h-5ZM13,26h1v1h-1ZM19,26h2v4h-2ZM18,30h3v1h-3ZM19,31h2v1h-2Z"/><path fill="rgba(255,255,255,255)" d="M11,1h8v1h-8ZM8,2h14v1h-14ZM6,3h18v1h-18ZM5,4h20v1h-20ZM4,5h8v1h-8ZM18,5h8v1h-8ZM3,6h8v1h-8ZM12,6h3v1h-3ZM19,6h8v1h-8ZM2,7h8v2h-8ZM12,7h4v1h-4ZM20,7h8v2h-8ZM14,8h2v2h-2ZM1,9h9v1h-9ZM20,9h9v1h-9ZM1,10h10v1h-10ZM13,10h2v1h-2ZM19,10h10v1h-10ZM1,11h13v4h-13ZM18,11h11v1h-11ZM17,12h12v1h-12ZM16,13h13v2h-13ZM1,15h28v1h-28ZM2,16h12v1h-12ZM16,16h12v1h-12ZM2,17h11v1h-11ZM17,17h11v1h-11ZM3,18h10v1h-10ZM17,18h10v1h-10ZM4,19h10v1h-10ZM16,19h10v1h-10ZM5,20h20v1h-20ZM6,21h18v1h-18ZM8,22h14v1h-14ZM11,23h8v1h-8ZM14,24h4v1h-4ZM15,25h3v2h-3ZM16,27h2v1h-2ZM17,28h1v1h-1Z"/><path fill="rgba(0,0,0,255)" d="M25,4h1v1h-1ZM26,5h1v1h-1ZM27,6h1v1h-1ZM28,7h1v2h-1ZM29,9h1v7h-1ZM28,16h1v2h-1ZM27,18h1v1h-1ZM3,19h1v1h-1ZM26,19h1v1h-1ZM4,20h1v1h-1ZM25,20h1v1h-1ZM5,21h1v1h-1ZM24,21h1v1h-1ZM6,22h2v1h-2ZM22,22h2v1h-2ZM8,23h3v1h-3ZM19,23h3v1h-3ZM11,24h3v1h-3ZM18,24h1v5h-1ZM14,25h1v2h-1ZM15,27h1v1h-1ZM16,28h1v1h-1ZM17,29h2v1h-2Z"/><path fill="rgba(0,0,255,255)" d="M12,5h6v1h-6ZM11,6h1v1h-1ZM15,6h4v1h-4ZM10,7h2v1h-2ZM16,7h4v3h-4ZM10,8h4v2h-4ZM11,10h2v1h-2ZM15,10h4v1h-4ZM14,11h4v1h-4ZM14,12h3v1h-3ZM14,13h2v2h-2ZM14,16h2v1h-2ZM13,17h4v2h-4ZM14,19h2v1h-2Z"/></g></svg>