<svg version="1.1" xmlns="http://www.w3.org/2000/svg" xmlns:xlink="http://www.w3.org/1999/xlink" shape-rendering="crispEdges" width="250" height="66" viewBox="0 0 250 66"><g><path fill="rgba(0,0,0,0)" d="M0,0h250v1h-250ZM0,1h55v2h-55ZM57,1h49v1h-49ZM249,1h1v64h-1ZM58,2h48v1h-48ZM0,3h54v1h-54ZM59,3h47v2h-47ZM0,4h53v1h-53ZM0,5h52v1h-52ZM60,5h46v1h-46ZM0,6h106v1h-106ZM0,7h50v1h-50ZM62,7h44v2h-44ZM0,8h49v1h-49ZM0,9h48v1h-48ZM63,9h43v1h-43ZM0,10h106v1h-106ZM0,11h46v1h-46ZM66,11h40v1h-40ZM0,12h45v1h-45ZM67,12h39v1h-39ZM0,13h53v2h-53ZM68,13h38v2h-38ZM0,15h106v1h-106ZM0,16h41v1h-41ZM70,16h36v1h-36ZM0,17h40v2h-40ZM71,17h35v1h-35ZM72,18h34v1h-34ZM0,19h59v1h-59ZM73,19h33v1h-33ZM0,20h106v2h-106ZM0,22h36v1h-36ZM75,22h31v1h-31ZM0,23h34v1h-34ZM77,23h29v3h-29ZM0,24h62v1h-62ZM0,25h63v1h-63ZM0,26h31v1h-31ZM80,26h26v3h-26ZM0,27h30v2h-30ZM0,29h29v1h-29ZM81,29h25v1h-25ZM0,30h27v2h-27ZM41,30h27v1h-27ZM83,30h23v2h-23ZM41,31h28v1h-28ZM0,32h106v1h-106ZM0,33h24v1h-24ZM45,33h21v1h-21ZM86,33h20v1h-20ZM0,34h23v1h-23ZM45,34h20v1h-20ZM87,34h19v2h-19ZM0,35h30v1h-30ZM45,35h27v1h-27ZM0,36h106v2h-106ZM0,38h20v1h-20ZM48,38h13v1h-13ZM90,38h16v1h-16ZM0,39h19v1h-19ZM49,39h11v1h-11ZM91,39h15v1h-15ZM0,40h36v1h-36ZM51,40h26v1h-26ZM92,40h14v2h-14ZM0,41h37v1h-37ZM51,41h27v1h-27ZM0,42h106v1h-106ZM0,43h14v1h-14ZM53,43h2v1h-2ZM95,43h11v2h-11ZM0,44h13v2h-13ZM54,44h1v1h-1ZM96,45h10v1h-10ZM0,46h41v1h-41ZM55,46h27v1h-27ZM97,46h9v1h-9ZM0,47h106v1h-106ZM0,48h9v2h-9ZM98,48h8v1h-8ZM99,49h7v1h-7ZM0,50h86v1h-86ZM101,50h5v1h-5ZM0,51h87v1h-87ZM102,51h4v1h-4ZM0,52h106v2h-106ZM0,54h3v1h-3ZM105,54h1v2h-1ZM0,55h2v1h-2ZM0,56h1v9h-1ZM0,65h250v1h-250Z"/><path fill="rgba(213,0,0,12)" d="M55,1h1v1h-1Z"/><path fill="rgba(204,0,0,255)" d="M56,1h1v1h-1ZM55,2h3v2h-3ZM54,4h5v1h-5ZM52,5h8v1h-8ZM51,7h11v1h-11ZM50,8h12v1h-12ZM49,9h14v1h-14ZM47,11h18v1h-18ZM45,12h21v1h-21ZM53,13h14v1h-14ZM54,14h14v1h-14ZM41,16h29v2h-29ZM40,18h31v1h-31ZM59,19h14v1h-14ZM36,22h39v1h-39ZM35,23h42v1h-42ZM63,24h14v1h-14ZM64,25h13v1h-13ZM31,26h48v1h-48ZM30,27h50v2h-50ZM29,29h52v1h-52ZM27,30h14v1h-14ZM69,30h14v1h-14ZM28,31h13v1h-13ZM70,31h12v1h-12ZM24,33h20v1h-20ZM66,33h19v1h-19ZM23,34h22v1h-22ZM65,34h21v1h-21ZM31,35h14v1h-14ZM73,35h14v1h-14ZM20,38h28v1h-28ZM61,38h28v1h-28ZM19,39h29v1h-29ZM60,39h30v1h-30ZM36,40h14v1h-14ZM77,40h14v1h-14ZM37,41h14v1h-14ZM78,41h14v1h-14ZM14,43h39v1h-39ZM55,43h40v3h-40ZM13,44h41v1h-41ZM14,45h40v1h-40ZM41,46h14v1h-14ZM82,46h14v1h-14ZM10,48h88v1h-88ZM9,49h90v1h-90ZM87,50h14v2h-14ZM4,54h100v1h-100ZM3,55h102v1h-102ZM2,56h104v1h-104Z"/><path fill="rgba(255,255,255,0)" d="M106,1h143v1h-143ZM106,2h15v1h-15ZM123,2h68v3h-68ZM195,2h54v4h-54ZM106,3h14v3h-14ZM124,5h67v1h-67ZM106,6h13v2h-13ZM124,6h125v1h-125ZM125,7h124v2h-124ZM106,8h12v2h-12ZM120,9h1v1h-1ZM126,9h55v1h-55ZM182,9h3v1h-3ZM187,9h18v1h-18ZM209,9h10v1h-10ZM223,9h11v1h-11ZM235,9h5v1h-5ZM241,9h8v1h-8ZM106,10h11v2h-11ZM120,10h2v2h-2ZM127,10h10v1h-10ZM140,10h1v1h-1ZM148,10h4v1h-4ZM158,10h7v1h-7ZM172,10h7v1h-7ZM182,10h2v1h-2ZM188,10h4v1h-4ZM195,10h7v2h-7ZM211,10h5v1h-5ZM224,10h7v1h-7ZM235,10h2v1h-2ZM243,10h6v1h-6ZM127,11h7v1h-7ZM148,11h2v1h-2ZM159,11h4v1h-4ZM173,11h4v1h-4ZM182,11h1v1h-1ZM188,11h1v1h-1ZM212,11h3v1h-3ZM220,11h1v1h-1ZM226,11h3v1h-3ZM235,11h1v1h-1ZM244,11h5v1h-5ZM106,12h10v3h-10ZM119,12h4v2h-4ZM127,12h8v1h-8ZM141,12h4v2h-4ZM152,12h3v1h-3ZM159,12h3v2h-3ZM166,12h4v1h-4ZM174,12h3v1h-3ZM188,12h3v1h-3ZM195,12h5v1h-5ZM203,12h5v1h-5ZM212,12h2v3h-2ZM218,12h5v4h-5ZM227,12h4v11h-4ZM237,12h3v1h-3ZM245,12h4v13h-4ZM128,13h8v2h-8ZM150,13h5v1h-5ZM165,13h5v1h-5ZM175,13h3v4h-3ZM183,13h2v1h-2ZM187,13h4v1h-4ZM195,13h4v2h-4ZM202,13h7v3h-7ZM236,13h5v1h-5ZM118,14h5v2h-5ZM140,14h5v2h-5ZM149,14h6v9h-6ZM159,14h2v4h-2ZM164,14h6v1h-6ZM183,14h8v1h-8ZM235,14h6v10h-6ZM106,15h9v2h-9ZM129,15h7v2h-7ZM182,15h9v9h-9ZM195,15h3v8h-3ZM212,15h3v1h-3ZM140,16h6v6h-6ZM202,16h17v1h-17ZM106,17h8v2h-8ZM130,17h6v3h-6ZM164,17h14v2h-14ZM202,17h15v1h-15ZM222,17h1v1h-1ZM159,18h1v1h-1ZM202,18h14v1h-14ZM220,18h3v1h-3ZM106,19h7v1h-7ZM116,19h10v2h-10ZM159,19h2v4h-2ZM165,19h13v1h-13ZM202,19h12v1h-12ZM218,19h5v2h-5ZM106,20h6v3h-6ZM131,20h5v2h-5ZM165,20h9v1h-9ZM176,20h2v3h-2ZM203,20h9v1h-9ZM213,20h1v1h-1ZM115,21h12v2h-12ZM166,21h7v2h-7ZM203,21h8v1h-8ZM217,21h6v1h-6ZM132,22h4v1h-4ZM140,22h5v3h-5ZM204,22h6v1h-6ZM212,22h1v2h-1ZM218,22h5v1h-5ZM106,23h5v1h-5ZM114,23h13v1h-13ZM133,23h3v1h-3ZM150,23h5v2h-5ZM159,23h3v1h-3ZM174,23h4v1h-4ZM195,23h4v1h-4ZM229,23h2v2h-2ZM106,24h4v1h-4ZM115,24h12v1h-12ZM134,24h1v1h-1ZM160,24h2v1h-2ZM173,24h4v1h-4ZM183,24h8v1h-8ZM195,24h5v1h-5ZM211,24h3v1h-3ZM236,24h5v1h-5ZM106,25h3v1h-3ZM117,25h8v1h-8ZM142,25h1v1h-1ZM152,25h1v1h-1ZM162,25h1v1h-1ZM173,25h3v1h-3ZM185,25h3v1h-3ZM198,25h3v1h-3ZM210,25h4v1h-4ZM222,25h1v1h-1ZM237,25h2v1h-2ZM247,25h2v1h-2ZM106,26h143v7h-143ZM106,33h1v2h-1ZM115,33h13v1h-13ZM136,33h95v1h-95ZM236,33h13v7h-13ZM116,34h12v2h-12ZM136,34h94v1h-94ZM106,35h4v1h-4ZM134,35h96v1h-96ZM106,36h5v17h-5ZM116,36h11v2h-11ZM133,36h46v1h-46ZM180,36h52v4h-52ZM133,37h45v1h-45ZM117,38h10v2h-10ZM133,38h44v2h-44ZM112,40h1v2h-1ZM118,40h8v1h-8ZM128,40h1v2h-1ZM133,40h6v1h-6ZM144,40h8v1h-8ZM157,40h8v1h-8ZM171,40h5v1h-5ZM184,40h3v1h-3ZM189,40h2v1h-2ZM195,40h4v1h-4ZM204,40h6v1h-6ZM212,40h3v1h-3ZM219,40h8v1h-8ZM236,40h5v1h-5ZM245,40h1v1h-1ZM247,40h2v6h-2ZM118,41h7v1h-7ZM133,41h5v1h-5ZM145,41h6v1h-6ZM162,41h2v1h-2ZM172,41h3v1h-3ZM184,41h1v1h-1ZM189,41h1v1h-1ZM195,41h3v1h-3ZM205,41h3v1h-3ZM212,41h1v1h-1ZM220,41h6v1h-6ZM236,41h3v1h-3ZM112,42h2v1h-2ZM119,42h6v1h-6ZM127,42h2v4h-2ZM133,42h4v1h-4ZM146,42h4v1h-4ZM153,42h2v1h-2ZM162,42h1v1h-1ZM166,42h3v1h-3ZM173,42h2v1h-2ZM195,42h2v1h-2ZM205,42h2v1h-2ZM220,42h5v1h-5ZM228,42h2v1h-2ZM236,42h2v5h-2ZM241,42h3v1h-3ZM112,43h3v2h-3ZM120,43h4v2h-4ZM133,43h3v1h-3ZM138,43h5v2h-5ZM147,43h2v1h-2ZM152,43h4v2h-4ZM160,43h2v3h-2ZM166,43h4v3h-4ZM173,43h4v11h-4ZM180,43h5v1h-5ZM198,43h4v1h-4ZM207,43h2v4h-2ZM214,43h3v1h-3ZM221,43h2v5h-2ZM227,43h5v2h-5ZM241,43h4v2h-4ZM133,44h2v3h-2ZM180,44h6v10h-6ZM190,44h5v1h-5ZM198,44h5v2h-5ZM213,44h4v1h-4ZM112,45h4v4h-4ZM120,45h3v2h-3ZM138,45h6v1h-6ZM152,45h5v3h-5ZM189,45h6v3h-6ZM212,45h5v10h-5ZM226,45h6v6h-6ZM241,45h5v1h-5ZM126,46h3v1h-3ZM160,46h3v1h-3ZM165,46h5v1h-5ZM243,46h6v1h-6ZM121,47h2v2h-2ZM125,47h4v3h-4ZM133,47h1v4h-1ZM137,47h11v1h-11ZM160,47h6v1h-6ZM197,47h12v1h-12ZM236,47h3v2h-3ZM245,47h4v1h-4ZM137,48h12v1h-12ZM153,48h4v1h-4ZM160,48h5v1h-5ZM169,48h1v1h-1ZM189,48h5v2h-5ZM198,48h11v2h-11ZM221,48h1v3h-1ZM246,48h3v1h-3ZM112,49h5v1h-5ZM138,49h11v1h-11ZM153,49h3v1h-3ZM159,49h4v1h-4ZM167,49h3v1h-3ZM236,49h5v1h-5ZM247,49h2v1h-2ZM112,50h6v2h-6ZM124,50h5v1h-5ZM138,50h9v1h-9ZM148,50h3v2h-3ZM158,50h4v1h-4ZM166,50h4v4h-4ZM189,50h6v4h-6ZM198,50h8v2h-8ZM208,50h1v3h-1ZM236,50h7v1h-7ZM123,51h6v4h-6ZM133,51h2v3h-2ZM139,51h7v2h-7ZM156,51h6v1h-6ZM221,51h2v4h-2ZM227,51h5v3h-5ZM236,51h2v3h-2ZM239,51h5v1h-5ZM113,52h5v1h-5ZM148,52h2v1h-2ZM152,52h10v2h-10ZM198,52h7v1h-7ZM240,52h5v2h-5ZM106,53h4v2h-4ZM113,53h6v1h-6ZM140,53h5v1h-5ZM148,53h1v1h-1ZM199,53h6v1h-6ZM207,53h2v1h-2ZM113,54h7v1h-7ZM134,54h2v1h-2ZM147,54h1v1h-1ZM160,54h2v1h-2ZM176,54h1v2h-1ZM184,54h2v1h-2ZM190,54h5v1h-5ZM206,54h3v1h-3ZM241,54h4v1h-4ZM248,54h1v2h-1ZM106,55h1v2h-1ZM116,55h4v2h-4ZM122,55h5v1h-5ZM135,55h2v1h-2ZM146,55h3v1h-3ZM161,55h1v1h-1ZM191,55h5v1h-5ZM205,55h3v1h-3ZM213,55h3v1h-3ZM222,55h2v1h-2ZM237,55h1v1h-1ZM242,55h2v1h-2ZM122,56h4v1h-4ZM136,56h1v1h-1ZM145,56h4v1h-4ZM162,56h1v1h-1ZM169,56h1v1h-1ZM175,56h2v1h-2ZM183,56h1v1h-1ZM192,56h5v1h-5ZM205,56h2v1h-2ZM215,56h1v1h-1ZM223,56h2v1h-2ZM236,56h2v1h-2ZM247,56h2v1h-2ZM1,57h147v7h-147ZM152,57h7v1h-7ZM162,57h87v4h-87ZM151,58h9v2h-9ZM151,60h8v1h-8ZM153,61h3v1h-3ZM161,61h88v1h-88ZM160,62h89v1h-89ZM159,63h90v1h-90ZM1,64h149v1h-149ZM156,64h93v1h-93Z"/><path fill="rgba(255,255,255,255)" d="M121,2h2v2h-2ZM191,2h4v3h-4ZM120,4h3v1h-3ZM120,5h4v2h-4ZM192,5h2v1h-2ZM119,7h5v1h-5ZM119,8h6v1h-6ZM118,9h2v1h-2ZM122,9h4v2h-4ZM220,9h1v1h-1ZM117,10h3v2h-3ZM137,10h2v1h-2ZM142,10h5v1h-5ZM152,10h5v1h-5ZM166,10h6v1h-6ZM180,10h2v1h-2ZM184,10h3v1h-3ZM193,10h2v1h-2ZM203,10h7v1h-7ZM216,10h8v1h-8ZM232,10h3v1h-3ZM237,10h6v1h-6ZM122,11h5v1h-5ZM135,11h4v1h-4ZM141,11h7v1h-7ZM151,11h7v1h-7ZM164,11h9v1h-9ZM177,11h5v1h-5ZM183,11h5v1h-5ZM190,11h5v1h-5ZM202,11h3v1h-3ZM207,11h4v1h-4ZM216,11h3v1h-3ZM222,11h3v1h-3ZM230,11h5v1h-5ZM237,11h7v1h-7ZM116,12h3v1h-3ZM123,12h4v2h-4ZM136,12h5v1h-5ZM145,12h6v1h-6ZM155,12h4v13h-4ZM162,12h3v1h-3ZM170,12h4v1h-4ZM178,12h6v1h-6ZM185,12h3v1h-3ZM191,12h4v13h-4ZM200,12h3v1h-3ZM209,12h3v3h-3ZM215,12h3v1h-3ZM223,12h3v2h-3ZM231,12h6v1h-6ZM241,12h4v13h-4ZM116,13h2v3h-2ZM136,13h4v1h-4ZM145,13h5v1h-5ZM162,13h2v2h-2ZM170,13h5v1h-5ZM178,13h5v1h-5ZM200,13h2v1h-2ZM214,13h4v1h-4ZM231,13h5v1h-5ZM123,14h5v1h-5ZM136,14h3v9h-3ZM145,14h4v1h-4ZM171,14h4v1h-4ZM178,14h4v10h-4ZM199,14h3v2h-3ZM215,14h3v1h-3ZM223,14h4v2h-4ZM231,14h4v11h-4ZM124,15h4v1h-4ZM146,15h3v9h-3ZM161,15h14v1h-14ZM210,15h1v1h-1ZM215,15h2v1h-2ZM115,16h2v1h-2ZM124,16h5v1h-5ZM161,16h3v4h-3ZM198,16h4v5h-4ZM220,16h7v1h-7ZM114,17h16v2h-16ZM218,17h3v1h-3ZM223,17h4v6h-4ZM216,18h4v1h-4ZM113,19h3v1h-3ZM126,19h4v1h-4ZM215,19h3v1h-3ZM113,20h2v1h-2ZM127,20h3v1h-3ZM161,20h4v2h-4ZM175,20h1v1h-1ZM214,20h3v2h-3ZM112,21h3v2h-3ZM127,21h4v2h-4ZM174,21h2v1h-2ZM198,21h5v1h-5ZM211,21h1v1h-1ZM162,22h4v1h-4ZM173,22h2v1h-2ZM199,22h5v1h-5ZM210,22h2v1h-2ZM213,22h4v1h-4ZM112,23h2v1h-2ZM127,23h5v1h-5ZM136,23h4v2h-4ZM162,23h12v1h-12ZM200,23h11v1h-11ZM214,23h5v1h-5ZM221,23h6v1h-6ZM228,23h1v1h-1ZM111,24h3v1h-3ZM127,24h6v1h-6ZM145,24h5v1h-5ZM163,24h10v1h-10ZM178,24h5v1h-5ZM201,24h9v1h-9ZM214,24h15v1h-15ZM109,25h7v1h-7ZM125,25h16v1h-16ZM144,25h8v1h-8ZM154,25h8v1h-8ZM164,25h9v1h-9ZM176,25h9v1h-9ZM189,25h9v1h-9ZM202,25h7v1h-7ZM215,25h6v1h-6ZM223,25h5v1h-5ZM230,25h7v1h-7ZM239,25h8v1h-8ZM107,33h8v2h-8ZM129,33h7v1h-7ZM232,33h4v1h-4ZM128,34h7v1h-7ZM230,34h6v1h-6ZM110,35h6v1h-6ZM128,35h6v1h-6ZM232,35h4v1h-4ZM111,36h5v3h-5ZM127,36h6v4h-6ZM179,36h1v1h-1ZM233,36h3v5h-3ZM178,37h2v2h-2ZM111,39h1v15h-1ZM113,39h4v1h-4ZM177,39h3v1h-3ZM113,40h5v1h-5ZM126,40h2v1h-2ZM129,40h4v15h-4ZM140,40h3v1h-3ZM152,40h4v1h-4ZM166,40h4v1h-4ZM176,40h7v1h-7ZM188,40h1v1h-1ZM191,40h3v1h-3ZM199,40h4v1h-4ZM211,40h1v1h-1ZM216,40h2v1h-2ZM227,40h4v1h-4ZM241,40h4v1h-4ZM114,41h4v2h-4ZM126,41h1v1h-1ZM138,41h7v1h-7ZM151,41h8v1h-8ZM161,41h1v1h-1ZM164,41h8v1h-8ZM175,41h8v2h-8ZM186,41h3v1h-3ZM191,41h4v1h-4ZM198,41h7v1h-7ZM209,41h3v1h-3ZM214,41h6v1h-6ZM226,41h10v1h-10ZM240,41h7v1h-7ZM125,42h2v2h-2ZM137,42h9v1h-9ZM150,42h3v1h-3ZM155,42h7v1h-7ZM163,42h3v1h-3ZM170,42h3v5h-3ZM184,42h5v1h-5ZM190,42h5v1h-5ZM197,42h3v1h-3ZM201,42h4v1h-4ZM207,42h5v1h-5ZM213,42h7v1h-7ZM225,42h3v1h-3ZM231,42h5v1h-5ZM239,42h2v1h-2ZM245,42h2v2h-2ZM115,43h4v1h-4ZM136,43h2v2h-2ZM143,43h4v1h-4ZM149,43h3v2h-3ZM156,43h3v1h-3ZM162,43h4v2h-4ZM177,43h3v11h-3ZM186,43h4v2h-4ZM192,43h3v1h-3ZM196,43h2v1h-2ZM203,43h3v1h-3ZM209,43h4v1h-4ZM217,43h3v1h-3ZM224,43h3v1h-3ZM232,43h4v1h-4ZM238,43h3v3h-3ZM116,44h4v4h-4ZM124,44h3v1h-3ZM144,44h3v1h-3ZM157,44h3v4h-3ZM195,44h3v1h-3ZM203,44h4v2h-4ZM209,44h3v11h-3ZM217,44h4v1h-4ZM223,44h3v8h-3ZM233,44h3v10h-3ZM246,44h1v2h-1ZM124,45h2v1h-2ZM135,45h2v1h-2ZM144,45h8v1h-8ZM163,45h3v1h-3ZM186,45h3v10h-3ZM195,45h2v1h-2ZM218,45h3v9h-3ZM123,46h3v1h-3ZM135,46h17v1h-17ZM195,46h12v1h-12ZM238,46h4v1h-4ZM123,47h2v2h-2ZM135,47h2v3h-2ZM149,47h3v2h-3ZM166,47h7v1h-7ZM195,47h2v2h-2ZM239,47h6v1h-6ZM117,48h4v2h-4ZM157,48h2v2h-2ZM165,48h3v1h-3ZM170,48h3v6h-3ZM240,48h6v1h-6ZM123,49h1v1h-1ZM150,49h3v1h-3ZM164,49h3v1h-3ZM195,49h3v4h-3ZM241,49h6v1h-6ZM118,50h5v2h-5ZM135,50h3v2h-3ZM152,50h6v1h-6ZM162,50h4v4h-4ZM243,50h5v1h-5ZM147,51h1v1h-1ZM151,51h1v1h-1ZM206,51h2v1h-2ZM238,51h1v2h-1ZM245,51h3v1h-3ZM119,52h4v2h-4ZM135,52h4v1h-4ZM146,52h2v1h-2ZM150,52h2v1h-2ZM205,52h2v2h-2ZM223,52h4v2h-4ZM245,52h4v2h-4ZM136,53h4v1h-4ZM145,53h3v1h-3ZM149,53h3v1h-3ZM195,53h4v1h-4ZM238,53h2v1h-2ZM110,54h3v1h-3ZM120,54h2v2h-2ZM137,54h9v1h-9ZM149,54h10v1h-10ZM162,54h14v1h-14ZM177,54h4v1h-4ZM182,54h2v1h-2ZM196,54h9v1h-9ZM217,54h4v2h-4ZM224,54h5v1h-5ZM230,54h7v1h-7ZM238,54h3v2h-3ZM245,54h3v1h-3ZM109,55h5v1h-5ZM128,55h6v1h-6ZM137,55h8v1h-8ZM149,55h12v1h-12ZM162,55h7v1h-7ZM170,55h5v1h-5ZM177,55h6v1h-6ZM185,55h5v1h-5ZM197,55h8v1h-8ZM209,55h4v1h-4ZM225,55h7v1h-7ZM233,55h4v1h-4ZM245,55h2v1h-2ZM107,56h9v1h-9ZM120,56h1v1h-1ZM127,56h9v1h-9ZM138,56h7v1h-7ZM150,56h12v1h-12ZM163,56h5v1h-5ZM171,56h3v1h-3ZM178,56h4v1h-4ZM184,56h8v1h-8ZM198,56h6v1h-6ZM207,56h8v1h-8ZM216,56h7v1h-7ZM226,56h5v1h-5ZM233,56h2v1h-2ZM238,56h8v1h-8ZM149,57h2v1h-2ZM160,57h2v4h-2ZM148,58h3v1h-3ZM148,59h2v2h-2ZM148,61h4v1h-4ZM157,61h3v1h-3ZM148,62h11v1h-11ZM149,63h9v1h-9ZM151,64h4v1h-4Z"/><path fill="rgba(196,0,0,13)" d="M54,3h1v1h-1ZM53,4h1v1h-1Z"/><path fill="rgba(203,0,0,49)" d="M58,3h1v1h-1Z"/><path fill="rgba(255,255,255,47)" d="M120,3h1v1h-1ZM135,12h1v1h-1ZM127,55h1v1h-1Z"/><path fill="rgba(255,255,255,21)" d="M191,5h1v1h-1ZM165,10h1v1h-1ZM179,10h1v1h-1ZM221,11h1v1h-1ZM211,15h1v1h-1ZM116,48h1v1h-1ZM153,51h1v1h-1Z"/><path fill="rgba(255,255,255,23)" d="M194,5h1v1h-1ZM132,23h1v1h-1ZM163,25h1v1h-1ZM134,47h1v1h-1ZM151,50h1v1h-1ZM205,54h1v1h-1Z"/><path fill="rgba(255,255,255,12)" d="M119,6h1v1h-1ZM158,11h1v1h-1ZM229,11h1v1h-1ZM200,24h1v1h-1ZM148,47h1v1h-1ZM174,56h1v1h-1Z"/><path fill="rgba(213,0,0,6)" d="M50,7h1v1h-1Z"/><path fill="rgba(255,255,255,36)" d="M124,7h1v1h-1ZM219,9h1v1h-1ZM214,12h1v1h-1ZM199,13h1v1h-1ZM197,45h1v1h-1ZM232,55h1v1h-1Z"/><path fill="rgba(191,0,0,8)" d="M49,8h1v1h-1ZM66,12h1v1h-1ZM34,23h1v1h-1ZM85,33h1v1h-1Z"/><path fill="rgba(255,255,255,3)" d="M118,8h1v1h-1ZM231,10h1v1h-1ZM140,11h1v1h-1ZM127,13h1v1h-1ZM217,22h1v1h-1ZM199,23h1v1h-1ZM231,33h1v1h-1ZM210,40h1v1h-1ZM244,42h1v1h-1ZM206,43h1v1h-1ZM239,48h1v1h-1ZM222,50h1v1h-1ZM112,52h1v1h-1Z"/><path fill="rgba(206,0,0,21)" d="M48,9h1v1h-1ZM65,11h1v1h-1Z"/><path fill="rgba(255,255,255,37)" d="M121,9h1v1h-1ZM164,13h1v1h-1ZM160,41h1v1h-1ZM230,42h1v1h-1ZM232,44h1v1h-1Z"/><path fill="rgba(255,255,255,14)" d="M181,9h1v1h-1ZM170,14h1v1h-1ZM221,17h1v1h-1ZM219,23h1v1h-1ZM133,24h1v1h-1ZM119,43h1v1h-1ZM123,45h1v1h-1ZM159,48h1v1h-1ZM197,48h1v1h-1ZM121,49h1v1h-1ZM138,51h1v1h-1ZM168,56h1v1h-1ZM231,56h1v1h-1ZM158,63h1v1h-1Z"/><path fill="rgba(255,255,255,9)" d="M185,9h1v1h-1ZM211,23h1v1h-1ZM191,43h1v1h-1ZM217,46h1v1h-1ZM222,48h1v1h-1ZM149,56h1v1h-1Z"/><path fill="rgba(255,255,255,27)" d="M186,9h1v1h-1ZM150,11h1v1h-1ZM118,13h1v1h-1ZM135,24h1v1h-1ZM162,24h1v1h-1ZM239,52h1v1h-1ZM181,54h1v1h-1ZM137,56h1v1h-1Z"/><path fill="rgba(255,255,255,16)" d="M205,9h1v1h-1ZM126,10h1v1h-1ZM141,10h1v1h-1ZM123,15h1v1h-1ZM198,22h1v1h-1ZM232,45h1v1h-1ZM156,49h1v1h-1ZM189,54h1v1h-1ZM134,55h1v1h-1ZM175,55h1v1h-1ZM244,55h1v1h-1ZM197,56h1v1h-1Z"/><path fill="rgba(255,255,255,34)" d="M206,9h2v1h-2ZM117,16h7v1h-7ZM145,23h1v1h-1ZM159,41h1v1h-1ZM154,51h1v1h-1ZM221,55h1v1h-1Z"/><path fill="rgba(255,255,255,7)" d="M208,9h1v1h-1ZM234,9h1v1h-1ZM157,10h1v1h-1ZM217,15h1v1h-1ZM228,25h1v1h-1ZM126,45h1v1h-1ZM163,49h1v1h-1ZM207,52h1v1h-1ZM122,54h1v1h-1ZM195,54h1v1h-1ZM235,56h1v1h-1Z"/><path fill="rgba(255,255,255,42)" d="M221,9h1v1h-1ZM214,14h1v1h-1ZM143,40h1v1h-1ZM159,43h1v1h-1Z"/><path fill="rgba(255,255,255,20)" d="M222,9h1v1h-1ZM214,19h1v1h-1ZM231,35h1v1h-1ZM156,40h1v1h-1ZM215,40h1v1h-1ZM136,54h1v1h-1ZM145,55h1v1h-1ZM182,56h1v1h-1Z"/><path fill="rgba(255,255,255,17)" d="M240,9h1v1h-1ZM209,15h1v1h-1ZM164,16h11v1h-11ZM210,24h1v1h-1Z"/><path fill="rgba(255,255,255,1)" d="M139,10h1v1h-1ZM163,11h1v1h-1ZM189,11h1v1h-1ZM215,11h1v1h-1ZM225,11h1v1h-1ZM165,12h1v1h-1ZM226,12h1v1h-1ZM185,13h1v1h-1ZM182,14h1v1h-1ZM128,15h1v1h-1ZM219,16h1v1h-1ZM202,20h1v1h-1ZM145,22h1v1h-1ZM177,24h1v1h-1ZM201,25h1v1h-1ZM203,40h1v1h-1ZM169,42h1v1h-1ZM189,42h1v1h-1ZM143,44h1v1h-1ZM124,49h1v1h-1ZM110,53h1v1h-1ZM246,56h1v1h-1ZM148,57h1v1h-1Z"/><path fill="rgba(255,255,255,28)" d="M147,10h1v1h-1ZM212,20h1v1h-1ZM135,34h1v1h-1ZM230,35h1v1h-1ZM202,43h1v1h-1ZM170,56h1v1h-1Z"/><path fill="rgba(255,255,255,48)" d="M187,10h1v1h-1ZM174,20h1v1h-1ZM111,23h1v1h-1ZM112,39h1v1h-1ZM183,41h1v1h-1ZM115,44h1v1h-1ZM134,49h1v1h-1ZM248,51h1v1h-1ZM114,55h1v1h-1ZM169,55h1v1h-1Z"/><path fill="rgba(255,255,255,44)" d="M192,10h1v1h-1ZM153,25h1v1h-1Z"/><path fill="rgba(255,255,255,4)" d="M202,10h1v1h-1ZM160,18h1v1h-1ZM214,25h1v1h-1ZM113,41h1v1h-1ZM185,41h1v1h-1ZM213,41h1v1h-1ZM135,44h1v1h-1ZM212,44h1v1h-1ZM155,51h1v1h-1ZM115,55h1v1h-1Z"/><path fill="rgba(255,255,255,2)" d="M210,10h1v1h-1ZM139,11h1v1h-1ZM161,14h1v1h-1ZM149,23h1v1h-1ZM116,25h1v1h-1ZM128,33h1v1h-1ZM115,34h1v1h-1ZM139,40h1v1h-1ZM208,41h1v1h-1ZM159,62h1v1h-1Z"/><path fill="rgba(170,0,0,3)" d="M46,11h1v1h-1Z"/><path fill="rgba(255,255,255,41)" d="M134,11h1v1h-1ZM236,11h1v1h-1ZM187,40h1v1h-1ZM134,48h1v1h-1ZM232,53h1v1h-1ZM126,56h1v1h-1Z"/><path fill="rgba(255,255,255,39)" d="M205,11h1v1h-1ZM220,23h1v1h-1ZM246,40h1v1h-1ZM237,54h1v1h-1Z"/><path fill="rgba(255,255,255,43)" d="M206,11h1v1h-1ZM198,15h1v1h-1ZM226,44h1v1h-1ZM162,45h1v1h-1ZM229,54h1v1h-1Z"/><path fill="rgba(255,255,255,33)" d="M211,11h1v1h-1ZM226,13h1v1h-1ZM112,20h1v1h-1ZM114,24h1v1h-1ZM218,40h1v1h-1ZM135,53h1v1h-1ZM224,55h1v1h-1Z"/><path fill="rgba(255,255,255,15)" d="M219,11h1v1h-1ZM173,21h1v1h-1ZM213,23h1v1h-1ZM229,25h1v1h-1ZM116,38h1v1h-1ZM212,42h1v1h-1ZM194,49h1v1h-1ZM223,54h1v1h-1ZM156,61h1v1h-1ZM160,61h1v1h-1Z"/><path fill="rgba(255,255,255,10)" d="M151,12h1v1h-1ZM232,37h1v4h-1ZM183,40h1v1h-1ZM125,41h1v1h-1ZM245,44h1v1h-1ZM137,45h1v1h-1ZM146,54h1v1h-1ZM184,55h1v1h-1ZM150,59h1v1h-1Z"/><path fill="rgba(255,255,255,22)" d="M177,12h1v1h-1ZM188,25h1v1h-1ZM239,41h1v1h-1ZM190,43h1v1h-1ZM137,49h1v1h-1ZM133,54h1v1h-1Z"/><path fill="rgba(255,255,255,31)" d="M184,12h1v1h-1ZM141,25h1v1h-1ZM121,56h1v1h-1Z"/><path fill="rgba(255,255,255,5)" d="M208,12h1v1h-1ZM240,12h1v1h-1ZM140,13h1v1h-1ZM231,40h1v1h-1ZM190,41h1v1h-1ZM242,46h1v1h-1ZM146,51h1v1h-1ZM107,55h2v1h-2ZM208,55h1v1h-1ZM247,55h1v1h-1ZM159,60h1v1h-1Z"/><path fill="rgba(255,0,0,1)" d="M67,13h1v1h-1ZM53,14h1v1h-1ZM40,17h1v1h-1ZM86,34h1v1h-1ZM30,35h1v1h-1Z"/><path fill="rgba(255,255,255,50)" d="M186,13h1v1h-1ZM124,43h1v1h-1ZM195,43h1v1h-1ZM152,51h1v1h-1Z"/><path fill="rgba(255,255,255,49)" d="M139,14h1v9h-1Z"/><path fill="rgba(255,255,255,6)" d="M115,15h1v1h-1ZM212,21h1v1h-1ZM159,24h1v1h-1ZM209,25h1v1h-1ZM185,43h1v1h-1ZM148,44h1v1h-1ZM248,50h1v1h-1ZM118,52h1v1h-1ZM151,57h1v1h-1Z"/><path fill="rgba(255,255,255,19)" d="M145,15h1v1h-1ZM177,38h1v1h-1ZM170,40h1v1h-1ZM127,41h1v1h-1ZM183,42h1v1h-1ZM122,49h1v1h-1ZM123,50h1v1h-1ZM206,50h2v1h-2ZM183,55h1v1h-1ZM216,55h1v1h-1ZM159,57h1v1h-1Z"/><path fill="rgba(206,0,0,47)" d="M70,17h1v1h-1Z"/><path fill="rgba(255,255,255,8)" d="M217,17h1v1h-1ZM217,20h1v1h-1ZM175,22h1v1h-1ZM227,23h1v1h-1ZM165,40h1v1h-1ZM194,40h1v1h-1ZM238,42h1v1h-1ZM213,43h1v1h-1ZM217,47h1v6h-1ZM168,48h1v1h-1ZM194,48h1v1h-1ZM134,50h1v1h-1ZM148,63h1v1h-1ZM150,64h1v1h-1Z"/><path fill="rgba(206,0,0,26)" d="M71,18h1v1h-1ZM2,55h1v1h-1Z"/><path fill="rgba(255,255,255,29)" d="M164,19h1v1h-1ZM110,24h1v1h-1ZM223,43h1v1h-1ZM156,44h1v1h-1Z"/><path fill="rgba(255,255,255,46)" d="M115,20h1v1h-1Z"/><path fill="rgba(255,255,255,13)" d="M126,20h1v1h-1ZM131,22h1v1h-1ZM161,22h1v1h-1ZM244,51h1v1h-1ZM148,54h1v1h-1ZM225,56h1v1h-1Z"/><path fill="rgba(255,255,255,25)" d="M130,20h1v1h-1ZM143,25h1v1h-1ZM220,43h1v1h-1ZM217,45h1v1h-1ZM190,55h1v1h-1Z"/><path fill="rgba(255,255,255,35)" d="M165,21h1v1h-1ZM200,42h1v1h-1ZM149,49h1v1h-1ZM152,61h1v1h-1Z"/><path fill="rgba(255,255,255,18)" d="M213,21h1v1h-1ZM159,54h1v1h-1Z"/><path fill="rgba(207,0,0,37)" d="M62,24h1v1h-1Z"/><path fill="rgba(255,255,255,30)" d="M235,24h1v1h-1ZM164,46h1v1h-1ZM196,55h1v1h-1ZM177,56h1v1h-1Z"/><path fill="rgba(200,0,0,28)" d="M63,25h1v1h-1Z"/><path fill="rgba(255,255,255,11)" d="M221,25h1v1h-1ZM232,36h1v1h-1ZM163,46h1v1h-1ZM232,46h1v7h-1ZM217,53h1v1h-1ZM241,55h1v1h-1ZM204,56h1v1h-1ZM232,56h1v1h-1ZM150,60h1v1h-1Z"/><path fill="rgba(219,0,0,7)" d="M79,26h1v1h-1ZM44,33h1v1h-1ZM50,40h1v1h-1ZM91,40h1v1h-1Z"/><path fill="rgba(204,0,0,20)" d="M68,30h1v1h-1Z"/><path fill="rgba(205,0,0,46)" d="M27,31h1v1h-1Z"/><path fill="rgba(202,0,0,24)" d="M69,31h1v1h-1ZM48,39h1v1h-1Z"/><path fill="rgba(205,0,0,36)" d="M82,31h1v1h-1Z"/><path fill="rgba(255,0,0,2)" d="M72,35h1v1h-1Z"/><path fill="rgba(203,0,0,39)" d="M89,38h1v1h-1Z"/><path fill="rgba(204,0,0,30)" d="M90,39h1v1h-1ZM101,51h1v1h-1Z"/><path fill="rgba(255,255,255,40)" d="M118,42h1v1h-1Z"/><path fill="rgba(255,255,255,38)" d="M147,44h1v1h-1ZM120,47h1v1h-1ZM155,64h1v1h-1Z"/><path fill="rgba(204,0,0,35)" d="M13,45h1v1h-1Z"/><path fill="rgba(201,0,0,33)" d="M54,45h1v1h-1ZM95,45h1v1h-1Z"/><path fill="rgba(200,0,0,23)" d="M96,46h1v1h-1Z"/><path fill="rgba(207,0,0,32)" d="M9,48h1v1h-1Z"/><path fill="rgba(255,255,255,24)" d="M152,48h1v1h-1ZM112,53h1v1h-1Z"/><path fill="rgba(255,255,255,26)" d="M222,49h1v1h-1ZM147,50h1v1h-1Z"/><path fill="rgba(204,0,0,15)" d="M86,50h1v1h-1Z"/><path fill="rgba(255,255,255,45)" d="M226,51h1v1h-1Z"/><path fill="rgba(208,0,0,27)" d="M3,54h1v1h-1Z"/><path fill="rgba(191,0,0,4)" d="M104,54h1v1h-1Z"/><path fill="rgba(200,0,0,14)" d="M1,56h1v1h-1Z"/></g></svg>