<svg version="1.1" xmlns="http://www.w3.org/2000/svg" xmlns:xlink="http://www.w3.org/1999/xlink" shape-rendering="crispEdges" width="16" height="16" viewBox="0 0 16 16"><g><path fill="rgba(0,0,0,0)" d="M0,0h16v4h-16ZM0,13h16v3h-16Z"/><path fill="rgba(255,255,255,0)" d="M0,4h2v1h-2ZM15,4h1v1h-1ZM0,5h1v1h-1ZM15,11h1v1h-1ZM0,12h1v1h-1ZM14,12h2v1h-2Z"/><path fill="rgba(128,128,128,255)" d="M2,4h13v1h-13ZM1,5h1v1h-1ZM14,5h1v1h-1ZM0,6h1v5h-1ZM13,6h2v5h-2ZM2,9h10v1h-10ZM0,11h14v1h-14Z"/><path fill="rgba(192,192,192,255)" d="M2,5h12v1h-12ZM1,7h10v1h-10ZM12,7h1v1h-1ZM1,8h12v1h-12ZM1,9h1v2h-1ZM12,9h1v2h-1Z"/><path fill="rgba(0,0,0,255)" d="M15,5h1v6h-1ZM14,11h1v1h-1ZM1,12h13v1h-13Z"/><path fill="rgba(255,255,255,255)" d="M1,6h12v1h-12ZM2,10h10v1h-10Z"/><path fill="rgba(0,128,0,255)" d="M11,7h1v1h-1Z"/></g></svg>