<svg version="1.1" xmlns="http://www.w3.org/2000/svg" xmlns:xlink="http://www.w3.org/1999/xlink" shape-rendering="crispEdges" width="32" height="32" viewBox="0 0 32 32"><g><path fill="rgba(0,0,0,0)" d="M0,0h32v15h-32ZM30,15h2v14h-2ZM0,29h32v3h-32Z"/><path fill="rgba(255,255,255,0)" d="M0,15h3v1h-3ZM29,15h1v1h-1ZM0,16h2v1h-2ZM0,17h1v1h-1ZM29,26h1v1h-1ZM28,27h2v1h-2ZM0,28h1v1h-1ZM27,28h3v1h-3Z"/><path fill="rgba(128,128,128,255)" d="M3,15h26v1h-26ZM2,16h1v1h-1ZM28,16h1v1h-1ZM1,17h1v1h-1ZM27,17h2v1h-2ZM0,18h1v9h-1ZM26,18h3v8h-3ZM3,22h21v1h-21ZM3,24h21v1h-21ZM26,26h2v1h-2ZM0,27h27v1h-27Z"/><path fill="rgba(192,192,192,255)" d="M3,16h25v1h-25ZM2,17h25v1h-25ZM2,19h19v2h-19ZM24,19h2v2h-2ZM2,21h24v1h-24ZM2,22h1v4h-1ZM24,22h2v4h-2ZM2,26h24v1h-24Z"/><path fill="rgba(0,0,0,255)" d="M29,16h1v10h-1ZM28,26h1v1h-1ZM27,27h1v1h-1ZM1,28h26v1h-26Z"/><path fill="rgba(255,255,255,255)" d="M1,18h25v1h-25ZM1,19h1v8h-1ZM3,23h21v1h-21ZM3,25h21v1h-21Z"/><path fill="rgba(0,255,0,255)" d="M21,19h3v1h-3Z"/><path fill="rgba(0,128,0,255)" d="M21,20h3v1h-3Z"/></g></svg>