<svg version="1.1" xmlns="http://www.w3.org/2000/svg" xmlns:xlink="http://www.w3.org/1999/xlink" shape-rendering="crispEdges" width="64" height="64" viewBox="0 0 64 64"><g><path fill="rgba(255,255,255,0)" d="M0,0h64v7h-64ZM0,7h20v2h-20ZM32,7h16v2h-16ZM60,7h4v8h-4ZM0,9h14v2h-14ZM38,9h10v2h-10ZM0,11h10v2h-10ZM42,11h6v2h-6ZM0,13h8v2h-8ZM44,13h4v2h-4ZM0,15h6v2h-6ZM0,17h4v4h-4ZM0,21h2v4h-2ZM52,29h12v12h-12ZM0,41h2v4h-2ZM50,41h14v4h-14ZM0,45h4v4h-4ZM48,45h16v4h-16ZM0,49h6v2h-6ZM46,49h18v2h-18ZM0,51h8v2h-8ZM44,51h20v2h-20ZM0,53h10v2h-10ZM42,53h22v2h-22ZM0,55h14v2h-14ZM38,55h26v2h-26ZM0,57h18v2h-18ZM32,57h32v2h-32ZM0,59h64v5h-64Z"/><path fill="rgba(128,128,128,255)" d="M20,7h12v2h-12ZM14,9h6v2h-6ZM32,9h6v2h-6ZM10,11h6v2h-6ZM8,13h2v2h-2ZM6,15h2v2h-2ZM4,17h2v4h-2ZM2,21h2v4h-2ZM0,25h2v8h-2ZM22,25h8v2h-8ZM20,27h2v2h-2ZM18,29h2v6h-2ZM32,29h2v8h-2ZM0,33h4v2h-4ZM6,33h2v2h-2ZM10,33h2v2h-2ZM14,33h2v2h-2ZM0,35h2v2h-2ZM4,35h2v2h-2ZM8,35h2v2h-2ZM12,35h2v2h-2ZM16,35h4v2h-4ZM0,37h4v2h-4ZM6,37h2v2h-2ZM10,37h2v2h-2ZM14,37h2v2h-2ZM20,37h2v2h-2ZM30,37h2v2h-2ZM0,39h2v2h-2ZM4,39h2v2h-2ZM8,39h2v2h-2ZM12,39h2v2h-2ZM22,39h8v2h-8ZM2,41h2v2h-2ZM6,41h2v2h-2ZM10,41h2v2h-2ZM2,43h4v2h-4ZM8,43h2v2h-2ZM4,45h4v2h-4ZM4,47h2v2h-2ZM6,49h2v2h-2ZM8,51h2v2h-2ZM10,53h4v2h-4ZM36,53h2v2h-2ZM14,55h4v2h-4Z"/><path fill="rgba(0,0,0,255)" d="M48,7h12v4h-12ZM38,11h4v2h-4ZM48,11h2v4h-2ZM58,11h2v4h-2ZM42,13h2v2h-2ZM30,15h34v2h-34ZM30,17h2v2h-2ZM38,17h2v2h-2ZM48,17h2v2h-2ZM58,17h2v2h-2ZM62,17h2v2h-2ZM30,19h34v2h-34ZM30,21h2v2h-2ZM38,21h2v2h-2ZM44,21h6v2h-6ZM54,21h6v2h-6ZM62,21h2v2h-2ZM30,23h34v2h-34ZM30,25h2v2h-2ZM38,25h2v2h-2ZM62,25h2v2h-2ZM22,27h42v2h-42ZM20,29h2v8h-2ZM30,29h2v8h-2ZM34,29h6v2h-6ZM50,29h2v12h-2ZM34,31h4v2h-4ZM22,37h8v2h-8ZM48,41h2v4h-2ZM46,45h2v4h-2ZM44,49h2v2h-2ZM42,51h2v2h-2ZM38,53h4v2h-4ZM32,55h6v2h-6ZM18,57h14v2h-14Z"/><path fill="rgba(255,255,0,255)" d="M20,9h6v6h-6ZM22,15h4v10h-4ZM26,41h2v2h-2ZM24,43h4v2h-4ZM26,45h2v2h-2ZM24,47h4v2h-4ZM26,49h2v2h-2ZM24,51h6v2h-6ZM26,53h4v2h-4ZM24,55h6v2h-6Z"/><path fill="rgba(192,192,192,255)" d="M26,9h6v2h-6ZM26,11h12v2h-12ZM26,13h16v2h-16ZM26,15h4v10h-4ZM6,17h4v2h-4ZM8,19h4v2h-4ZM10,21h4v2h-4ZM4,23h4v2h-4ZM12,23h4v2h-4ZM2,25h10v2h-10ZM14,25h4v2h-4ZM2,27h12v2h-12ZM16,27h4v2h-4ZM2,29h14v2h-14ZM40,29h10v2h-10ZM2,31h16v2h-16ZM38,31h12v2h-12ZM4,33h2v2h-2ZM8,33h2v2h-2ZM12,33h2v2h-2ZM16,33h2v2h-2ZM34,33h16v4h-16ZM2,35h2v2h-2ZM6,35h2v2h-2ZM10,35h2v2h-2ZM14,35h2v2h-2ZM4,37h2v2h-2ZM8,37h2v2h-2ZM12,37h2v2h-2ZM18,37h2v2h-2ZM32,37h18v4h-18ZM2,39h2v2h-2ZM6,39h2v2h-2ZM10,39h2v2h-2ZM16,39h2v2h-2ZM20,39h2v2h-2ZM4,41h2v2h-2ZM8,41h2v2h-2ZM14,41h2v2h-2ZM18,41h8v2h-8ZM28,41h2v2h-2ZM34,41h14v2h-14ZM6,43h2v2h-2ZM12,43h2v2h-2ZM16,43h8v2h-8ZM30,43h2v4h-2ZM36,43h12v2h-12ZM10,45h2v2h-2ZM14,45h12v2h-12ZM38,45h8v2h-8ZM8,47h2v2h-2ZM12,47h12v2h-12ZM32,47h2v4h-2ZM40,47h6v2h-6ZM10,49h16v2h-16ZM42,49h2v2h-2ZM10,51h14v2h-14ZM34,51h2v4h-2ZM14,53h12v2h-12ZM18,55h6v2h-6Z"/><path fill="rgba(0,255,255,255)" d="M16,11h4v2h-4ZM14,13h6v2h-6ZM16,15h6v4h-6ZM6,19h2v2h-2ZM18,19h4v4h-4ZM4,21h6v2h-6ZM8,23h4v2h-4ZM20,23h2v2h-2ZM12,25h2v2h-2ZM14,27h2v2h-2ZM16,29h2v2h-2ZM30,39h2v2h-2ZM30,41h4v2h-4ZM32,43h4v2h-4ZM32,45h6v2h-6ZM34,47h6v2h-6ZM34,49h8v2h-8ZM36,51h6v2h-6Z"/><path fill="rgba(255,255,255,255)" d="M50,11h8v4h-8ZM32,17h6v2h-6ZM40,17h8v2h-8ZM50,17h8v2h-8ZM60,17h2v2h-2ZM32,21h6v2h-6ZM40,21h4v2h-4ZM50,21h4v2h-4ZM60,21h2v2h-2ZM32,25h6v2h-6ZM40,25h22v2h-22ZM22,29h8v8h-8ZM16,37h2v2h-2ZM14,39h2v2h-2ZM18,39h2v2h-2ZM12,41h2v2h-2ZM16,41h2v2h-2ZM10,43h2v2h-2ZM14,43h2v2h-2ZM8,45h2v2h-2ZM12,45h2v2h-2ZM6,47h2v2h-2ZM10,47h2v2h-2ZM8,49h2v2h-2Z"/><path fill="rgba(0,255,0,255)" d="M10,13h4v2h-4ZM8,15h8v2h-8ZM10,17h6v2h-6ZM12,19h6v2h-6ZM14,21h4v2h-4ZM16,23h4v2h-4ZM18,25h4v2h-4ZM28,43h2v4h-2ZM28,47h4v4h-4ZM30,51h4v4h-4ZM30,55h2v2h-2Z"/></g></svg>