<svg version="1.1" xmlns="http://www.w3.org/2000/svg" xmlns:xlink="http://www.w3.org/1999/xlink" shape-rendering="crispEdges" width="16" height="16" viewBox="0 0 16 16"><g><path fill="rgba(255,255,255,0)" d="M0,0h4v1h-4ZM10,0h5v1h-5ZM0,1h2v1h-2ZM12,1h3v1h-3ZM0,2h1v2h-1ZM13,2h2v2h-2ZM14,4h1v5h-1ZM13,9h2v1h-2ZM14,10h1v2h-1ZM0,13h1v2h-1ZM14,14h1v1h-1ZM0,15h2v1h-2ZM11,15h4v1h-4Z"/><path fill="rgba(0,0,0,255)" d="M4,0h2v1h-2ZM8,0h2v1h-2ZM2,1h1v1h-1ZM11,1h1v1h-1ZM1,2h1v2h-1ZM12,2h1v2h-1ZM0,4h1v9h-1ZM13,4h1v5h-1ZM12,9h1v1h-1ZM12,10h2v1h-2ZM4,11h1v1h-1ZM13,11h1v1h-1ZM13,12h2v1h-2ZM1,13h1v2h-1ZM8,13h1v2h-1ZM14,13h1v1h-1ZM10,14h1v1h-1ZM12,14h1v1h-1ZM2,15h1v1h-1ZM5,15h5v1h-5Z"/><path fill="rgba(128,128,0,255)" d="M6,0h2v1h-2ZM4,6h1v1h-1ZM2,8h1v1h-1ZM6,8h2v1h-2ZM6,9h1v1h-1ZM3,10h1v1h-1ZM7,10h1v1h-1ZM6,11h2v1h-2ZM5,12h4v1h-4ZM4,13h2v1h-2ZM7,13h1v2h-1ZM10,13h2v1h-2Z"/><path fill="rgba(0,0,0,0)" d="M15,0h1v16h-1Z"/><path fill="rgba(0,128,128,255)" d="M3,1h2v1h-2ZM10,1h1v1h-1ZM4,2h2v1h-2ZM11,2h1v1h-1ZM5,3h1v1h-1Z"/><path fill="rgba(128,128,128,255)" d="M5,1h1v1h-1ZM2,2h2v1h-2ZM4,3h1v1h-1ZM1,4h2v1h-2ZM5,4h1v1h-1ZM12,4h1v1h-1ZM1,5h1v1h-1ZM5,5h2v1h-2ZM5,6h4v1h-4ZM10,6h1v1h-1ZM1,7h2v1h-2ZM5,7h3v1h-3ZM9,7h1v1h-1ZM1,8h1v1h-1ZM11,8h1v1h-1ZM3,9h1v1h-1ZM5,10h1v2h-1ZM1,11h1v2h-1ZM10,11h1v1h-1ZM2,13h1v1h-1ZM12,13h2v1h-2ZM2,14h5v1h-5ZM9,14h1v1h-1ZM11,14h1v1h-1ZM13,14h1v1h-1ZM3,15h2v1h-2ZM10,15h1v1h-1Z"/><path fill="rgba(255,255,0,255)" d="M6,1h1v1h-1ZM3,6h1v1h-1ZM7,9h1v1h-1ZM8,11h2v1h-2ZM9,13h1v1h-1Z"/><path fill="rgba(192,192,192,255)" d="M7,1h3v1h-3ZM7,2h4v1h-4ZM2,3h2v1h-2ZM7,3h3v1h-3ZM11,3h1v1h-1ZM3,4h2v1h-2ZM7,4h2v1h-2ZM10,4h2v1h-2ZM4,5h1v1h-1ZM7,5h1v1h-1ZM9,5h4v1h-4ZM9,6h1v1h-1ZM11,6h2v1h-2ZM3,7h2v1h-2ZM10,7h1v2h-1ZM4,8h1v1h-1ZM2,9h1v1h-1ZM5,9h1v1h-1ZM8,9h2v1h-2ZM11,9h1v1h-1ZM1,10h1v1h-1ZM6,10h1v1h-1ZM8,10h4v1h-4ZM3,11h1v1h-1ZM11,11h2v1h-2ZM2,12h3v1h-3ZM9,12h2v1h-2ZM12,12h1v1h-1ZM6,13h1v1h-1Z"/><path fill="rgba(0,255,0,255)" d="M6,2h1v3h-1Z"/><path fill="rgba(0,255,255,255)" d="M10,3h1v1h-1ZM9,4h1v1h-1ZM8,5h1v1h-1Z"/><path fill="rgba(0,128,0,255)" d="M2,5h2v1h-2Z"/><path fill="rgba(128,0,128,255)" d="M1,6h1v1h-1ZM8,7h1v1h-1ZM11,7h1v1h-1ZM12,8h1v1h-1Z"/><path fill="rgba(255,255,255,255)" d="M2,6h1v1h-1ZM3,8h1v1h-1ZM5,8h1v1h-1ZM8,8h2v1h-2ZM1,9h1v1h-1ZM4,9h1v2h-1ZM10,9h1v1h-1ZM2,10h1v2h-1ZM11,12h1v1h-1ZM3,13h1v1h-1Z"/><path fill="rgba(255,0,255,255)" d="M12,7h1v1h-1Z"/></g></svg>