<svg version="1.1" xmlns="http://www.w3.org/2000/svg" xmlns:xlink="http://www.w3.org/1999/xlink" shape-rendering="crispEdges" width="64" height="64" viewBox="0 0 64 64"><g><path fill="rgba(255,255,255,0)" d="M0,0h26v2h-26ZM38,0h26v2h-26ZM0,2h20v2h-20ZM44,2h20v2h-20ZM0,4h16v2h-16ZM48,4h16v2h-16ZM0,6h14v2h-14ZM50,6h14v2h-14ZM0,8h12v2h-12ZM52,8h12v2h-12ZM0,10h10v4h-10ZM54,10h10v4h-10ZM0,14h8v4h-8ZM56,14h8v4h-8ZM0,18h6v22h-6ZM58,18h6v16h-6ZM56,34h8v8h-8ZM0,40h4v6h-4ZM58,42h6v4h-6ZM0,46h6v4h-6ZM60,46h4v4h-4ZM0,50h8v4h-8ZM62,50h2v6h-2ZM0,54h10v4h-10ZM56,56h8v2h-8ZM0,58h12v4h-12ZM50,58h14v2h-14ZM44,60h20v2h-20ZM0,62h14v2h-14ZM20,62h44v2h-44Z"/><path fill="rgba(0,0,0,255)" d="M26,0h12v2h-12ZM20,2h6v2h-6ZM38,2h6v2h-6ZM16,4h4v2h-4ZM44,4h4v2h-4ZM14,6h2v2h-2ZM48,6h2v2h-2ZM12,8h2v2h-2ZM50,8h2v2h-2ZM10,10h2v4h-2ZM52,10h2v4h-2ZM8,14h2v4h-2ZM54,14h2v4h-2ZM6,18h2v16h-2ZM56,18h2v16h-2ZM12,22h8v2h-8ZM10,24h2v4h-2ZM20,24h2v2h-2ZM22,26h2v2h-2ZM44,26h4v2h-4ZM12,28h2v4h-2ZM24,28h2v2h-2ZM40,28h4v2h-4ZM46,28h2v2h-2ZM26,30h2v2h-2ZM34,30h6v2h-6ZM48,30h2v4h-2ZM14,32h2v4h-2ZM28,32h2v4h-2ZM32,32h2v2h-2ZM6,34h6v2h-6ZM50,34h2v4h-2ZM54,34h2v4h-2ZM6,36h2v2h-2ZM16,36h2v4h-2ZM30,36h2v4h-2ZM52,38h4v4h-4ZM4,40h4v2h-4ZM18,40h2v4h-2ZM32,40h2v4h-2ZM4,42h2v4h-2ZM8,42h2v4h-2ZM54,42h2v2h-2ZM20,44h2v2h-2ZM34,44h2v4h-2ZM54,44h4v2h-4ZM6,46h2v4h-2ZM10,46h2v4h-2ZM20,46h10v2h-10ZM56,46h2v2h-2ZM30,48h2v2h-2ZM36,48h2v4h-2ZM56,48h4v2h-4ZM8,50h2v4h-2ZM12,50h2v4h-2ZM32,50h2v2h-2ZM56,50h6v2h-6ZM34,52h2v2h-2ZM38,52h2v2h-2ZM52,52h4v2h-4ZM60,52h2v2h-2ZM10,54h2v4h-2ZM14,54h2v4h-2ZM22,54h6v2h-6ZM36,54h4v2h-4ZM46,54h6v2h-6ZM56,54h6v2h-6ZM18,56h4v2h-4ZM28,56h6v2h-6ZM38,56h8v2h-8ZM50,56h6v2h-6ZM12,58h2v4h-2ZM16,58h2v2h-2ZM34,58h6v2h-6ZM44,58h6v2h-6ZM20,60h24v2h-24ZM14,62h6v2h-6Z"/><path fill="rgba(0,255,0,255)" d="M26,2h2v2h-2ZM28,6h2v12h-2ZM10,14h2v2h-2ZM12,16h2v2h-2ZM10,18h2v2h-2ZM14,18h2v2h-2ZM8,20h2v2h-2ZM12,20h2v2h-2ZM16,20h2v2h-2ZM10,22h2v2h-2Z"/><path fill="rgba(255,255,0,255)" d="M28,2h6v2h-6ZM28,4h4v2h-4ZM30,6h4v2h-4ZM16,8h2v2h-2ZM30,8h2v2h-2ZM14,10h2v2h-2ZM18,10h2v2h-2ZM30,10h4v2h-4ZM12,12h2v2h-2ZM16,12h2v2h-2ZM20,12h2v2h-2ZM30,12h2v2h-2ZM14,14h2v2h-2ZM18,14h2v2h-2ZM22,14h2v2h-2ZM30,14h4v2h-4ZM16,16h2v2h-2ZM20,16h2v2h-2ZM24,16h2v2h-2ZM30,16h2v2h-2ZM18,18h2v2h-2ZM22,18h2v2h-2ZM26,18h2v2h-2ZM30,18h4v2h-4ZM20,20h2v2h-2ZM24,20h2v2h-2ZM22,22h2v2h-2ZM16,24h4v2h-4ZM24,24h2v2h-2ZM18,26h4v2h-4ZM18,30h4v2h-4ZM12,32h2v4h-2ZM26,32h2v2h-2ZM30,34h6v2h-6ZM46,34h2v2h-2ZM10,36h2v2h-2ZM22,36h2v2h-2ZM32,36h2v2h-2ZM36,36h2v2h-2ZM48,36h2v2h-2ZM12,38h2v2h-2ZM32,38h4v2h-4ZM42,38h4v2h-4ZM14,40h2v2h-2ZM34,40h2v2h-2ZM38,40h4v2h-4ZM50,40h2v4h-2ZM16,42h2v2h-2ZM24,42h4v2h-4ZM34,42h4v2h-4ZM14,44h2v2h-2ZM28,44h2v2h-2ZM36,44h2v4h-2ZM44,44h4v2h-4ZM52,44h2v2h-2ZM16,46h2v2h-2ZM30,46h2v2h-2ZM40,46h4v2h-4ZM18,48h2v2h-2ZM32,48h2v2h-2ZM38,48h2v4h-2ZM46,48h4v2h-4ZM54,48h2v4h-2ZM16,50h2v2h-2ZM20,50h2v2h-2ZM24,50h2v2h-2ZM28,50h2v2h-2ZM44,50h2v2h-2ZM18,52h2v2h-2ZM22,52h2v2h-2ZM26,52h2v2h-2ZM30,52h2v2h-2ZM40,52h4v2h-4ZM46,52h6v2h-6ZM20,54h2v2h-2ZM28,54h2v2h-2ZM32,54h2v2h-2ZM40,54h6v2h-6ZM34,56h2v2h-2Z"/><path fill="rgba(192,192,192,255)" d="M34,2h4v2h-4ZM24,4h2v2h-2ZM32,4h8v2h-8ZM42,4h2v2h-2ZM26,6h2v2h-2ZM34,6h4v2h-4ZM40,6h2v2h-2ZM44,6h2v2h-2ZM32,8h4v2h-4ZM38,8h2v2h-2ZM42,8h2v2h-2ZM46,8h2v2h-2ZM12,10h2v2h-2ZM34,10h4v2h-4ZM40,10h2v2h-2ZM44,10h2v2h-2ZM50,10h2v2h-2ZM14,12h2v2h-2ZM32,12h4v2h-4ZM38,12h2v2h-2ZM42,12h2v2h-2ZM48,12h2v2h-2ZM12,14h2v2h-2ZM16,14h2v2h-2ZM34,14h4v2h-4ZM40,14h2v2h-2ZM46,14h2v2h-2ZM50,14h2v2h-2ZM10,16h2v2h-2ZM14,16h2v2h-2ZM18,16h2v2h-2ZM32,16h4v2h-4ZM38,16h2v2h-2ZM44,16h2v2h-2ZM48,16h2v2h-2ZM52,16h2v2h-2ZM8,18h2v2h-2ZM12,18h2v2h-2ZM16,18h2v2h-2ZM20,18h2v2h-2ZM34,18h4v2h-4ZM42,18h2v2h-2ZM46,18h2v2h-2ZM50,18h2v2h-2ZM54,18h2v2h-2ZM10,20h2v2h-2ZM14,20h2v2h-2ZM18,20h2v2h-2ZM22,20h2v2h-2ZM26,20h2v2h-2ZM34,20h2v2h-2ZM40,20h2v2h-2ZM44,20h2v2h-2ZM48,20h2v2h-2ZM52,20h2v2h-2ZM8,22h2v2h-2ZM20,22h2v2h-2ZM24,22h2v2h-2ZM30,22h4v2h-4ZM38,22h2v2h-2ZM42,22h2v2h-2ZM46,22h2v2h-2ZM50,22h2v2h-2ZM54,22h2v2h-2ZM22,24h2v2h-2ZM28,24h2v4h-2ZM34,24h2v4h-2ZM38,24h18v2h-18ZM30,28h4v2h-4ZM28,38h2v2h-2ZM6,42h2v4h-2ZM30,42h2v2h-2ZM8,46h2v4h-2ZM32,46h2v2h-2ZM10,50h2v4h-2ZM34,50h2v2h-2ZM12,54h2v4h-2ZM14,58h2v2h-2ZM14,60h4v2h-4Z"/><path fill="rgba(0,255,255,255)" d="M20,4h2v2h-2ZM40,4h2v2h-2ZM18,6h2v2h-2ZM22,6h2v2h-2ZM38,6h2v2h-2ZM42,6h2v2h-2ZM46,6h2v2h-2ZM14,8h2v2h-2ZM20,8h2v2h-2ZM24,8h2v2h-2ZM36,8h2v2h-2ZM40,8h2v2h-2ZM44,8h2v2h-2ZM48,8h2v2h-2ZM16,10h2v2h-2ZM22,10h2v2h-2ZM26,10h2v2h-2ZM38,10h2v2h-2ZM42,10h2v2h-2ZM46,10h4v2h-4ZM18,12h2v2h-2ZM24,12h2v2h-2ZM36,12h2v2h-2ZM40,12h2v2h-2ZM44,12h4v2h-4ZM20,14h2v2h-2ZM26,14h2v2h-2ZM38,14h2v2h-2ZM42,14h4v2h-4ZM22,16h2v2h-2ZM36,16h2v2h-2ZM40,16h4v2h-4ZM24,18h2v2h-2ZM28,18h2v4h-2ZM38,18h4v2h-4ZM36,20h4v2h-4ZM36,22h2v2h-2Z"/><path fill="rgba(0,128,128,255)" d="M22,4h2v2h-2ZM26,4h2v2h-2ZM16,6h2v2h-2ZM20,6h2v2h-2ZM24,6h2v2h-2ZM18,8h2v2h-2ZM22,8h2v2h-2ZM26,8h2v2h-2ZM20,10h2v2h-2ZM24,10h2v2h-2ZM22,12h2v2h-2ZM26,12h2v2h-2ZM24,14h2v2h-2ZM26,16h2v2h-2ZM26,22h2v2h-2Z"/><path fill="rgba(128,128,128,255)" d="M50,12h2v2h-2ZM48,14h2v2h-2ZM52,14h2v2h-2ZM46,16h2v2h-2ZM50,16h2v2h-2ZM44,18h2v2h-2ZM48,18h2v2h-2ZM52,18h2v2h-2ZM30,20h4v2h-4ZM42,20h2v2h-2ZM46,20h2v2h-2ZM50,20h2v2h-2ZM54,20h2v2h-2ZM28,22h2v2h-2ZM34,22h2v2h-2ZM40,22h2v2h-2ZM44,22h2v2h-2ZM48,22h2v2h-2ZM52,22h2v2h-2ZM26,24h2v4h-2ZM36,24h2v4h-2ZM8,28h2v2h-2ZM18,28h4v2h-4ZM26,28h4v2h-4ZM34,28h2v2h-2ZM8,30h4v4h-4ZM22,30h2v2h-2ZM28,30h6v2h-6ZM30,32h2v2h-2ZM50,32h2v2h-2ZM20,34h4v2h-4ZM44,34h2v2h-2ZM52,34h2v4h-2ZM24,36h2v2h-2ZM40,36h4v2h-4ZM6,38h2v2h-2ZM36,38h4v2h-4ZM24,40h4v2h-4ZM46,40h2v2h-2ZM28,42h2v2h-2ZM42,42h4v2h-4ZM56,42h2v2h-2ZM38,44h4v2h-4ZM48,44h2v2h-2ZM44,46h4v2h-4ZM58,46h2v2h-2ZM40,48h4v2h-4ZM56,52h4v2h-4ZM52,54h4v2h-4ZM22,56h6v2h-6ZM46,56h4v2h-4ZM18,58h16v2h-16ZM40,58h4v2h-4ZM18,60h2v2h-2Z"/><path fill="rgba(255,0,255,255)" d="M8,24h2v4h-2ZM24,26h2v2h-2ZM38,26h6v2h-6ZM48,26h8v4h-8ZM10,28h2v2h-2ZM36,28h4v2h-4ZM50,30h6v2h-6ZM52,32h4v2h-4Z"/><path fill="rgba(255,255,255,255)" d="M12,24h4v2h-4ZM30,24h4v4h-4ZM12,26h6v2h-6ZM14,28h4v4h-4ZM22,28h2v2h-2ZM44,28h2v2h-2ZM24,30h2v2h-2ZM40,30h8v2h-8ZM16,32h10v2h-10ZM34,32h14v2h-14ZM16,34h4v2h-4ZM24,34h4v2h-4ZM36,34h8v2h-8ZM48,34h2v2h-2ZM8,36h2v2h-2ZM12,36h2v2h-2ZM18,36h4v2h-4ZM26,36h2v2h-2ZM34,36h2v2h-2ZM38,36h2v2h-2ZM44,36h4v2h-4ZM8,38h4v2h-4ZM14,38h2v2h-2ZM18,38h10v2h-10ZM40,38h2v2h-2ZM46,38h6v2h-6ZM8,40h6v2h-6ZM20,40h4v4h-4ZM28,40h2v2h-2ZM36,40h2v2h-2ZM42,40h4v2h-4ZM48,40h2v2h-2ZM10,42h6v2h-6ZM38,42h4v2h-4ZM46,42h4v2h-4ZM52,42h2v2h-2ZM10,44h4v2h-4ZM16,44h2v2h-2ZM22,44h6v2h-6ZM30,44h2v2h-2ZM42,44h2v2h-2ZM50,44h2v2h-2ZM12,46h4v2h-4ZM18,46h2v2h-2ZM38,46h2v2h-2ZM48,46h8v2h-8ZM12,48h6v2h-6ZM20,48h2v2h-2ZM44,48h2v2h-2ZM50,48h4v2h-4ZM14,50h2v2h-2ZM18,50h2v2h-2ZM22,50h2v2h-2ZM26,50h2v2h-2ZM40,50h4v2h-4ZM46,50h8v2h-8ZM14,52h4v2h-4ZM20,52h2v2h-2ZM24,52h2v2h-2ZM28,52h2v2h-2ZM44,52h2v2h-2ZM16,54h4v2h-4ZM30,54h2v2h-2ZM16,56h2v2h-2Z"/><path fill="rgba(128,128,0,255)" d="M14,36h2v2h-2ZM28,36h2v2h-2ZM16,40h2v2h-2ZM30,40h2v2h-2ZM18,44h2v2h-2ZM32,44h2v2h-2ZM22,48h8v2h-8ZM34,48h2v2h-2ZM30,50h2v2h-2ZM32,52h2v2h-2ZM36,52h2v2h-2ZM34,54h2v2h-2ZM36,56h2v2h-2Z"/></g></svg>