<svg version="1.1" xmlns="http://www.w3.org/2000/svg" xmlns:xlink="http://www.w3.org/1999/xlink" shape-rendering="crispEdges" width="12" height="10" viewBox="0 0 12 10"><g><path fill="rgba(192,192,192,255)" d="M0,0h12v1h-12ZM0,1h2v1h-2ZM4,1h4v1h-4ZM10,1h2v1h-2ZM0,2h3v1h-3ZM5,2h2v1h-2ZM9,2h3v1h-3ZM0,3h4v1h-4ZM8,3h4v1h-4ZM0,4h5v1h-5ZM7,4h5v1h-5ZM0,5h4v1h-4ZM8,5h4v1h-4ZM0,6h3v1h-3ZM5,6h2v1h-2ZM9,6h3v1h-3ZM0,7h2v1h-2ZM4,7h4v1h-4ZM10,7h2v1h-2ZM0,8h12v2h-12Z"/><path fill="rgba(0,0,0,255)" d="M2,1h2v1h-2ZM8,1h2v1h-2ZM3,2h2v1h-2ZM7,2h2v1h-2ZM4,3h4v1h-4ZM5,4h2v1h-2ZM4,5h4v1h-4ZM3,6h2v1h-2ZM7,6h2v1h-2ZM2,7h2v1h-2ZM8,7h2v1h-2Z"/></g></svg>