<svg version="1.1" xmlns="http://www.w3.org/2000/svg" xmlns:xlink="http://www.w3.org/1999/xlink" shape-rendering="crispEdges" width="48" height="48" viewBox="0 0 48 48"><g><path fill="rgba(0,0,0,0)" d="M0,0h48v24h-48ZM0,24h24v19h-24ZM35,24h13v19h-13ZM0,43h48v5h-48Z"/><path fill="rgba(0,0,0,255)" d="M24,24h1v1h-1ZM24,25h2v1h-2ZM24,26h1v11h-1ZM26,26h1v1h-1ZM27,27h1v1h-1ZM28,28h1v1h-1ZM29,29h1v1h-1ZM30,30h1v1h-1ZM31,31h1v1h-1ZM32,32h1v1h-1ZM33,33h1v1h-1ZM30,34h5v1h-5ZM27,35h1v1h-1ZM30,35h1v1h-1ZM26,36h1v1h-1ZM28,36h1v2h-1ZM31,36h1v2h-1ZM24,37h2v1h-2ZM24,38h1v1h-1ZM29,38h1v2h-1ZM32,38h1v2h-1ZM30,40h1v2h-1ZM33,40h1v2h-1ZM31,42h2v1h-2Z"/><path fill="rgba(255,255,255,0)" d="M25,24h10v1h-10ZM26,25h9v1h-9ZM27,26h8v1h-8ZM28,27h7v1h-7ZM29,28h6v1h-6ZM30,29h5v1h-5ZM31,30h4v1h-4ZM32,31h3v1h-3ZM33,32h2v1h-2ZM34,33h1v1h-1ZM31,35h4v1h-4ZM27,36h1v1h-1ZM32,36h3v2h-3ZM26,37h2v1h-2ZM25,38h4v1h-4ZM33,38h2v2h-2ZM24,39h5v1h-5ZM24,40h6v2h-6ZM34,40h1v2h-1ZM24,42h7v1h-7ZM33,42h2v1h-2Z"/><path fill="rgba(255,255,255,255)" d="M25,26h1v1h-1ZM25,27h2v1h-2ZM25,28h3v1h-3ZM25,29h4v1h-4ZM25,30h5v1h-5ZM25,31h6v1h-6ZM25,32h7v1h-7ZM25,33h8v1h-8ZM25,34h5v1h-5ZM25,35h2v1h-2ZM28,35h2v1h-2ZM25,36h1v1h-1ZM29,36h2v2h-2ZM30,38h2v2h-2ZM31,40h2v2h-2Z"/></g></svg>