<svg version="1.1" xmlns="http://www.w3.org/2000/svg" xmlns:xlink="http://www.w3.org/1999/xlink" shape-rendering="crispEdges" width="16" height="16" viewBox="0 0 16 16"><g><path fill="rgba(0,0,0,0)" d="M0,0h16v1h-16ZM0,14h16v2h-16Z"/><path fill="rgba(255,255,255,0)" d="M0,1h3v1h-3ZM8,1h8v1h-8ZM0,2h2v1h-2ZM9,2h7v1h-7ZM0,3h1v3h-1ZM15,3h1v1h-1ZM0,9h1v2h-1ZM0,11h2v2h-2ZM0,13h3v1h-3Z"/><path fill="rgba(128,128,128,255)" d="M3,1h5v1h-5ZM2,2h1v1h-1ZM8,2h1v1h-1ZM1,3h1v3h-1ZM9,3h6v1h-6ZM14,4h1v4h-1ZM0,6h13v1h-13ZM0,7h1v2h-1ZM11,7h1v1h-1ZM13,8h2v1h-2ZM1,9h1v2h-1ZM12,9h1v1h-1ZM14,9h1v2h-1ZM2,11h1v1h-1ZM13,11h1v1h-1ZM2,12h12v1h-12Z"/><path fill="rgba(255,255,255,255)" d="M3,2h5v1h-5ZM2,3h1v3h-1ZM8,3h1v1h-1ZM9,4h5v1h-5ZM1,7h10v1h-10ZM1,8h1v1h-1ZM2,9h1v2h-1ZM3,11h1v1h-1Z"/><path fill="rgba(192,192,192,255)" d="M3,3h1v1h-1ZM5,3h1v1h-1ZM7,3h1v1h-1ZM4,4h1v1h-1ZM6,4h1v1h-1ZM8,4h1v1h-1ZM3,5h1v1h-1ZM5,5h1v1h-1ZM7,5h1v1h-1ZM9,5h1v1h-1ZM11,5h1v1h-1ZM13,5h1v1h-1ZM13,7h1v1h-1ZM2,8h1v1h-1ZM4,8h1v1h-1ZM6,8h1v1h-1ZM8,8h1v1h-1ZM10,8h1v1h-1ZM3,9h1v1h-1ZM5,9h1v1h-1ZM7,9h1v1h-1ZM9,9h1v1h-1ZM11,9h1v1h-1ZM4,10h1v1h-1ZM6,10h1v1h-1ZM8,10h1v1h-1ZM10,10h1v1h-1ZM12,10h1v1h-1ZM5,11h1v1h-1ZM7,11h1v1h-1ZM9,11h1v1h-1ZM11,11h1v1h-1Z"/><path fill="rgba(255,255,0,255)" d="M4,3h1v1h-1ZM6,3h1v1h-1ZM3,4h1v1h-1ZM5,4h1v1h-1ZM7,4h1v1h-1ZM4,5h1v1h-1ZM6,5h1v1h-1ZM8,5h1v1h-1ZM10,5h1v1h-1ZM12,5h1v1h-1ZM13,6h1v1h-1ZM3,8h1v1h-1ZM5,8h1v1h-1ZM7,8h1v1h-1ZM9,8h1v1h-1ZM11,8h1v1h-1ZM4,9h1v1h-1ZM6,9h1v1h-1ZM8,9h1v1h-1ZM10,9h1v1h-1ZM3,10h1v1h-1ZM5,10h1v1h-1ZM7,10h1v1h-1ZM9,10h1v1h-1ZM11,10h1v1h-1ZM4,11h1v1h-1ZM6,11h1v1h-1ZM8,11h1v1h-1ZM10,11h1v1h-1ZM12,11h1v1h-1Z"/><path fill="rgba(0,0,0,255)" d="M15,4h1v7h-1ZM12,7h1v2h-1ZM13,9h1v2h-1ZM14,11h2v2h-2ZM3,13h13v1h-13Z"/></g></svg>