<svg version="1.1" xmlns="http://www.w3.org/2000/svg" xmlns:xlink="http://www.w3.org/1999/xlink" shape-rendering="crispEdges" width="32" height="32" viewBox="0 0 32 32"><g><path fill="rgba(0,0,0,0)" d="M0,0h32v2h-32ZM0,29h32v3h-32Z"/><path fill="rgba(255,255,255,0)" d="M0,2h4v1h-4ZM13,2h19v1h-19ZM0,3h3v1h-3ZM14,3h18v1h-18ZM0,4h2v1h-2ZM15,4h17v1h-17ZM0,5h1v1h-1ZM16,5h16v1h-16ZM31,6h1v1h-1ZM0,28h1v1h-1ZM31,28h1v1h-1Z"/><path fill="rgba(128,128,128,255)" d="M4,2h9v1h-9ZM3,3h1v1h-1ZM13,3h1v1h-1ZM2,4h1v1h-1ZM14,4h1v1h-1ZM1,5h1v1h-1ZM15,5h1v1h-1ZM0,6h1v22h-1ZM16,6h14v1h-14Z"/><path fill="rgba(255,255,255,255)" d="M4,3h9v1h-9ZM3,4h1v1h-1ZM2,5h1v1h-1ZM1,7h29v1h-29ZM1,8h1v19h-1Z"/><path fill="rgba(255,255,0,255)" d="M4,4h1v1h-1ZM6,4h1v1h-1ZM8,4h1v1h-1ZM10,4h1v1h-1ZM12,4h1v1h-1ZM3,5h1v1h-1ZM5,5h1v1h-1ZM7,5h1v1h-1ZM9,5h1v1h-1ZM11,5h1v1h-1ZM13,5h1v1h-1ZM2,8h1v1h-1ZM4,8h1v1h-1ZM6,8h1v1h-1ZM8,8h1v1h-1ZM10,8h1v1h-1ZM12,8h1v1h-1ZM14,8h1v1h-1ZM16,8h1v1h-1ZM18,8h1v1h-1ZM20,8h1v1h-1ZM22,8h1v1h-1ZM24,8h1v1h-1ZM26,8h1v1h-1ZM28,8h1v1h-1ZM3,9h1v1h-1ZM5,9h1v1h-1ZM7,9h1v1h-1ZM9,9h1v1h-1ZM11,9h1v1h-1ZM13,9h1v1h-1ZM15,9h1v1h-1ZM17,9h1v1h-1ZM19,9h1v1h-1ZM21,9h1v1h-1ZM23,9h1v1h-1ZM25,9h1v1h-1ZM27,9h1v1h-1ZM29,9h1v1h-1ZM2,10h1v1h-1ZM4,10h1v1h-1ZM6,10h1v1h-1ZM8,10h1v1h-1ZM10,10h1v1h-1ZM12,10h1v1h-1ZM14,10h1v1h-1ZM16,10h1v1h-1ZM18,10h1v1h-1ZM20,10h1v1h-1ZM22,10h1v1h-1ZM24,10h1v1h-1ZM26,10h1v1h-1ZM28,10h1v1h-1ZM3,11h1v1h-1ZM5,11h1v1h-1ZM7,11h1v1h-1ZM9,11h1v1h-1ZM11,11h1v1h-1ZM13,11h1v1h-1ZM15,11h1v1h-1ZM17,11h1v1h-1ZM19,11h1v1h-1ZM21,11h1v1h-1ZM23,11h1v1h-1ZM25,11h1v1h-1ZM27,11h1v1h-1ZM29,11h1v1h-1ZM2,12h1v1h-1ZM4,12h1v1h-1ZM6,12h1v1h-1ZM8,12h1v1h-1ZM10,12h1v1h-1ZM12,12h1v1h-1ZM14,12h1v1h-1ZM16,12h1v1h-1ZM18,12h1v1h-1ZM20,12h1v1h-1ZM22,12h1v1h-1ZM24,12h1v1h-1ZM26,12h1v1h-1ZM28,12h1v1h-1ZM3,13h1v1h-1ZM5,13h1v1h-1ZM7,13h1v1h-1ZM9,13h1v1h-1ZM11,13h1v1h-1ZM13,13h1v1h-1ZM15,13h1v1h-1ZM17,13h1v1h-1ZM19,13h1v1h-1ZM21,13h1v1h-1ZM23,13h1v1h-1ZM25,13h1v1h-1ZM27,13h1v1h-1ZM29,13h1v1h-1ZM2,14h1v1h-1ZM4,14h1v1h-1ZM6,14h1v1h-1ZM8,14h1v1h-1ZM10,14h1v1h-1ZM12,14h1v1h-1ZM14,14h1v1h-1ZM16,14h1v1h-1ZM18,14h1v1h-1ZM20,14h1v1h-1ZM22,14h1v1h-1ZM24,14h1v1h-1ZM26,14h1v1h-1ZM28,14h1v1h-1ZM3,15h1v1h-1ZM5,15h1v1h-1ZM7,15h1v1h-1ZM9,15h1v1h-1ZM11,15h1v1h-1ZM13,15h1v1h-1ZM15,15h1v1h-1ZM17,15h1v1h-1ZM19,15h1v1h-1ZM21,15h1v1h-1ZM23,15h1v1h-1ZM25,15h1v1h-1ZM27,15h1v1h-1ZM29,15h1v1h-1ZM2,16h1v1h-1ZM4,16h1v1h-1ZM6,16h1v1h-1ZM8,16h1v1h-1ZM10,16h1v1h-1ZM12,16h1v1h-1ZM14,16h1v1h-1ZM16,16h1v1h-1ZM18,16h1v1h-1ZM20,16h1v1h-1ZM22,16h1v1h-1ZM24,16h1v1h-1ZM26,16h1v1h-1ZM28,16h1v1h-1ZM3,17h1v1h-1ZM5,17h1v1h-1ZM7,17h1v1h-1ZM9,17h1v1h-1ZM11,17h1v1h-1ZM13,17h1v1h-1ZM15,17h1v1h-1ZM17,17h1v1h-1ZM19,17h1v1h-1ZM21,17h1v1h-1ZM23,17h1v1h-1ZM25,17h1v1h-1ZM27,17h1v1h-1ZM29,17h1v1h-1ZM2,18h1v1h-1ZM4,18h1v1h-1ZM6,18h1v1h-1ZM8,18h1v1h-1ZM10,18h1v1h-1ZM12,18h1v1h-1ZM14,18h1v1h-1ZM16,18h1v1h-1ZM18,18h1v1h-1ZM20,18h1v1h-1ZM22,18h1v1h-1ZM24,18h1v1h-1ZM26,18h1v1h-1ZM28,18h1v1h-1ZM3,19h1v1h-1ZM5,19h1v1h-1ZM7,19h1v1h-1ZM9,19h1v1h-1ZM11,19h1v1h-1ZM13,19h1v1h-1ZM15,19h1v1h-1ZM17,19h1v1h-1ZM19,19h1v1h-1ZM21,19h1v1h-1ZM23,19h1v1h-1ZM25,19h1v1h-1ZM27,19h1v1h-1ZM29,19h1v1h-1ZM2,20h1v1h-1ZM4,20h1v1h-1ZM6,20h1v1h-1ZM8,20h1v1h-1ZM10,20h1v1h-1ZM12,20h1v1h-1ZM14,20h1v1h-1ZM16,20h1v1h-1ZM18,20h1v1h-1ZM20,20h1v1h-1ZM22,20h1v1h-1ZM24,20h1v1h-1ZM26,20h1v1h-1ZM28,20h1v1h-1ZM3,21h1v1h-1ZM5,21h1v1h-1ZM7,21h1v1h-1ZM9,21h1v1h-1ZM11,21h1v1h-1ZM13,21h1v1h-1ZM15,21h1v1h-1ZM17,21h1v1h-1ZM19,21h1v1h-1ZM21,21h1v1h-1ZM23,21h1v1h-1ZM25,21h1v1h-1ZM27,21h1v1h-1ZM29,21h1v1h-1ZM2,22h1v1h-1ZM4,22h1v1h-1ZM6,22h1v1h-1ZM8,22h1v1h-1ZM10,22h1v1h-1ZM12,22h1v1h-1ZM14,22h1v1h-1ZM16,22h1v1h-1ZM18,22h1v1h-1ZM20,22h1v1h-1ZM22,22h1v1h-1ZM24,22h1v1h-1ZM26,22h1v1h-1ZM28,22h1v1h-1ZM3,23h1v1h-1ZM5,23h1v1h-1ZM7,23h1v1h-1ZM9,23h1v1h-1ZM11,23h1v1h-1ZM13,23h1v1h-1ZM15,23h1v1h-1ZM17,23h1v1h-1ZM19,23h1v1h-1ZM21,23h1v1h-1ZM23,23h1v1h-1ZM25,23h1v1h-1ZM27,23h1v1h-1ZM29,23h1v1h-1ZM2,24h1v1h-1ZM4,24h1v1h-1ZM6,24h1v1h-1ZM8,24h1v1h-1ZM10,24h1v1h-1ZM12,24h1v1h-1ZM14,24h1v1h-1ZM16,24h1v1h-1ZM18,24h1v1h-1ZM20,24h1v1h-1ZM22,24h1v1h-1ZM24,24h1v1h-1ZM26,24h1v1h-1ZM28,24h1v1h-1ZM3,25h1v1h-1ZM5,25h1v1h-1ZM7,25h1v1h-1ZM9,25h1v1h-1ZM11,25h1v1h-1ZM13,25h1v1h-1ZM15,25h1v1h-1ZM17,25h1v1h-1ZM19,25h1v1h-1ZM21,25h1v1h-1ZM23,25h1v1h-1ZM25,25h1v1h-1ZM27,25h1v1h-1ZM29,25h1v1h-1ZM2,26h1v1h-1ZM4,26h1v1h-1ZM6,26h1v1h-1ZM8,26h1v1h-1ZM10,26h1v1h-1ZM12,26h1v1h-1ZM14,26h1v1h-1ZM16,26h1v1h-1ZM18,26h1v1h-1ZM20,26h1v1h-1ZM22,26h1v1h-1ZM24,26h1v1h-1ZM26,26h1v1h-1ZM28,26h1v1h-1Z"/><path fill="rgba(192,192,192,255)" d="M5,4h1v1h-1ZM7,4h1v1h-1ZM9,4h1v1h-1ZM11,4h1v1h-1ZM13,4h1v1h-1ZM4,5h1v1h-1ZM6,5h1v1h-1ZM8,5h1v1h-1ZM10,5h1v1h-1ZM12,5h1v1h-1ZM14,5h1v1h-1ZM1,6h15v1h-15ZM3,8h1v1h-1ZM5,8h1v1h-1ZM7,8h1v1h-1ZM9,8h1v1h-1ZM11,8h1v1h-1ZM13,8h1v1h-1ZM15,8h1v1h-1ZM17,8h1v1h-1ZM19,8h1v1h-1ZM21,8h1v1h-1ZM23,8h1v1h-1ZM25,8h1v1h-1ZM27,8h1v1h-1ZM29,8h1v1h-1ZM2,9h1v1h-1ZM4,9h1v1h-1ZM6,9h1v1h-1ZM8,9h1v1h-1ZM10,9h1v1h-1ZM12,9h1v1h-1ZM14,9h1v1h-1ZM16,9h1v1h-1ZM18,9h1v1h-1ZM20,9h1v1h-1ZM22,9h1v1h-1ZM24,9h1v1h-1ZM26,9h1v1h-1ZM28,9h1v1h-1ZM3,10h1v1h-1ZM5,10h1v1h-1ZM7,10h1v1h-1ZM9,10h1v1h-1ZM11,10h1v1h-1ZM13,10h1v1h-1ZM15,10h1v1h-1ZM17,10h1v1h-1ZM19,10h1v1h-1ZM21,10h1v1h-1ZM23,10h1v1h-1ZM25,10h1v1h-1ZM27,10h1v1h-1ZM29,10h1v1h-1ZM2,11h1v1h-1ZM4,11h1v1h-1ZM6,11h1v1h-1ZM8,11h1v1h-1ZM10,11h1v1h-1ZM12,11h1v1h-1ZM14,11h1v1h-1ZM16,11h1v1h-1ZM18,11h1v1h-1ZM20,11h1v1h-1ZM22,11h1v1h-1ZM24,11h1v1h-1ZM26,11h1v1h-1ZM28,11h1v1h-1ZM3,12h1v1h-1ZM5,12h1v1h-1ZM7,12h1v1h-1ZM9,12h1v1h-1ZM11,12h1v1h-1ZM13,12h1v1h-1ZM15,12h1v1h-1ZM17,12h1v1h-1ZM19,12h1v1h-1ZM21,12h1v1h-1ZM23,12h1v1h-1ZM25,12h1v1h-1ZM27,12h1v1h-1ZM29,12h1v1h-1ZM2,13h1v1h-1ZM4,13h1v1h-1ZM6,13h1v1h-1ZM8,13h1v1h-1ZM10,13h1v1h-1ZM12,13h1v1h-1ZM14,13h1v1h-1ZM16,13h1v1h-1ZM18,13h1v1h-1ZM20,13h1v1h-1ZM22,13h1v1h-1ZM24,13h1v1h-1ZM26,13h1v1h-1ZM28,13h1v1h-1ZM3,14h1v1h-1ZM5,14h1v1h-1ZM7,14h1v1h-1ZM9,14h1v1h-1ZM11,14h1v1h-1ZM13,14h1v1h-1ZM15,14h1v1h-1ZM17,14h1v1h-1ZM19,14h1v1h-1ZM21,14h1v1h-1ZM23,14h1v1h-1ZM25,14h1v1h-1ZM27,14h1v1h-1ZM29,14h1v1h-1ZM2,15h1v1h-1ZM4,15h1v1h-1ZM6,15h1v1h-1ZM8,15h1v1h-1ZM10,15h1v1h-1ZM12,15h1v1h-1ZM14,15h1v1h-1ZM16,15h1v1h-1ZM18,15h1v1h-1ZM20,15h1v1h-1ZM22,15h1v1h-1ZM24,15h1v1h-1ZM26,15h1v1h-1ZM28,15h1v1h-1ZM3,16h1v1h-1ZM5,16h1v1h-1ZM7,16h1v1h-1ZM9,16h1v1h-1ZM11,16h1v1h-1ZM13,16h1v1h-1ZM15,16h1v1h-1ZM17,16h1v1h-1ZM19,16h1v1h-1ZM21,16h1v1h-1ZM23,16h1v1h-1ZM25,16h1v1h-1ZM27,16h1v1h-1ZM29,16h1v1h-1ZM2,17h1v1h-1ZM4,17h1v1h-1ZM6,17h1v1h-1ZM8,17h1v1h-1ZM10,17h1v1h-1ZM12,17h1v1h-1ZM14,17h1v1h-1ZM16,17h1v1h-1ZM18,17h1v1h-1ZM20,17h1v1h-1ZM22,17h1v1h-1ZM24,17h1v1h-1ZM26,17h1v1h-1ZM28,17h1v1h-1ZM3,18h1v1h-1ZM5,18h1v1h-1ZM7,18h1v1h-1ZM9,18h1v1h-1ZM11,18h1v1h-1ZM13,18h1v1h-1ZM15,18h1v1h-1ZM17,18h1v1h-1ZM19,18h1v1h-1ZM21,18h1v1h-1ZM23,18h1v1h-1ZM25,18h1v1h-1ZM27,18h1v1h-1ZM29,18h1v1h-1ZM2,19h1v1h-1ZM4,19h1v1h-1ZM6,19h1v1h-1ZM8,19h1v1h-1ZM10,19h1v1h-1ZM12,19h1v1h-1ZM14,19h1v1h-1ZM16,19h1v1h-1ZM18,19h1v1h-1ZM20,19h1v1h-1ZM22,19h1v1h-1ZM24,19h1v1h-1ZM26,19h1v1h-1ZM28,19h1v1h-1ZM3,20h1v1h-1ZM5,20h1v1h-1ZM7,20h1v1h-1ZM9,20h1v1h-1ZM11,20h1v1h-1ZM13,20h1v1h-1ZM15,20h1v1h-1ZM17,20h1v1h-1ZM19,20h1v1h-1ZM21,20h1v1h-1ZM23,20h1v1h-1ZM25,20h1v1h-1ZM27,20h1v1h-1ZM29,20h1v1h-1ZM2,21h1v1h-1ZM4,21h1v1h-1ZM6,21h1v1h-1ZM8,21h1v1h-1ZM10,21h1v1h-1ZM12,21h1v1h-1ZM14,21h1v1h-1ZM16,21h1v1h-1ZM18,21h1v1h-1ZM20,21h1v1h-1ZM22,21h1v1h-1ZM24,21h1v1h-1ZM26,21h1v1h-1ZM28,21h1v1h-1ZM3,22h1v1h-1ZM5,22h1v1h-1ZM7,22h1v1h-1ZM9,22h1v1h-1ZM11,22h1v1h-1ZM13,22h1v1h-1ZM15,22h1v1h-1ZM17,22h1v1h-1ZM19,22h1v1h-1ZM21,22h1v1h-1ZM23,22h1v1h-1ZM25,22h1v1h-1ZM27,22h1v1h-1ZM29,22h1v1h-1ZM2,23h1v1h-1ZM4,23h1v1h-1ZM6,23h1v1h-1ZM8,23h1v1h-1ZM10,23h1v1h-1ZM12,23h1v1h-1ZM14,23h1v1h-1ZM16,23h1v1h-1ZM18,23h1v1h-1ZM20,23h1v1h-1ZM22,23h1v1h-1ZM24,23h1v1h-1ZM26,23h1v1h-1ZM28,23h1v1h-1ZM3,24h1v1h-1ZM5,24h1v1h-1ZM7,24h1v1h-1ZM9,24h1v1h-1ZM11,24h1v1h-1ZM13,24h1v1h-1ZM15,24h1v1h-1ZM17,24h1v1h-1ZM19,24h1v1h-1ZM21,24h1v1h-1ZM23,24h1v1h-1ZM25,24h1v1h-1ZM27,24h1v1h-1ZM29,24h1v1h-1ZM2,25h1v1h-1ZM4,25h1v1h-1ZM6,25h1v1h-1ZM8,25h1v1h-1ZM10,25h1v1h-1ZM12,25h1v1h-1ZM14,25h1v1h-1ZM16,25h1v1h-1ZM18,25h1v1h-1ZM20,25h1v1h-1ZM22,25h1v1h-1ZM24,25h1v1h-1ZM26,25h1v1h-1ZM28,25h1v1h-1ZM3,26h1v1h-1ZM5,26h1v1h-1ZM7,26h1v1h-1ZM9,26h1v1h-1ZM11,26h1v1h-1ZM13,26h1v1h-1ZM15,26h1v1h-1ZM17,26h1v1h-1ZM19,26h1v1h-1ZM21,26h1v1h-1ZM23,26h1v1h-1ZM25,26h1v1h-1ZM27,26h1v1h-1ZM29,26h1v1h-1Z"/><path fill="rgba(0,0,0,255)" d="M30,6h1v1h-1ZM30,7h2v1h-2ZM31,8h1v20h-1ZM1,28h30v1h-30Z"/><path fill="rgba(128,128,0,255)" d="M30,8h1v19h-1ZM1,27h30v1h-30Z"/></g></svg>