<svg version="1.1" xmlns="http://www.w3.org/2000/svg" xmlns:xlink="http://www.w3.org/1999/xlink" shape-rendering="crispEdges" width="24" height="24" viewBox="0 0 24 24"><g><path fill="rgba(0,0,0,0)" d="M0,0h24v1h-24ZM0,23h24v1h-24Z"/><path fill="rgba(255,255,255,0)" d="M0,1h12v1h-12ZM13,1h11v1h-11ZM0,2h11v1h-11ZM14,2h10v1h-10ZM0,3h10v1h-10ZM15,3h9v1h-9ZM0,4h5v1h-5ZM16,4h8v1h-8ZM0,5h4v1h-4ZM17,5h7v1h-7ZM0,6h3v3h-3ZM21,6h3v1h-3ZM22,7h2v1h-2ZM23,8h1v4h-1ZM0,9h1v1h-1ZM0,13h1v3h-1ZM23,13h1v9h-1ZM0,16h2v3h-2ZM0,19h3v3h-3ZM0,22h4v1h-4ZM22,22h2v1h-2Z"/><path fill="rgba(128,128,128,255)" d="M12,1h1v1h-1ZM11,2h1v1h-1ZM10,3h1v1h-1ZM5,4h5v1h-5ZM4,5h1v1h-1ZM8,5h1v1h-1ZM3,6h1v3h-1ZM7,6h1v1h-1ZM18,6h3v1h-3ZM6,7h1v1h-1ZM5,8h1v1h-1ZM1,9h2v1h-2ZM0,10h1v3h-1ZM18,12h1v1h-1ZM1,13h1v3h-1ZM19,14h2v1h-2ZM2,16h1v3h-1ZM20,17h1v1h-1ZM3,19h1v3h-1ZM21,20h1v1h-1Z"/><path fill="rgba(192,192,192,255)" d="M12,2h1v1h-1ZM13,3h1v1h-1ZM14,4h1v1h-1ZM15,5h1v1h-1ZM5,6h1v1h-1ZM16,6h1v1h-1ZM17,7h1v1h-1ZM18,8h1v1h-1ZM3,9h15v1h-15ZM19,9h1v1h-1ZM20,10h1v1h-1ZM1,11h1v1h-1ZM3,11h1v1h-1ZM5,11h1v1h-1ZM7,11h1v1h-1ZM9,11h1v1h-1ZM11,11h1v1h-1ZM13,11h1v1h-1ZM15,11h1v1h-1ZM17,11h1v1h-1ZM21,11h1v1h-1ZM2,12h1v1h-1ZM4,12h1v1h-1ZM6,12h1v1h-1ZM8,12h1v1h-1ZM10,12h1v1h-1ZM12,12h1v1h-1ZM14,12h1v1h-1ZM16,12h1v1h-1ZM22,12h1v1h-1ZM3,13h1v1h-1ZM5,13h1v1h-1ZM7,13h1v1h-1ZM9,13h1v1h-1ZM11,13h1v1h-1ZM13,13h1v1h-1ZM15,13h1v1h-1ZM17,13h1v1h-1ZM21,13h1v1h-1ZM2,14h1v1h-1ZM4,14h1v1h-1ZM6,14h1v1h-1ZM8,14h1v1h-1ZM10,14h1v1h-1ZM12,14h1v1h-1ZM14,14h1v1h-1ZM16,14h1v1h-1ZM18,14h1v1h-1ZM3,15h1v1h-1ZM5,15h1v1h-1ZM7,15h1v1h-1ZM9,15h1v1h-1ZM11,15h1v1h-1ZM13,15h1v1h-1ZM15,15h1v1h-1ZM17,15h1v1h-1ZM19,15h1v1h-1ZM4,16h1v1h-1ZM6,16h1v1h-1ZM8,16h1v1h-1ZM10,16h1v1h-1ZM12,16h1v1h-1ZM14,16h1v1h-1ZM16,16h1v1h-1ZM18,16h1v1h-1ZM3,17h1v1h-1ZM5,17h1v1h-1ZM7,17h1v1h-1ZM9,17h1v1h-1ZM11,17h1v1h-1ZM13,17h1v1h-1ZM15,17h1v1h-1ZM17,17h1v1h-1ZM19,17h1v1h-1ZM4,18h1v1h-1ZM6,18h1v1h-1ZM8,18h1v1h-1ZM10,18h1v1h-1ZM12,18h1v1h-1ZM14,18h1v1h-1ZM16,18h1v1h-1ZM18,18h1v1h-1ZM20,18h1v1h-1ZM5,19h1v1h-1ZM7,19h1v1h-1ZM9,19h1v1h-1ZM11,19h1v1h-1ZM13,19h1v1h-1ZM15,19h1v1h-1ZM17,19h1v1h-1ZM19,19h1v1h-1ZM4,20h1v1h-1ZM6,20h1v1h-1ZM8,20h1v1h-1ZM10,20h1v1h-1ZM12,20h1v1h-1ZM14,20h1v1h-1ZM16,20h1v1h-1ZM18,20h1v1h-1ZM20,20h1v1h-1Z"/><path fill="rgba(0,0,0,255)" d="M13,2h1v1h-1ZM14,3h1v1h-1ZM15,4h1v1h-1ZM16,5h1v1h-1ZM17,6h1v1h-1ZM18,7h1v1h-1ZM19,8h1v1h-1ZM22,8h1v2h-1ZM20,9h1v1h-1ZM18,10h1v2h-1ZM21,10h2v1h-2ZM22,11h1v1h-1ZM19,12h1v2h-1ZM23,12h1v1h-1ZM22,13h1v1h-1ZM21,14h2v1h-2ZM20,15h1v2h-1ZM22,15h1v2h-1ZM21,17h2v3h-2ZM22,20h1v2h-1ZM4,22h18v1h-18Z"/><path fill="rgba(255,255,255,255)" d="M11,3h2v1h-2ZM10,4h4v1h-4ZM5,5h3v1h-3ZM9,5h3v1h-3ZM13,5h2v1h-2ZM4,6h1v3h-1ZM8,6h3v1h-3ZM12,6h1v1h-1ZM14,6h2v1h-2ZM7,7h3v1h-3ZM11,7h1v1h-1ZM13,7h1v1h-1ZM15,7h2v1h-2ZM6,8h3v1h-3ZM10,8h1v1h-1ZM12,8h1v1h-1ZM14,8h1v1h-1ZM16,8h2v1h-2ZM18,9h1v1h-1ZM1,10h17v1h-17ZM19,10h1v1h-1ZM19,11h2v1h-2ZM20,12h2v1h-2ZM20,13h1v1h-1Z"/><path fill="rgba(0,0,255,255)" d="M12,5h1v1h-1ZM11,6h1v1h-1ZM13,6h1v1h-1ZM10,7h1v1h-1ZM12,7h1v1h-1ZM14,7h1v1h-1ZM9,8h1v1h-1ZM11,8h1v1h-1ZM13,8h1v1h-1ZM15,8h1v1h-1Z"/><path fill="rgba(255,255,0,255)" d="M6,6h1v1h-1ZM5,7h1v1h-1ZM19,7h2v1h-2ZM20,8h1v1h-1ZM2,11h1v1h-1ZM4,11h1v1h-1ZM6,11h1v1h-1ZM8,11h1v1h-1ZM10,11h1v1h-1ZM12,11h1v1h-1ZM14,11h1v1h-1ZM16,11h1v1h-1ZM1,12h1v1h-1ZM3,12h1v1h-1ZM5,12h1v1h-1ZM7,12h1v1h-1ZM9,12h1v1h-1ZM11,12h1v1h-1ZM13,12h1v1h-1ZM15,12h1v1h-1ZM17,12h1v1h-1ZM2,13h1v1h-1ZM4,13h1v1h-1ZM6,13h1v1h-1ZM8,13h1v1h-1ZM10,13h1v1h-1ZM12,13h1v1h-1ZM14,13h1v1h-1ZM16,13h1v1h-1ZM18,13h1v1h-1ZM3,14h1v1h-1ZM5,14h1v1h-1ZM7,14h1v1h-1ZM9,14h1v1h-1ZM11,14h1v1h-1ZM13,14h1v1h-1ZM15,14h1v1h-1ZM17,14h1v1h-1ZM2,15h1v1h-1ZM4,15h1v1h-1ZM6,15h1v1h-1ZM8,15h1v1h-1ZM10,15h1v1h-1ZM12,15h1v1h-1ZM14,15h1v1h-1ZM16,15h1v1h-1ZM18,15h1v1h-1ZM3,16h1v1h-1ZM5,16h1v1h-1ZM7,16h1v1h-1ZM9,16h1v1h-1ZM11,16h1v1h-1ZM13,16h1v1h-1ZM15,16h1v1h-1ZM17,16h1v1h-1ZM19,16h1v1h-1ZM4,17h1v1h-1ZM6,17h1v1h-1ZM8,17h1v1h-1ZM10,17h1v1h-1ZM12,17h1v1h-1ZM14,17h1v1h-1ZM16,17h1v1h-1ZM18,17h1v1h-1ZM3,18h1v1h-1ZM5,18h1v1h-1ZM7,18h1v1h-1ZM9,18h1v1h-1ZM11,18h1v1h-1ZM13,18h1v1h-1ZM15,18h1v1h-1ZM17,18h1v1h-1ZM19,18h1v1h-1ZM4,19h1v1h-1ZM6,19h1v1h-1ZM8,19h1v1h-1ZM10,19h1v1h-1ZM12,19h1v1h-1ZM14,19h1v1h-1ZM16,19h1v1h-1ZM18,19h1v1h-1ZM20,19h1v1h-1ZM5,20h1v1h-1ZM7,20h1v1h-1ZM9,20h1v1h-1ZM11,20h1v1h-1ZM13,20h1v1h-1ZM15,20h1v1h-1ZM17,20h1v1h-1ZM19,20h1v1h-1Z"/><path fill="rgba(128,128,0,255)" d="M21,7h1v3h-1ZM21,15h1v2h-1ZM4,21h18v1h-18Z"/></g></svg>