<svg version="1.1" xmlns="http://www.w3.org/2000/svg" xmlns:xlink="http://www.w3.org/1999/xlink" shape-rendering="crispEdges" width="135" height="84" viewBox="0 0 135 84"><g><path fill="rgba(111,193,85,0)" d="M0,0h56v1h-56ZM74,0h54v1h-54ZM0,1h50v1h-50ZM80,1h48v1h-48ZM0,2h46v1h-46ZM56,2h18v1h-18ZM84,2h44v1h-44ZM0,3h43v1h-43ZM50,3h30v1h-30ZM87,3h41v1h-41ZM0,4h40v1h-40ZM46,4h38v1h-38ZM90,4h38v1h-38ZM0,5h38v1h-38ZM43,5h44v1h-44ZM92,5h36v1h-36ZM0,6h35v1h-35ZM40,6h50v1h-50ZM95,6h33v1h-33ZM0,7h33v1h-33ZM38,7h54v1h-54ZM97,7h31v1h-31ZM0,8h31v1h-31ZM36,8h58v1h-58ZM99,8h29v1h-29ZM0,9h30v1h-30ZM34,9h62v1h-62ZM100,9h28v1h-28ZM0,10h28v1h-28ZM32,10h66v1h-66ZM102,10h26v1h-26ZM0,11h27v1h-27ZM30,11h70v1h-70ZM103,11h25v1h-25ZM0,12h25v1h-25ZM29,12h72v1h-72ZM105,12h23v1h-23ZM0,13h24v1h-24ZM27,13h76v1h-76ZM106,13h22v1h-22ZM0,14h22v1h-22ZM26,14h78v1h-78ZM108,14h20v1h-20ZM0,15h21v1h-21ZM24,15h82v1h-82ZM109,15h19v1h-19ZM0,16h20v1h-20ZM23,16h84v1h-84ZM110,16h18v1h-18ZM0,17h19v1h-19ZM22,17h86v1h-86ZM111,17h17v1h-17ZM0,18h18v1h-18ZM21,18h88v1h-88ZM112,18h16v1h-16ZM0,19h17v1h-17ZM20,19h90v1h-90ZM113,19h15v1h-15ZM0,20h16v1h-16ZM19,20h92v1h-92ZM114,20h14v1h-14ZM0,21h15v1h-15ZM18,21h94v1h-94ZM115,21h13v1h-13ZM0,22h14v1h-14ZM17,22h88v1h-88ZM108,22h5v1h-5ZM116,22h12v1h-12ZM0,23h13v1h-13ZM16,23h88v1h-88ZM109,23h5v1h-5ZM117,23h11v1h-11ZM0,24h12v2h-12ZM15,24h89v1h-89ZM109,24h6v1h-6ZM118,24h10v2h-10ZM14,25h90v1h-90ZM106,25h1v2h-1ZM109,25h7v1h-7ZM0,26h11v1h-11ZM13,26h91v1h-91ZM110,26h7v2h-7ZM119,26h9v1h-9ZM0,27h10v2h-10ZM13,27h90v1h-90ZM105,27h3v2h-3ZM120,27h8v2h-8ZM12,28h90v1h-90ZM111,28h7v1h-7ZM0,29h9v1h-9ZM11,29h91v2h-91ZM104,29h4v1h-4ZM111,29h8v2h-8ZM121,29h7v2h-7ZM0,30h8v2h-8ZM104,30h5v2h-5ZM10,31h91v1h-91ZM112,31h8v1h-8ZM122,31h6v1h-6ZM0,32h7v2h-7ZM9,32h92v2h-92ZM103,32h6v1h-6ZM112,32h9v2h-9ZM123,32h5v2h-5ZM103,33h7v2h-7ZM0,34h6v2h-6ZM8,34h92v2h-92ZM113,34h15v2h-15ZM102,35h9v3h-9ZM0,36h5v2h-5ZM7,36h92v1h-92ZM114,36h14v1h-14ZM7,37h74v1h-74ZM0,38h4v2h-4ZM6,38h74v1h-74ZM101,38h11v2h-11ZM6,39h75v1h-75ZM0,40h3v3h-3ZM6,40h121v1h-121ZM5,41h102v1h-102ZM110,41h16v1h-16ZM5,42h100v1h-100ZM109,42h16v1h-16ZM0,43h2v4h-2ZM4,43h68v1h-68ZM73,43h16v1h-16ZM91,43h12v1h-12ZM107,43h17v1h-17ZM4,44h22v1h-22ZM30,44h40v1h-40ZM75,44h14v1h-14ZM91,44h9v1h-9ZM104,44h19v1h-19ZM127,44h1v1h-1ZM4,45h20v1h-20ZM27,45h2v1h-2ZM31,45h38v1h-38ZM71,45h2v1h-2ZM76,45h6v1h-6ZM83,45h5v1h-5ZM91,45h7v1h-7ZM101,45h21v1h-21ZM126,45h2v1h-2ZM4,46h19v1h-19ZM25,46h4v1h-4ZM31,46h26v1h-26ZM59,46h2v1h-2ZM63,46h5v1h-5ZM70,46h3v1h-3ZM75,46h5v1h-5ZM83,46h4v1h-4ZM90,46h6v1h-6ZM99,46h22v1h-22ZM125,46h3v1h-3ZM0,47h1v5h-1ZM3,47h19v1h-19ZM24,47h5v1h-5ZM30,47h27v1h-27ZM58,47h2v1h-2ZM63,47h4v1h-4ZM69,47h3v1h-3ZM74,47h4v1h-4ZM82,47h5v1h-5ZM90,47h4v1h-4ZM97,47h23v1h-23ZM124,47h4v1h-4ZM3,48h18v1h-18ZM23,48h5v1h-5ZM30,48h19v1h-19ZM51,48h5v1h-5ZM58,48h1v1h-1ZM63,48h3v1h-3ZM68,48h3v1h-3ZM73,48h3v1h-3ZM82,48h4v1h-4ZM89,48h3v1h-3ZM95,48h24v1h-24ZM123,48h5v1h-5ZM3,49h17v1h-17ZM22,49h6v1h-6ZM29,49h18v1h-18ZM52,49h4v1h-4ZM60,49h2v1h-2ZM64,49h2v1h-2ZM67,49h3v1h-3ZM72,49h3v1h-3ZM78,49h1v1h-1ZM81,49h4v1h-4ZM89,49h1v1h-1ZM93,49h25v1h-25ZM122,49h6v1h-6ZM3,50h16v1h-16ZM21,50h6v1h-6ZM29,50h4v1h-4ZM35,50h11v1h-11ZM48,50h2v1h-2ZM51,50h4v1h-4ZM59,50h4v1h-4ZM67,50h2v1h-2ZM71,50h1v1h-1ZM76,50h3v1h-3ZM81,50h3v1h-3ZM86,50h1v1h-1ZM92,50h2v1h-2ZM97,50h20v2h-20ZM121,50h7v1h-7ZM3,51h15v1h-15ZM20,51h6v1h-6ZM28,51h5v1h-5ZM35,51h2v1h-2ZM39,51h6v2h-6ZM47,51h2v1h-2ZM51,51h3v1h-3ZM58,51h6v2h-6ZM70,51h1v1h-1ZM74,51h5v1h-5ZM80,51h3v1h-3ZM85,51h2v1h-2ZM90,51h4v1h-4ZM120,51h8v2h-8ZM2,52h15v2h-15ZM19,52h6v1h-6ZM27,52h5v1h-5ZM34,52h2v1h-2ZM46,52h2v1h-2ZM50,52h3v1h-3ZM55,52h1v1h-1ZM65,52h5v1h-5ZM73,52h6v2h-6ZM80,52h2v1h-2ZM84,52h2v1h-2ZM89,52h5v1h-5ZM96,52h22v4h-22ZM18,53h6v1h-6ZM26,53h5v1h-5ZM34,53h1v1h-1ZM39,53h5v3h-5ZM46,53h1v1h-1ZM49,53h3v1h-3ZM54,53h1v1h-1ZM57,53h7v1h-7ZM66,53h3v1h-3ZM83,53h2v1h-2ZM88,53h5v1h-5ZM121,53h7v4h-7ZM2,54h14v2h-14ZM18,54h5v1h-5ZM25,54h5v1h-5ZM33,54h2v1h-2ZM36,54h1v1h-1ZM48,54h3v1h-3ZM53,54h2v1h-2ZM57,54h8v1h-8ZM72,54h8v1h-8ZM81,54h2v1h-2ZM87,54h6v3h-6ZM17,55h4v1h-4ZM24,55h5v1h-5ZM35,55h2v1h-2ZM47,55h3v1h-3ZM52,55h3v1h-3ZM56,55h12v1h-12ZM70,55h1v1h-1ZM72,55h10v1h-10ZM84,55h2v1h-2ZM2,56h13v2h-13ZM17,56h3v1h-3ZM22,56h6v1h-6ZM34,56h3v1h-3ZM39,56h3v1h-3ZM46,56h2v1h-2ZM51,56h3v1h-3ZM56,56h11v1h-11ZM69,56h1v1h-1ZM72,56h9v1h-9ZM83,56h2v1h-2ZM95,56h24v1h-24ZM16,57h2v1h-2ZM21,57h6v1h-6ZM29,57h2v1h-2ZM33,57h4v1h-4ZM49,57h17v1h-17ZM67,57h3v1h-3ZM71,57h9v1h-9ZM82,57h3v1h-3ZM86,57h6v3h-6ZM95,57h10v1h-10ZM109,57h10v1h-10ZM122,57h6v3h-6ZM0,58h14v1h-14ZM19,58h7v1h-7ZM28,58h2v1h-2ZM33,58h5v1h-5ZM42,58h4v1h-4ZM47,58h18v1h-18ZM67,58h2v1h-2ZM71,58h8v1h-8ZM81,58h3v1h-3ZM95,58h8v1h-8ZM111,58h8v1h-8ZM0,59h3v2h-3ZM4,59h7v1h-7ZM17,59h8v1h-8ZM27,59h3v1h-3ZM32,59h33v1h-33ZM66,59h3v1h-3ZM70,59h9v1h-9ZM80,59h4v2h-4ZM95,59h7v1h-7ZM112,59h7v1h-7ZM15,60h8v1h-8ZM26,60h4v1h-4ZM32,60h32v1h-32ZM66,60h2v1h-2ZM70,60h8v1h-8ZM85,60h6v2h-6ZM94,60h6v1h-6ZM105,60h4v1h-4ZM114,60h6v1h-6ZM123,60h5v4h-5ZM0,61h4v1h-4ZM11,61h3v1h-3ZM15,61h7v1h-7ZM24,61h6v1h-6ZM31,61h32v1h-32ZM65,61h3v1h-3ZM69,61h8v2h-8ZM79,61h4v1h-4ZM94,61h5v1h-5ZM103,61h8v1h-8ZM115,61h5v1h-5ZM0,62h14v1h-14ZM16,62h4v1h-4ZM23,62h40v1h-40ZM65,62h2v1h-2ZM78,62h5v1h-5ZM84,62h7v2h-7ZM94,62h3v1h-3ZM102,62h10v1h-10ZM117,62h3v1h-3ZM0,63h15v1h-15ZM21,63h42v1h-42ZM64,63h3v1h-3ZM68,63h8v2h-8ZM78,63h4v1h-4ZM93,63h3v1h-3ZM100,63h14v1h-14ZM118,63h3v1h-3ZM0,64h17v1h-17ZM19,64h43v1h-43ZM64,64h2v1h-2ZM77,64h5v1h-5ZM83,64h8v1h-8ZM94,64h1v1h-1ZM100,64h15v1h-15ZM120,64h1v1h-1ZM124,64h4v3h-4ZM0,65h62v3h-62ZM64,65h1v1h-1ZM67,65h8v1h-8ZM77,65h4v1h-4ZM83,65h7v1h-7ZM97,65h20v1h-20ZM66,66h9v1h-9ZM76,66h5v1h-5ZM82,66h8v1h-8ZM96,66h22v1h-22ZM65,67h10v1h-10ZM76,67h4v1h-4ZM82,67h7v1h-7ZM94,67h26v1h-26ZM125,67h3v2h-3ZM0,68h75v1h-75ZM77,68h2v1h-2ZM81,68h8v1h-8ZM92,68h30v1h-30ZM0,69h76v1h-76ZM80,69h48v1h-48ZM0,70h128v3h-128ZM0,73h2v1h-2ZM0,74h128v3h-128ZM0,77h3v7h-3ZM8,77h1v1h-1ZM13,77h4v1h-4ZM18,77h7v2h-7ZM29,77h3v1h-3ZM35,77h2v1h-2ZM38,77h5v6h-5ZM44,77h5v6h-5ZM50,77h3v6h-3ZM54,77h1v1h-1ZM60,77h1v1h-1ZM64,77h2v1h-2ZM69,77h2v1h-2ZM72,77h3v1h-3ZM76,77h5v7h-5ZM85,77h2v1h-2ZM91,77h2v1h-2ZM98,77h1v1h-1ZM100,77h3v3h-3ZM104,77h1v3h-1ZM110,77h1v1h-1ZM112,77h3v1h-3ZM116,77h1v1h-1ZM122,77h1v1h-1ZM4,78h5v2h-5ZM10,78h3v2h-3ZM14,78h3v1h-3ZM26,78h3v2h-3ZM30,78h1v2h-1ZM32,78h3v5h-3ZM36,78h1v5h-1ZM54,78h3v5h-3ZM58,78h4v5h-4ZM63,78h2v5h-2ZM66,78h3v5h-3ZM70,78h1v5h-1ZM73,78h2v2h-2ZM82,78h3v2h-3ZM86,78h1v2h-1ZM88,78h3v2h-3ZM92,78h1v2h-1ZM94,78h5v2h-5ZM106,78h5v2h-5ZM113,78h2v2h-2ZM116,78h3v6h-3ZM120,78h3v6h-3ZM124,78h4v2h-4ZM14,79h2v1h-2ZM19,79h6v2h-6ZM7,80h2v1h-2ZM13,80h3v1h-3ZM17,80h1v1h-1ZM29,80h2v1h-2ZM72,80h1v1h-1ZM74,80h1v1h-1ZM85,80h2v1h-2ZM91,80h2v1h-2ZM97,80h3v1h-3ZM101,80h1v2h-1ZM103,80h2v2h-2ZM109,80h2v1h-2ZM112,80h1v1h-1ZM114,80h1v1h-1ZM127,80h1v1h-1ZM4,81h5v2h-5ZM10,81h5v3h-5ZM20,81h5v3h-5ZM26,81h5v2h-5ZM72,81h2v2h-2ZM82,81h5v3h-5ZM88,81h1v1h-1ZM90,81h3v1h-3ZM94,81h6v1h-6ZM106,81h5v2h-5ZM112,81h2v2h-2ZM124,81h4v2h-4ZM16,82h3v2h-3ZM88,82h2v1h-2ZM91,82h2v1h-2ZM94,82h7v1h-7ZM102,82h3v2h-3ZM8,83h1v1h-1ZM26,83h6v1h-6ZM35,83h2v1h-2ZM42,83h1v1h-1ZM48,83h2v1h-2ZM53,83h4v1h-4ZM58,83h3v1h-3ZM64,83h2v1h-2ZM69,83h2v1h-2ZM72,83h3v1h-3ZM88,83h3v1h-3ZM92,83h1v1h-1ZM98,83h3v1h-3ZM110,83h1v1h-1ZM112,83h3v1h-3Z"/><path fill="rgba(111,193,85,255)" d="M56,0h18v1h-18ZM50,1h30v1h-30ZM46,2h10v1h-10ZM74,2h10v1h-10ZM43,3h7v1h-7ZM80,3h7v1h-7ZM40,4h6v1h-6ZM84,4h6v1h-6ZM38,5h5v1h-5ZM87,5h5v1h-5ZM35,6h5v1h-5ZM90,6h5v1h-5ZM33,7h5v1h-5ZM92,7h5v1h-5ZM31,8h5v1h-5ZM94,8h5v1h-5ZM30,9h4v1h-4ZM96,9h4v1h-4ZM28,10h4v1h-4ZM98,10h4v1h-4ZM27,11h3v1h-3ZM100,11h3v1h-3ZM25,12h4v1h-4ZM101,12h4v1h-4ZM24,13h3v1h-3ZM103,13h3v1h-3ZM22,14h4v1h-4ZM104,14h4v1h-4ZM21,15h3v1h-3ZM106,15h3v1h-3ZM20,16h3v1h-3ZM107,16h3v1h-3ZM19,17h3v1h-3ZM108,17h3v1h-3ZM18,18h3v1h-3ZM109,18h3v1h-3ZM17,19h3v1h-3ZM110,19h3v1h-3ZM16,20h3v1h-3ZM111,20h3v1h-3ZM15,21h3v1h-3ZM112,21h3v1h-3ZM14,22h3v1h-3ZM105,22h3v1h-3ZM113,22h3v1h-3ZM13,23h3v1h-3ZM104,23h5v2h-5ZM114,23h3v1h-3ZM12,24h3v1h-3ZM115,24h3v1h-3ZM12,25h2v1h-2ZM104,25h2v2h-2ZM107,25h2v1h-2ZM116,25h2v1h-2ZM11,26h2v1h-2ZM107,26h3v1h-3ZM117,26h2v1h-2ZM10,27h3v1h-3ZM103,27h2v1h-2ZM108,27h2v1h-2ZM117,27h3v1h-3ZM10,28h2v1h-2ZM102,28h3v1h-3ZM108,28h3v2h-3ZM118,28h2v1h-2ZM9,29h2v1h-2ZM102,29h2v2h-2ZM119,29h2v2h-2ZM8,30h3v1h-3ZM109,30h2v1h-2ZM8,31h2v1h-2ZM101,31h3v1h-3ZM109,31h3v2h-3ZM120,31h2v1h-2ZM7,32h2v2h-2ZM101,32h2v2h-2ZM121,32h2v2h-2ZM110,33h2v1h-2ZM6,34h2v2h-2ZM100,34h3v1h-3ZM110,34h3v1h-3ZM100,35h2v1h-2ZM111,35h2v1h-2ZM5,36h2v2h-2ZM99,36h3v1h-3ZM111,36h3v1h-3ZM81,37h21v1h-21ZM111,37h21v1h-21ZM4,38h2v2h-2ZM80,38h21v1h-21ZM112,38h21v1h-21ZM81,39h20v1h-20ZM112,39h20v1h-20ZM3,40h3v1h-3ZM127,40h4v1h-4ZM3,41h2v2h-2ZM107,41h3v1h-3ZM126,41h4v1h-4ZM105,42h4v1h-4ZM125,42h4v1h-4ZM2,43h2v4h-2ZM72,43h1v1h-1ZM89,43h2v2h-2ZM103,43h4v1h-4ZM124,43h4v1h-4ZM26,44h4v1h-4ZM70,44h5v1h-5ZM100,44h4v1h-4ZM123,44h4v1h-4ZM24,45h3v1h-3ZM29,45h2v2h-2ZM69,45h2v1h-2ZM73,45h3v1h-3ZM82,45h1v1h-1ZM88,45h3v1h-3ZM98,45h3v1h-3ZM122,45h4v1h-4ZM23,46h2v1h-2ZM57,46h2v1h-2ZM61,46h2v1h-2ZM68,46h2v1h-2ZM73,46h2v1h-2ZM80,46h3v1h-3ZM87,46h3v2h-3ZM96,46h3v1h-3ZM121,46h4v1h-4ZM1,47h2v5h-2ZM22,47h2v1h-2ZM29,47h1v1h-1ZM57,47h1v1h-1ZM60,47h3v1h-3ZM67,47h2v1h-2ZM72,47h2v1h-2ZM78,47h4v1h-4ZM94,47h3v1h-3ZM120,47h4v1h-4ZM21,48h2v1h-2ZM28,48h2v1h-2ZM49,48h2v1h-2ZM56,48h2v1h-2ZM59,48h4v1h-4ZM66,48h2v1h-2ZM71,48h2v1h-2ZM76,48h6v1h-6ZM86,48h3v1h-3ZM92,48h3v1h-3ZM119,48h4v1h-4ZM20,49h2v1h-2ZM28,49h1v1h-1ZM47,49h5v1h-5ZM56,49h4v1h-4ZM62,49h2v1h-2ZM66,49h1v1h-1ZM70,49h2v1h-2ZM75,49h3v1h-3ZM79,49h2v2h-2ZM85,49h4v1h-4ZM90,49h3v1h-3ZM118,49h4v1h-4ZM19,50h2v1h-2ZM27,50h2v1h-2ZM33,50h2v2h-2ZM46,50h2v1h-2ZM50,50h1v1h-1ZM55,50h4v1h-4ZM63,50h4v1h-4ZM69,50h2v1h-2ZM72,50h4v1h-4ZM84,50h2v1h-2ZM87,50h5v1h-5ZM94,50h3v2h-3ZM117,50h4v1h-4ZM18,51h2v1h-2ZM26,51h2v1h-2ZM37,51h2v1h-2ZM45,51h2v1h-2ZM49,51h2v1h-2ZM54,51h4v1h-4ZM64,51h6v1h-6ZM71,51h3v1h-3ZM79,51h1v2h-1ZM83,51h2v1h-2ZM87,51h3v1h-3ZM117,51h3v1h-3ZM0,52h2v6h-2ZM17,52h2v1h-2ZM25,52h2v1h-2ZM32,52h2v1h-2ZM36,52h3v1h-3ZM45,52h1v1h-1ZM48,52h2v1h-2ZM53,52h2v1h-2ZM56,52h2v1h-2ZM64,52h1v1h-1ZM70,52h3v1h-3ZM82,52h2v1h-2ZM86,52h3v1h-3ZM94,52h2v1h-2ZM118,52h2v1h-2ZM17,53h1v1h-1ZM24,53h2v1h-2ZM31,53h3v1h-3ZM35,53h4v1h-4ZM44,53h2v1h-2ZM47,53h2v1h-2ZM52,53h2v1h-2ZM55,53h2v2h-2ZM64,53h2v1h-2ZM69,53h4v1h-4ZM79,53h4v1h-4ZM85,53h3v1h-3ZM93,53h3v3h-3ZM118,53h3v3h-3ZM16,54h2v1h-2ZM23,54h2v1h-2ZM30,54h3v1h-3ZM35,54h1v1h-1ZM37,54h2v3h-2ZM44,54h4v1h-4ZM51,54h2v1h-2ZM65,54h7v1h-7ZM80,54h1v1h-1ZM83,54h4v1h-4ZM16,55h1v1h-1ZM21,55h3v1h-3ZM29,55h6v1h-6ZM44,55h3v1h-3ZM50,55h2v1h-2ZM55,55h1v1h-1ZM68,55h2v1h-2ZM71,55h1v1h-1ZM82,55h2v1h-2ZM86,55h1v1h-1ZM15,56h2v1h-2ZM20,56h2v1h-2ZM28,56h6v1h-6ZM42,56h4v1h-4ZM48,56h3v1h-3ZM54,56h2v1h-2ZM67,56h2v1h-2ZM70,56h2v1h-2ZM81,56h2v1h-2ZM85,56h2v1h-2ZM93,56h2v1h-2ZM119,56h2v1h-2ZM15,57h1v1h-1ZM18,57h3v1h-3ZM27,57h2v1h-2ZM31,57h2v1h-2ZM37,57h12v1h-12ZM66,57h1v1h-1ZM70,57h1v1h-1ZM80,57h2v1h-2ZM85,57h1v1h-1ZM92,57h3v3h-3ZM105,57h4v1h-4ZM119,57h3v3h-3ZM14,58h5v1h-5ZM26,58h2v1h-2ZM30,58h3v1h-3ZM38,58h4v1h-4ZM46,58h1v1h-1ZM65,58h2v1h-2ZM69,58h2v1h-2ZM79,58h2v1h-2ZM84,58h2v2h-2ZM103,58h8v1h-8ZM3,59h1v1h-1ZM11,59h6v1h-6ZM25,59h2v1h-2ZM30,59h2v2h-2ZM65,59h1v1h-1ZM69,59h1v1h-1ZM79,59h1v1h-1ZM102,59h10v1h-10ZM3,60h12v1h-12ZM23,60h3v1h-3ZM64,60h2v1h-2ZM68,60h2v1h-2ZM78,60h2v1h-2ZM84,60h1v1h-1ZM91,60h3v3h-3ZM100,60h5v1h-5ZM109,60h5v1h-5ZM120,60h3v3h-3ZM4,61h7v1h-7ZM14,61h1v1h-1ZM22,61h2v1h-2ZM30,61h1v1h-1ZM63,61h2v2h-2ZM68,61h1v1h-1ZM77,61h2v1h-2ZM83,61h2v1h-2ZM99,61h4v1h-4ZM111,61h4v1h-4ZM14,62h2v1h-2ZM20,62h3v1h-3ZM67,62h2v1h-2ZM77,62h1v1h-1ZM83,62h1v1h-1ZM97,62h5v1h-5ZM112,62h5v1h-5ZM15,63h6v1h-6ZM63,63h1v1h-1ZM67,63h1v1h-1ZM76,63h2v1h-2ZM82,63h2v1h-2ZM91,63h2v1h-2ZM96,63h4v1h-4ZM114,63h4v1h-4ZM121,63h2v1h-2ZM17,64h2v1h-2ZM62,64h2v2h-2ZM66,64h2v1h-2ZM76,64h1v1h-1ZM82,64h1v1h-1ZM91,64h3v1h-3ZM95,64h5v1h-5ZM115,64h5v1h-5ZM121,64h3v1h-3ZM65,65h2v1h-2ZM75,65h2v1h-2ZM81,65h2v1h-2ZM90,65h7v1h-7ZM117,65h7v1h-7ZM62,66h4v1h-4ZM75,66h1v2h-1ZM81,66h1v1h-1ZM90,66h6v1h-6ZM118,66h6v1h-6ZM62,67h3v1h-3ZM80,67h2v1h-2ZM89,67h5v1h-5ZM120,67h5v1h-5ZM75,68h2v1h-2ZM79,68h2v1h-2ZM89,68h3v1h-3ZM122,68h3v1h-3ZM76,69h4v1h-4ZM2,73h133v1h-133ZM3,77h5v1h-5ZM9,77h4v1h-4ZM17,77h1v2h-1ZM25,77h4v1h-4ZM32,77h3v1h-3ZM37,77h1v6h-1ZM43,77h1v6h-1ZM49,77h1v6h-1ZM53,77h1v6h-1ZM55,77h5v1h-5ZM61,77h3v1h-3ZM66,77h3v1h-3ZM71,77h1v1h-1ZM75,77h1v4h-1ZM81,77h4v1h-4ZM87,77h4v1h-4ZM93,77h5v1h-5ZM99,77h1v3h-1ZM103,77h1v3h-1ZM105,77h5v1h-5ZM111,77h1v1h-1ZM115,77h1v4h-1ZM117,77h5v1h-5ZM123,77h5v1h-5ZM129,77h4v1h-4ZM3,78h1v2h-1ZM9,78h1v2h-1ZM13,78h1v2h-1ZM25,78h1v2h-1ZM29,78h1v2h-1ZM31,78h1v5h-1ZM35,78h1v5h-1ZM57,78h1v6h-1ZM62,78h1v5h-1ZM65,78h1v5h-1ZM69,78h1v5h-1ZM71,78h2v2h-2ZM81,78h1v2h-1ZM85,78h1v2h-1ZM87,78h1v2h-1ZM91,78h1v2h-1ZM93,78h1v2h-1ZM105,78h1v2h-1ZM111,78h2v2h-2ZM119,78h1v6h-1ZM123,78h1v2h-1ZM129,78h1v2h-1ZM133,78h1v2h-1ZM16,79h3v1h-3ZM3,80h4v1h-4ZM9,80h4v1h-4ZM16,80h1v1h-1ZM18,80h1v1h-1ZM25,80h4v1h-4ZM71,80h1v4h-1ZM73,80h1v1h-1ZM81,80h4v1h-4ZM87,80h4v1h-4ZM93,80h4v1h-4ZM100,80h1v2h-1ZM102,80h1v2h-1ZM105,80h4v1h-4ZM111,80h1v4h-1ZM113,80h1v1h-1ZM123,80h4v1h-4ZM129,80h4v1h-4ZM3,81h1v2h-1ZM9,81h1v3h-1ZM15,81h5v1h-5ZM25,81h1v3h-1ZM74,81h2v2h-2ZM81,81h1v3h-1ZM87,81h1v3h-1ZM89,81h1v1h-1ZM93,81h1v2h-1ZM105,81h1v2h-1ZM114,81h2v2h-2ZM123,81h1v2h-1ZM129,81h1v3h-1ZM131,81h1v1h-1ZM15,82h1v2h-1ZM19,82h1v2h-1ZM90,82h1v1h-1ZM101,82h1v2h-1ZM132,82h1v1h-1ZM3,83h5v1h-5ZM32,83h3v1h-3ZM37,83h5v1h-5ZM43,83h5v1h-5ZM50,83h3v1h-3ZM61,83h3v1h-3ZM66,83h3v1h-3ZM75,83h1v1h-1ZM91,83h1v1h-1ZM93,83h5v1h-5ZM105,83h5v1h-5ZM115,83h1v1h-1ZM123,83h5v1h-5ZM133,83h1v1h-1Z"/><path fill="rgba(255,255,255,0)" d="M128,0h7v37h-7ZM132,37h3v1h-3ZM133,38h2v1h-2ZM132,39h3v1h-3ZM131,40h4v1h-4ZM130,41h5v1h-5ZM129,42h6v1h-6ZM128,43h7v30h-7ZM128,74h7v3h-7ZM128,77h1v7h-1ZM133,77h2v1h-2ZM130,78h3v2h-3ZM134,78h1v2h-1ZM133,80h2v1h-2ZM130,81h1v1h-1ZM132,81h3v1h-3ZM130,82h2v1h-2ZM133,82h2v1h-2ZM130,83h3v1h-3ZM134,83h1v1h-1Z"/></g></svg>