<svg version="1.1" xmlns="http://www.w3.org/2000/svg" xmlns:xlink="http://www.w3.org/1999/xlink" shape-rendering="crispEdges" width="32" height="32" viewBox="0 0 32 32"><g><path fill="rgba(0,0,0,0)" d="M0,0h11v1h-11ZM19,0h13v1h-13ZM0,1h8v1h-8ZM22,1h10v1h-10ZM0,2h7v1h-7ZM23,2h9v1h-9ZM0,3h5v1h-5ZM25,3h7v1h-7ZM0,4h4v1h-4ZM26,4h6v1h-6ZM0,5h3v2h-3ZM27,5h5v1h-5ZM28,6h4v1h-4ZM0,7h2v1h-2ZM29,7h3v2h-3ZM0,8h1v3h-1ZM30,9h2v1h-2ZM31,10h1v3h-1ZM0,19h1v3h-1ZM31,21h1v3h-1ZM0,22h2v1h-2ZM0,23h3v2h-3ZM30,24h2v1h-2ZM0,25h4v1h-4ZM29,25h3v2h-3ZM0,26h5v1h-5ZM0,27h6v1h-6ZM28,27h4v1h-4ZM0,28h7v1h-7ZM27,28h5v1h-5ZM0,29h9v1h-9ZM25,29h7v1h-7ZM0,30h10v1h-10ZM24,30h8v1h-8ZM0,31h13v1h-13ZM21,31h11v1h-11Z"/><path fill="rgba(96,0,0,255)" d="M11,0h8v1h-8ZM8,1h3v1h-3ZM19,1h3v1h-3ZM7,2h1v1h-1ZM22,2h1v1h-1ZM5,3h2v1h-2ZM23,3h2v1h-2ZM4,4h1v1h-1ZM25,4h1v1h-1ZM3,5h1v2h-1ZM26,5h1v2h-1ZM2,7h1v1h-1ZM27,7h1v1h-1ZM1,8h1v3h-1ZM28,8h1v3h-1ZM0,11h1v8h-1ZM29,11h1v8h-1ZM1,19h1v3h-1ZM28,19h1v3h-1ZM2,22h1v1h-1ZM27,22h1v1h-1ZM3,23h1v2h-1ZM26,23h1v2h-1ZM4,25h1v1h-1ZM25,25h1v1h-1ZM5,26h2v1h-2ZM23,26h2v1h-2ZM7,27h1v1h-1ZM22,27h1v1h-1ZM8,28h3v1h-3ZM19,28h3v1h-3ZM11,29h8v1h-8Z"/><path fill="rgba(255,0,0,255)" d="M11,1h8v1h-8ZM8,2h14v1h-14ZM7,3h16v1h-16ZM5,4h20v1h-20ZM4,5h22v2h-22ZM3,7h6v1h-6ZM10,7h10v1h-10ZM21,7h6v1h-6ZM2,8h6v1h-6ZM11,8h8v1h-8ZM22,8h6v1h-6ZM2,9h5v1h-5ZM12,9h6v1h-6ZM23,9h5v1h-5ZM2,10h6v1h-6ZM13,10h4v1h-4ZM22,10h6v1h-6ZM1,11h8v1h-8ZM14,11h2v1h-2ZM21,11h8v1h-8ZM1,12h9v1h-9ZM20,12h9v1h-9ZM1,13h10v1h-10ZM19,13h10v1h-10ZM1,14h11v2h-11ZM18,14h11v2h-11ZM1,16h10v1h-10ZM19,16h10v1h-10ZM1,17h9v1h-9ZM20,17h9v1h-9ZM1,18h8v1h-8ZM14,18h2v1h-2ZM21,18h8v1h-8ZM2,19h6v1h-6ZM13,19h4v1h-4ZM22,19h6v1h-6ZM2,20h5v1h-5ZM12,20h6v1h-6ZM23,20h5v1h-5ZM2,21h6v1h-6ZM11,21h8v1h-8ZM22,21h6v1h-6ZM3,22h6v1h-6ZM10,22h10v1h-10ZM21,22h6v1h-6ZM4,23h22v2h-22ZM5,25h20v1h-20ZM7,26h16v1h-16ZM8,27h14v1h-14ZM11,28h8v1h-8Z"/><path fill="rgba(153,153,153,255)" d="M27,6h1v1h-1ZM28,7h1v1h-1ZM29,9h1v1h-1ZM29,10h2v1h-2ZM30,11h1v2h-1ZM30,13h2v6h-2ZM29,19h3v2h-3ZM29,21h2v1h-2ZM28,22h3v1h-3ZM27,23h4v1h-4ZM27,24h3v1h-3ZM26,25h3v1h-3ZM25,26h4v1h-4ZM6,27h1v1h-1ZM23,27h5v1h-5ZM7,28h1v1h-1ZM22,28h5v1h-5ZM9,29h2v1h-2ZM19,29h6v1h-6ZM10,30h14v1h-14ZM13,31h8v1h-8Z"/><path fill="rgba(255,255,255,255)" d="M9,7h1v1h-1ZM20,7h1v1h-1ZM8,8h3v1h-3ZM19,8h3v1h-3ZM7,9h5v1h-5ZM18,9h5v1h-5ZM8,10h5v1h-5ZM17,10h5v1h-5ZM9,11h5v1h-5ZM16,11h5v1h-5ZM10,12h10v1h-10ZM11,13h8v1h-8ZM12,14h6v2h-6ZM11,16h8v1h-8ZM10,17h10v1h-10ZM9,18h5v1h-5ZM16,18h5v1h-5ZM8,19h5v1h-5ZM17,19h5v1h-5ZM7,20h5v1h-5ZM18,20h5v1h-5ZM8,21h3v1h-3ZM19,21h3v1h-3ZM9,22h1v1h-1ZM20,22h1v1h-1Z"/></g></svg>