<svg version="1.1" xmlns="http://www.w3.org/2000/svg" xmlns:xlink="http://www.w3.org/1999/xlink" shape-rendering="crispEdges" width="16" height="16" viewBox="0 0 16 16"><g><path fill="rgba(255,255,255,0)" d="M0,0h16v1h-16ZM0,15h16v1h-16Z"/><path fill="rgba(146,146,146,255)" d="M0,1h16v1h-16ZM0,2h1v11h-1ZM14,2h1v3h-1ZM2,5h13v1h-13ZM14,6h1v7h-1ZM0,13h15v1h-15Z"/><path fill="rgba(204,203,204,255)" d="M1,2h13v1h-13ZM1,3h1v10h-1Z"/><path fill="rgba(0,0,0,255)" d="M15,2h1v12h-1ZM9,4h1v1h-1ZM11,4h1v1h-1ZM13,4h1v1h-1ZM0,14h16v1h-16Z"/><path fill="rgba(18,0,153,255)" d="M2,3h12v1h-12ZM2,4h6v1h-6Z"/><path fill="rgba(253,253,253,255)" d="M8,4h1v1h-1ZM10,4h1v1h-1ZM12,4h1v1h-1ZM2,6h12v7h-12Z"/></g></svg>