<svg version="1.1" xmlns="http://www.w3.org/2000/svg" xmlns:xlink="http://www.w3.org/1999/xlink" shape-rendering="crispEdges" width="32" height="32" viewBox="0 0 32 32"><g><path fill="rgba(255,255,255,0)" d="M0,0h32v2h-32ZM0,31h32v1h-32Z"/><path fill="rgba(128,128,128,255)" d="M0,2h31v1h-31ZM0,3h1v26h-1ZM30,3h1v26h-1ZM2,9h27v1h-27ZM2,10h1v18h-1ZM0,29h31v1h-31Z"/><path fill="rgba(0,0,0,255)" d="M31,2h1v28h-1ZM23,5h1v2h-1ZM26,5h1v2h-1ZM29,5h1v2h-1ZM21,7h9v1h-9ZM0,30h32v1h-32Z"/><path fill="rgba(192,192,192,255)" d="M1,3h29v1h-29ZM1,4h1v4h-1ZM21,5h2v2h-2ZM24,5h2v2h-2ZM27,5h2v2h-2ZM1,8h29v1h-29ZM1,9h1v19h-1ZM29,9h1v19h-1ZM1,28h29v1h-29Z"/><path fill="rgba(0,0,191,255)" d="M2,4h28v1h-28ZM2,5h19v3h-19Z"/><path fill="rgba(255,255,255,255)" d="M3,10h26v18h-26Z"/></g></svg>