<svg version="1.1" xmlns="http://www.w3.org/2000/svg" xmlns:xlink="http://www.w3.org/1999/xlink" shape-rendering="crispEdges" width="16" height="16" viewBox="0 0 16 16"><g><path fill="rgba(255,255,255,0)" d="M0,0h3v1h-3ZM8,0h8v1h-8ZM0,1h2v1h-2ZM9,1h7v1h-7ZM0,2h1v10h-1ZM15,2h1v1h-1ZM0,12h2v1h-2ZM15,12h1v1h-1ZM0,13h11v1h-11ZM0,14h12v1h-12ZM0,15h13v1h-13ZM15,15h1v1h-1Z"/><path fill="rgba(128,128,128,255)" d="M3,0h5v1h-5ZM2,1h1v1h-1ZM8,1h1v1h-1ZM1,2h1v10h-1ZM9,2h6v1h-6ZM5,4h2v1h-2ZM8,4h1v1h-1ZM4,5h1v1h-1ZM9,5h1v1h-1ZM3,6h1v3h-1ZM10,6h1v1h-1ZM4,9h1v1h-1ZM9,9h1v1h-1ZM5,10h1v1h-1ZM8,10h1v1h-1Z"/><path fill="rgba(192,192,192,255)" d="M3,1h1v1h-1ZM5,1h1v1h-1ZM7,1h1v1h-1ZM2,2h1v1h-1ZM4,2h1v1h-1ZM6,2h1v1h-1ZM8,2h1v1h-1ZM4,4h1v1h-1ZM10,4h1v1h-1ZM12,4h1v1h-1ZM3,5h1v1h-1ZM11,5h1v1h-1ZM13,5h1v1h-1ZM8,6h1v1h-1ZM12,6h1v1h-1ZM7,7h1v1h-1ZM11,7h1v1h-1ZM13,7h1v1h-1ZM6,8h1v1h-1ZM8,8h1v1h-1ZM12,8h1v1h-1ZM3,9h1v1h-1ZM5,9h1v1h-1ZM7,9h1v1h-1ZM13,9h1v1h-1ZM4,10h1v1h-1ZM9,10h1v1h-1Z"/><path fill="rgba(255,255,0,255)" d="M4,1h1v1h-1ZM6,1h1v1h-1ZM3,2h1v1h-1ZM5,2h1v1h-1ZM7,2h1v1h-1ZM3,4h1v1h-1ZM9,4h1v1h-1ZM11,4h1v1h-1ZM13,4h1v1h-1ZM10,5h1v1h-1ZM12,5h1v1h-1ZM11,6h1v1h-1ZM13,6h1v1h-1ZM12,7h1v1h-1ZM11,8h1v1h-1ZM13,8h1v1h-1ZM12,9h1v1h-1ZM3,10h1v1h-1ZM13,10h1v1h-1Z"/><path fill="rgba(255,255,255,255)" d="M2,3h12v1h-12ZM2,4h1v7h-1ZM5,5h1v1h-1ZM7,5h1v1h-1ZM4,6h1v1h-1ZM6,6h1v1h-1ZM5,7h1v1h-1ZM4,8h1v1h-1Z"/><path fill="rgba(128,128,0,255)" d="M14,3h1v8h-1ZM10,7h1v2h-1ZM10,9h2v1h-2ZM12,10h1v1h-1ZM2,11h7v1h-7ZM13,11h2v1h-2Z"/><path fill="rgba(0,0,0,255)" d="M15,3h1v9h-1ZM7,4h1v1h-1ZM8,5h1v1h-1ZM9,6h1v3h-1ZM8,9h1v1h-1ZM6,10h2v1h-2ZM2,12h8v1h-8ZM14,12h1v1h-1ZM15,13h1v2h-1ZM13,15h2v1h-2Z"/><path fill="rgba(0,255,255,255)" d="M6,5h1v1h-1ZM5,6h1v1h-1ZM7,6h1v1h-1ZM4,7h1v1h-1ZM6,7h1v1h-1ZM8,7h1v1h-1ZM5,8h1v1h-1ZM7,8h1v1h-1ZM6,9h1v1h-1ZM10,11h1v1h-1ZM11,12h1v1h-1ZM12,13h1v1h-1ZM13,14h1v1h-1Z"/><path fill="rgba(0,0,255,255)" d="M10,10h2v1h-2ZM11,11h2v1h-2ZM12,12h2v1h-2ZM13,13h2v1h-2ZM14,14h1v1h-1Z"/><path fill="rgba(0,0,128,255)" d="M9,11h1v1h-1ZM10,12h1v1h-1ZM11,13h1v1h-1ZM12,14h1v1h-1Z"/></g></svg>