<svg version="1.1" xmlns="http://www.w3.org/2000/svg" xmlns:xlink="http://www.w3.org/1999/xlink" shape-rendering="crispEdges" width="24" height="24" viewBox="0 0 24 24"><g><path fill="rgba(255,255,255,0)" d="M0,0h6v3h-6ZM19,0h5v1h-5ZM20,1h4v1h-4ZM21,2h3v1h-3ZM0,3h4v1h-4ZM22,3h2v1h-2ZM0,4h2v1h-2ZM23,4h1v1h-1ZM0,5h1v2h-1ZM0,11h1v2h-1ZM0,13h2v1h-2ZM0,14h4v1h-4ZM0,15h6v7h-6ZM0,22h14v1h-14ZM19,22h5v1h-5ZM0,23h15v1h-15ZM18,23h6v1h-6Z"/><path fill="rgba(128,128,128,255)" d="M6,0h13v1h-13ZM6,1h1v2h-1ZM18,1h1v1h-1ZM18,2h2v1h-2ZM4,3h4v1h-4ZM18,3h1v2h-1ZM20,3h1v1h-1ZM2,4h2v1h-2ZM21,4h1v1h-1ZM1,5h1v2h-1ZM11,6h1v1h-1ZM0,7h1v4h-1ZM12,7h1v4h-1ZM7,10h3v1h-3ZM1,11h1v2h-1ZM11,11h1v2h-1ZM7,12h2v1h-2ZM2,13h2v1h-2ZM10,13h1v2h-1ZM12,13h1v1h-1ZM13,14h1v1h-1ZM6,15h2v1h-2ZM14,15h1v1h-1ZM6,16h1v5h-1ZM8,16h1v1h-1ZM15,16h1v1h-1ZM9,17h1v1h-1ZM16,17h1v1h-1ZM17,18h1v1h-1ZM18,19h1v1h-1Z"/><path fill="rgba(255,255,255,255)" d="M7,1h11v2h-11ZM9,3h9v1h-9ZM19,3h1v1h-1ZM4,4h1v1h-1ZM6,4h1v1h-1ZM10,4h8v1h-8ZM19,4h2v1h-2ZM3,5h1v1h-1ZM11,5h7v1h-7ZM2,6h1v1h-1ZM4,6h1v1h-1ZM16,6h6v1h-6ZM1,7h1v1h-1ZM3,7h2v1h-2ZM13,7h9v2h-9ZM2,8h1v1h-1ZM4,8h1v1h-1ZM1,9h1v1h-1ZM3,9h2v1h-2ZM20,9h2v1h-2ZM2,10h1v1h-1ZM4,10h1v1h-1ZM13,10h9v1h-9ZM3,11h1v1h-1ZM20,11h2v1h-2ZM4,12h1v1h-1ZM12,12h10v1h-10ZM20,13h2v1h-2ZM14,14h8v1h-8ZM9,15h1v1h-1ZM20,15h2v1h-2ZM7,16h1v1h-1ZM16,16h6v1h-6ZM7,17h2v1h-2ZM17,17h5v1h-5ZM7,18h3v1h-3ZM18,18h4v1h-4ZM7,19h4v1h-4ZM19,19h3v1h-3Z"/><path fill="rgba(0,0,0,255)" d="M19,1h1v1h-1ZM20,2h1v1h-1ZM21,3h1v1h-1ZM9,4h1v1h-1ZM22,4h1v1h-1ZM10,5h1v2h-1ZM18,5h6v1h-6ZM23,6h1v15h-1ZM11,7h1v4h-1ZM10,11h1v2h-1ZM9,13h1v1h-1ZM11,13h1v1h-1ZM4,14h5v1h-5ZM12,14h1v1h-1ZM13,15h1v1h-1ZM14,16h1v1h-1ZM15,17h1v1h-1ZM16,18h1v1h-1ZM17,19h1v1h-1ZM18,20h1v1h-1ZM6,21h7v1h-7ZM18,21h6v1h-6ZM18,22h1v1h-1ZM15,23h3v1h-3Z"/><path fill="rgba(192,192,192,255)" d="M8,3h1v1h-1ZM5,4h1v2h-1ZM7,5h1v1h-1ZM5,6h2v1h-2ZM8,6h1v1h-1ZM12,6h4v1h-4ZM22,6h1v14h-1ZM5,7h1v1h-1ZM7,7h1v1h-1ZM9,7h1v1h-1ZM5,8h2v1h-2ZM8,8h1v1h-1ZM5,9h1v1h-1ZM7,9h1v1h-1ZM9,9h1v1h-1ZM13,9h7v1h-7ZM5,10h2v1h-2ZM5,11h1v1h-1ZM7,11h1v1h-1ZM12,11h8v1h-8ZM2,12h1v1h-1ZM5,12h2v1h-2ZM5,13h1v1h-1ZM7,13h1v1h-1ZM13,13h7v1h-7ZM9,14h1v1h-1ZM8,15h1v1h-1ZM10,15h1v1h-1ZM15,15h5v1h-5ZM7,20h5v1h-5ZM19,20h4v1h-4Z"/><path fill="rgba(0,255,255,255)" d="M7,4h1v1h-1ZM2,5h1v1h-1ZM4,5h1v1h-1ZM6,5h1v1h-1ZM8,5h1v1h-1ZM3,6h1v1h-1ZM7,6h1v1h-1ZM9,6h1v1h-1ZM2,7h1v1h-1ZM6,7h1v1h-1ZM8,7h1v1h-1ZM1,8h1v1h-1ZM3,8h1v1h-1ZM7,8h1v1h-1ZM9,8h1v1h-1ZM2,9h1v1h-1ZM6,9h1v1h-1ZM8,9h1v1h-1ZM1,10h1v1h-1ZM3,10h1v1h-1ZM2,11h1v1h-1ZM4,11h1v1h-1ZM6,11h1v1h-1ZM8,11h1v1h-1ZM3,12h1v1h-1ZM4,13h1v1h-1ZM6,13h1v1h-1ZM10,16h2v1h-2ZM11,17h2v1h-2ZM12,18h2v1h-2ZM13,19h2v1h-2ZM14,20h2v1h-2ZM15,21h2v1h-2ZM16,22h1v1h-1Z"/><path fill="rgba(0,128,128,255)" d="M8,4h1v1h-1ZM9,5h1v1h-1ZM10,7h1v4h-1ZM9,11h1v2h-1ZM8,13h1v1h-1Z"/><path fill="rgba(0,0,255,255)" d="M11,14h1v1h-1ZM11,15h2v1h-2ZM9,16h1v1h-1ZM12,16h2v1h-2ZM10,17h1v1h-1ZM13,17h2v1h-2ZM11,18h1v1h-1ZM14,18h2v1h-2ZM12,19h1v1h-1ZM15,19h2v1h-2ZM13,20h1v1h-1ZM16,20h2v1h-2ZM14,21h1v1h-1ZM17,21h1v2h-1ZM15,22h1v1h-1Z"/><path fill="rgba(0,0,128,255)" d="M10,18h1v1h-1ZM11,19h1v1h-1ZM12,20h1v1h-1ZM13,21h1v1h-1ZM14,22h1v1h-1Z"/></g></svg>