<svg version="1.1" xmlns="http://www.w3.org/2000/svg" xmlns:xlink="http://www.w3.org/1999/xlink" shape-rendering="crispEdges" width="17" height="17" viewBox="0 0 17 17"><g><path fill="rgba(192,192,192,255)" d="M0,0h11v1h-11ZM12,0h3v3h-3ZM0,1h10v1h-10ZM0,2h9v1h-9ZM0,3h8v1h-8ZM11,3h4v1h-4ZM0,4h7v1h-7ZM10,4h1v1h-1ZM12,4h3v3h-3ZM0,5h6v1h-6ZM9,5h1v1h-1ZM0,6h5v1h-5ZM8,6h1v1h-1ZM0,7h4v1h-4ZM7,7h1v1h-1ZM11,7h4v1h-4ZM0,8h3v1h-3ZM6,8h1v1h-1ZM10,8h1v1h-1ZM12,8h3v3h-3ZM0,9h2v1h-2ZM5,9h1v1h-1ZM9,9h1v1h-1ZM0,10h1v1h-1ZM4,10h1v1h-1ZM8,10h1v1h-1ZM3,11h1v1h-1ZM7,11h1v1h-1ZM11,11h4v1h-4ZM0,12h15v3h-15Z"/><path fill="rgba(255,255,255,255)" d="M11,0h1v1h-1ZM10,1h1v1h-1ZM9,2h1v1h-1ZM8,3h1v1h-1ZM7,4h1v1h-1ZM11,4h1v1h-1ZM6,5h1v1h-1ZM10,5h1v1h-1ZM5,6h1v1h-1ZM9,6h1v1h-1ZM4,7h1v1h-1ZM8,7h1v1h-1ZM3,8h1v1h-1ZM7,8h1v1h-1ZM11,8h1v1h-1ZM2,9h1v1h-1ZM6,9h1v1h-1ZM10,9h1v1h-1ZM1,10h1v1h-1ZM5,10h1v1h-1ZM9,10h1v1h-1ZM0,11h1v1h-1ZM4,11h1v1h-1ZM8,11h1v1h-1Z"/><path fill="rgba(128,128,128,255)" d="M15,0h1v15h-1ZM11,1h1v1h-1ZM10,2h2v1h-2ZM9,3h2v1h-2ZM8,4h2v1h-2ZM7,5h2v1h-2ZM11,5h1v1h-1ZM6,6h2v1h-2ZM10,6h2v1h-2ZM5,7h2v1h-2ZM9,7h2v1h-2ZM4,8h2v1h-2ZM8,8h2v1h-2ZM3,9h2v1h-2ZM7,9h2v1h-2ZM11,9h1v1h-1ZM2,10h2v1h-2ZM6,10h2v1h-2ZM10,10h2v1h-2ZM1,11h2v1h-2ZM5,11h2v1h-2ZM9,11h2v1h-2ZM0,15h16v1h-16Z"/><path fill="rgba(0,0,0,255)" d="M16,0h1v16h-1ZM0,16h17v1h-17Z"/></g></svg>