<svg version="1.1" xmlns="http://www.w3.org/2000/svg" xmlns:xlink="http://www.w3.org/1999/xlink" shape-rendering="crispEdges" width="24" height="24" viewBox="0 0 24 24"><g><path fill="rgba(255,255,255,0)" d="M0,0h11v1h-11ZM14,0h10v1h-10ZM0,1h10v1h-10ZM16,1h8v1h-8ZM0,2h9v1h-9ZM18,2h6v1h-6ZM0,3h8v1h-8ZM20,3h4v1h-4ZM0,4h7v1h-7ZM22,4h2v1h-2ZM0,5h6v1h-6ZM0,6h5v1h-5ZM0,7h4v1h-4ZM23,7h1v5h-1ZM0,8h3v1h-3ZM0,9h2v1h-2ZM0,10h1v1h-1ZM23,14h1v1h-1ZM22,15h2v1h-2ZM21,16h3v1h-3ZM0,17h1v1h-1ZM20,17h4v1h-4ZM0,18h3v1h-3ZM19,18h5v1h-5ZM0,19h5v1h-5ZM18,19h6v1h-6ZM0,20h7v1h-7ZM17,20h7v1h-7ZM0,21h9v1h-9ZM16,21h8v1h-8ZM0,22h11v1h-11ZM15,22h9v1h-9ZM0,23h13v1h-13ZM14,23h10v1h-10Z"/><path fill="rgba(128,0,128,255)" d="M11,0h2v1h-2ZM10,1h1v1h-1ZM12,1h2v1h-2ZM9,2h1v1h-1ZM11,2h5v1h-5ZM8,3h1v1h-1ZM10,3h8v1h-8ZM7,4h1v1h-1ZM9,4h4v1h-4ZM17,4h3v1h-3ZM6,5h1v1h-1ZM8,5h4v1h-4ZM18,5h4v1h-4ZM5,6h1v1h-1ZM7,6h6v1h-6ZM14,6h2v1h-2ZM19,6h4v1h-4ZM4,7h1v1h-1ZM6,7h9v1h-9ZM19,7h3v1h-3ZM3,8h1v1h-1ZM5,8h7v1h-7ZM18,8h3v1h-3ZM2,9h1v1h-1ZM4,9h7v1h-7ZM16,9h4v1h-4ZM1,10h1v1h-1ZM3,10h9v1h-9ZM14,10h5v1h-5ZM0,11h1v5h-1ZM4,11h5v1h-5ZM12,11h6v1h-6ZM6,12h3v1h-3ZM12,12h5v1h-5ZM8,13h8v1h-8ZM22,13h1v1h-1ZM10,14h5v1h-5ZM21,14h1v1h-1ZM12,15h2v1h-2ZM20,15h1v1h-1ZM0,16h3v1h-3ZM19,16h1v1h-1ZM3,17h2v1h-2ZM18,17h1v1h-1ZM5,18h2v1h-2ZM17,18h1v1h-1ZM7,19h2v1h-2ZM16,19h1v1h-1ZM9,20h2v1h-2ZM15,20h1v1h-1ZM11,21h2v1h-2ZM14,21h1v1h-1ZM13,22h1v1h-1Z"/><path fill="rgba(0,0,0,255)" d="M13,0h1v1h-1ZM14,1h2v1h-2ZM16,2h2v1h-2ZM18,3h2v1h-2ZM20,4h2v1h-2ZM22,5h2v1h-2ZM23,6h1v1h-1ZM22,7h1v1h-1ZM21,8h2v1h-2ZM20,9h1v1h-1ZM22,9h1v3h-1ZM19,10h1v1h-1ZM1,11h3v1h-3ZM18,11h1v1h-1ZM1,12h1v4h-1ZM4,12h2v1h-2ZM17,12h1v1h-1ZM22,12h2v1h-2ZM6,13h2v1h-2ZM16,13h1v1h-1ZM23,13h1v1h-1ZM8,14h2v1h-2ZM15,14h1v1h-1ZM22,14h1v1h-1ZM10,15h2v1h-2ZM14,15h1v1h-1ZM21,15h1v1h-1ZM12,16h2v1h-2ZM20,16h1v1h-1ZM1,17h2v1h-2ZM19,17h1v1h-1ZM3,18h2v1h-2ZM18,18h1v1h-1ZM5,19h2v1h-2ZM17,19h1v1h-1ZM7,20h2v1h-2ZM16,20h1v1h-1ZM9,21h2v1h-2ZM15,21h1v1h-1ZM11,22h2v1h-2ZM14,22h1v1h-1ZM13,23h1v1h-1Z"/><path fill="rgba(128,128,128,255)" d="M11,1h1v1h-1ZM10,2h1v1h-1ZM9,3h1v1h-1ZM8,4h1v1h-1ZM7,5h1v1h-1ZM6,6h1v1h-1ZM5,7h1v1h-1ZM4,8h1v1h-1ZM3,9h1v1h-1ZM21,9h1v1h-1ZM2,10h1v1h-1ZM20,10h1v1h-1ZM19,11h1v1h-1ZM2,12h2v1h-2ZM18,12h1v1h-1ZM4,13h2v1h-2ZM17,13h1v1h-1ZM21,13h1v1h-1ZM6,14h2v1h-2ZM16,14h1v1h-1ZM20,14h1v1h-1ZM8,15h2v1h-2ZM15,15h1v1h-1ZM19,15h1v1h-1ZM3,16h2v1h-2ZM10,16h2v1h-2ZM14,16h1v1h-1ZM18,16h1v1h-1ZM5,17h2v1h-2ZM12,17h2v1h-2ZM17,17h1v1h-1ZM7,18h2v1h-2ZM16,18h1v1h-1ZM9,19h2v1h-2ZM15,19h1v1h-1ZM11,20h2v1h-2ZM14,20h1v1h-1ZM13,21h1v1h-1Z"/><path fill="rgba(128,128,0,255)" d="M13,4h1v1h-1ZM16,4h1v1h-1ZM13,6h1v1h-1ZM18,6h1v2h-1ZM15,7h1v1h-1ZM12,8h1v1h-1ZM17,8h1v1h-1ZM11,9h1v1h-1ZM14,9h2v1h-2ZM12,10h2v1h-2ZM9,11h1v2h-1ZM11,11h1v2h-1Z"/><path fill="rgba(255,255,0,255)" d="M14,4h2v1h-2ZM12,5h6v1h-6ZM16,6h2v2h-2ZM13,8h4v1h-4ZM12,9h2v1h-2ZM10,11h1v2h-1Z"/><path fill="rgba(192,192,192,255)" d="M21,10h1v1h-1ZM20,11h2v1h-2ZM19,12h3v1h-3ZM2,13h2v1h-2ZM18,13h3v1h-3ZM2,14h1v2h-1ZM17,14h3v1h-3ZM16,15h3v1h-3ZM15,16h3v1h-3ZM14,17h3v1h-3ZM14,18h2v1h-2ZM14,19h1v1h-1Z"/><path fill="rgba(255,255,255,255)" d="M3,14h3v1h-3ZM3,15h5v1h-5ZM5,16h5v1h-5ZM7,17h5v1h-5ZM9,18h5v1h-5ZM11,19h3v1h-3ZM13,20h1v1h-1Z"/></g></svg>