<svg version="1.1" xmlns="http://www.w3.org/2000/svg" xmlns:xlink="http://www.w3.org/1999/xlink" shape-rendering="crispEdges" width="16" height="16" viewBox="0 0 16 16"><g><path fill="rgba(0,0,0,0)" d="M0,0h16v1h-16ZM0,1h1v15h-1ZM14,1h2v15h-2Z"/><path fill="rgba(128,128,128,255)" d="M1,1h10v1h-10ZM1,2h1v13h-1ZM11,2h1v1h-1ZM12,3h1v1h-1ZM10,6h1v1h-1ZM6,8h1v1h-1ZM4,9h1v1h-1Z"/><path fill="rgba(255,255,255,0)" d="M11,1h3v1h-3ZM12,2h2v1h-2ZM13,3h1v1h-1Z"/><path fill="rgba(255,255,255,255)" d="M2,2h2v1h-2ZM5,2h3v1h-3ZM9,2h1v1h-1ZM3,3h3v1h-3ZM7,3h3v1h-3ZM11,3h1v1h-1ZM2,4h2v1h-2ZM3,5h1v1h-1ZM6,5h1v1h-1ZM11,5h1v7h-1ZM2,6h2v1h-2ZM5,6h1v2h-1ZM3,7h1v1h-1ZM2,8h2v1h-2ZM3,9h1v1h-1ZM2,10h2v1h-2ZM3,11h2v1h-2ZM2,12h2v1h-2ZM5,12h3v1h-3ZM9,12h3v1h-3ZM3,13h3v1h-3ZM7,13h3v1h-3ZM11,13h1v1h-1Z"/><path fill="rgba(255,255,0,255)" d="M4,2h1v1h-1ZM8,2h1v1h-1ZM2,3h1v1h-1ZM6,3h1v1h-1ZM4,4h1v1h-1ZM2,5h1v1h-1ZM2,7h1v1h-1ZM2,9h1v1h-1ZM2,11h1v1h-1ZM10,11h1v1h-1ZM4,12h1v1h-1ZM8,12h1v1h-1ZM2,13h1v1h-1ZM6,13h1v1h-1ZM10,13h1v1h-1Z"/><path fill="rgba(192,192,192,255)" d="M10,2h1v2h-1ZM5,4h1v1h-1ZM9,4h1v1h-1ZM4,5h1v1h-1ZM10,5h1v1h-1ZM12,5h1v9h-1ZM6,6h1v2h-1ZM5,8h1v1h-1ZM4,10h1v1h-1ZM10,10h1v1h-1ZM5,11h1v1h-1ZM9,11h1v1h-1ZM2,14h11v1h-11Z"/><path fill="rgba(0,128,128,255)" d="M6,4h3v1h-3ZM5,5h1v1h-1ZM7,5h1v1h-1ZM9,5h1v1h-1ZM4,6h1v3h-1ZM8,6h1v1h-1ZM8,8h1v1h-1Z"/><path fill="rgba(0,0,0,255)" d="M10,4h4v1h-4ZM13,5h1v10h-1ZM9,10h1v1h-1ZM6,11h3v1h-3ZM1,15h13v1h-13Z"/><path fill="rgba(0,128,0,255)" d="M8,5h1v1h-1ZM9,6h1v1h-1ZM7,7h1v3h-1Z"/><path fill="rgba(0,0,255,255)" d="M7,6h1v1h-1ZM9,7h1v2h-1ZM5,9h2v1h-2ZM8,9h1v1h-1ZM6,10h1v1h-1Z"/><path fill="rgba(0,0,128,255)" d="M8,7h1v1h-1ZM10,7h1v2h-1ZM9,9h2v1h-2ZM5,10h1v1h-1ZM7,10h2v1h-2Z"/></g></svg>