<svg version="1.1" xmlns="http://www.w3.org/2000/svg" xmlns:xlink="http://www.w3.org/1999/xlink" shape-rendering="crispEdges" width="48" height="38" viewBox="0 0 48 38"><g><path fill="rgba(0,0,0,0)" d="M0,0h48v5h-48ZM0,5h13v29h-13ZM37,5h11v29h-11ZM0,34h48v4h-48Z"/><path fill="rgba(255,255,255,0)" d="M13,5h9v1h-9ZM23,5h14v4h-14ZM13,6h8v1h-8ZM13,7h7v1h-7ZM13,8h6v1h-6ZM13,9h5v1h-5ZM31,9h6v5h-6ZM13,10h4v1h-4ZM13,11h3v1h-3ZM13,12h4v1h-4ZM13,13h5v1h-5ZM13,14h6v1h-6ZM23,14h14v4h-14ZM13,15h7v1h-7ZM13,16h8v1h-8ZM13,17h9v1h-9ZM13,18h24v7h-24ZM17,25h15v1h-15ZM33,25h4v3h-4ZM14,26h3v3h-3ZM18,26h14v2h-14ZM18,28h3v1h-3ZM24,28h3v1h-3ZM30,28h2v1h-2ZM33,28h2v1h-2ZM36,28h1v1h-1ZM17,29h7v1h-7ZM25,29h1v4h-1ZM27,29h3v1h-3ZM31,29h1v1h-1ZM33,29h1v1h-1ZM35,29h2v1h-2ZM14,30h3v3h-3ZM18,30h3v1h-3ZM27,30h5v2h-5ZM34,30h3v1h-3ZM18,31h2v2h-2ZM21,31h3v2h-3ZM33,31h1v1h-1ZM35,31h2v1h-2ZM27,32h3v1h-3ZM31,32h1v1h-1ZM33,32h2v1h-2ZM36,32h1v1h-1ZM17,33h4v1h-4ZM25,33h2v1h-2ZM30,33h2v1h-2ZM33,33h3v1h-3Z"/><path fill="rgba(0,0,0,255)" d="M22,5h1v1h-1ZM21,6h2v1h-2ZM20,7h1v1h-1ZM22,7h1v2h-1ZM19,8h1v1h-1ZM18,9h1v1h-1ZM22,9h9v1h-9ZM17,10h1v1h-1ZM30,10h1v3h-1ZM16,11h1v1h-1ZM17,12h1v1h-1ZM18,13h1v1h-1ZM22,13h9v1h-9ZM19,14h1v1h-1ZM22,14h1v2h-1ZM20,15h1v1h-1ZM21,16h2v1h-2ZM22,17h1v1h-1ZM13,25h4v1h-4ZM32,25h1v5h-1ZM13,26h1v3h-1ZM17,26h1v3h-1ZM21,28h3v1h-3ZM27,28h3v1h-3ZM35,28h1v1h-1ZM13,29h4v1h-4ZM24,29h1v1h-1ZM26,29h1v4h-1ZM30,29h1v1h-1ZM34,29h1v1h-1ZM13,30h1v3h-1ZM17,30h1v3h-1ZM21,30h4v1h-4ZM32,30h2v1h-2ZM20,31h1v2h-1ZM24,31h1v2h-1ZM32,31h1v3h-1ZM34,31h1v1h-1ZM30,32h1v1h-1ZM35,32h1v1h-1ZM13,33h4v1h-4ZM21,33h4v1h-4ZM27,33h3v1h-3ZM36,33h1v1h-1Z"/><path fill="rgba(255,255,255,255)" d="M21,7h1v1h-1ZM20,8h2v1h-2ZM19,9h3v1h-3ZM18,10h12v1h-12ZM17,11h13v1h-13ZM18,12h12v1h-12ZM19,13h3v1h-3ZM20,14h2v1h-2ZM21,15h1v1h-1Z"/></g></svg>