<svg version="1.1" xmlns="http://www.w3.org/2000/svg" xmlns:xlink="http://www.w3.org/1999/xlink" shape-rendering="crispEdges" width="48" height="38" viewBox="0 0 48 38"><g><path fill="rgba(0,0,0,0)" d="M0,0h48v4h-48ZM0,4h4v30h-4ZM46,4h2v30h-2ZM0,34h48v4h-48Z"/><path fill="rgba(255,255,255,0)" d="M4,4h8v1h-8ZM19,4h27v1h-27ZM4,5h7v1h-7ZM20,5h26v1h-26ZM4,6h6v1h-6ZM21,6h25v1h-25ZM4,7h5v14h-5ZM29,7h17v5h-17ZM29,12h3v1h-3ZM39,12h7v1h-7ZM29,13h4v1h-4ZM38,13h8v1h-8ZM29,14h5v1h-5ZM37,14h9v1h-9ZM29,15h6v1h-6ZM36,15h10v1h-10ZM29,16h17v5h-17ZM4,21h42v4h-42ZM9,25h22v1h-22ZM32,25h14v1h-14ZM5,26h28v2h-28ZM34,26h12v2h-12ZM5,28h6v1h-6ZM14,28h2v1h-2ZM17,28h3v2h-3ZM21,28h2v1h-2ZM26,28h2v1h-2ZM30,28h1v1h-1ZM32,28h1v5h-1ZM35,28h2v1h-2ZM40,28h3v1h-3ZM45,28h1v1h-1ZM8,29h6v1h-6ZM15,29h1v1h-1ZM21,29h1v1h-1ZM23,29h3v4h-3ZM27,29h1v4h-1ZM29,29h2v5h-2ZM34,29h2v4h-2ZM37,29h3v1h-3ZM41,29h1v1h-1ZM43,29h2v1h-2ZM5,30h6v1h-6ZM15,30h2v2h-2ZM18,30h1v2h-1ZM20,30h2v2h-2ZM41,30h2v1h-2ZM44,30h2v1h-2ZM5,31h5v2h-5ZM11,31h3v2h-3ZM37,31h7v1h-7ZM45,31h1v1h-1ZM15,32h3v2h-3ZM19,32h3v1h-3ZM37,32h3v1h-3ZM41,32h1v1h-1ZM43,32h2v1h-2ZM5,33h6v1h-6ZM19,33h4v1h-4ZM26,33h2v1h-2ZM32,33h2v1h-2ZM35,33h2v1h-2ZM40,33h3v1h-3ZM45,33h1v1h-1Z"/><path fill="rgba(0,0,0,255)" d="M12,4h7v1h-7ZM11,5h1v1h-1ZM19,5h1v1h-1ZM10,6h1v1h-1ZM20,6h1v1h-1ZM9,7h20v1h-20ZM9,8h1v12h-1ZM28,8h1v12h-1ZM18,10h1v2h-1ZM16,11h1v1h-1ZM20,11h1v1h-1ZM17,12h3v1h-3ZM32,12h7v1h-7ZM15,13h3v1h-3ZM19,13h3v1h-3ZM33,13h5v1h-5ZM17,14h3v1h-3ZM34,14h3v1h-3ZM16,15h1v1h-1ZM18,15h1v2h-1ZM20,15h1v1h-1ZM35,15h1v1h-1ZM9,20h20v1h-20ZM4,25h5v1h-5ZM31,25h1v1h-1ZM4,26h1v3h-1ZM33,26h1v2h-1ZM11,28h3v1h-3ZM16,28h1v2h-1ZM20,28h1v2h-1ZM23,28h3v1h-3ZM28,28h2v1h-2ZM31,28h1v6h-1ZM33,28h2v1h-2ZM37,28h3v1h-3ZM43,28h2v1h-2ZM4,29h4v1h-4ZM14,29h1v1h-1ZM22,29h1v4h-1ZM26,29h1v4h-1ZM28,29h1v5h-1ZM33,29h1v4h-1ZM36,29h1v1h-1ZM40,29h1v1h-1ZM42,29h1v1h-1ZM45,29h1v1h-1ZM4,30h1v4h-1ZM11,30h4v1h-4ZM17,30h1v2h-1ZM19,30h1v2h-1ZM36,30h5v1h-5ZM43,30h1v1h-1ZM10,31h1v2h-1ZM14,31h1v2h-1ZM36,31h1v2h-1ZM44,31h1v1h-1ZM18,32h1v2h-1ZM40,32h1v1h-1ZM42,32h1v1h-1ZM45,32h1v1h-1ZM11,33h4v1h-4ZM23,33h3v1h-3ZM34,33h1v1h-1ZM37,33h3v1h-3ZM43,33h2v1h-2Z"/><path fill="rgba(255,255,255,255)" d="M12,5h7v1h-7ZM11,6h9v1h-9ZM10,8h18v2h-18ZM10,10h8v1h-8ZM19,10h9v1h-9ZM10,11h6v1h-6ZM17,11h1v1h-1ZM19,11h1v1h-1ZM21,11h7v1h-7ZM10,12h7v1h-7ZM20,12h8v1h-8ZM10,13h5v1h-5ZM18,13h1v1h-1ZM22,13h6v1h-6ZM10,14h7v1h-7ZM20,14h8v1h-8ZM10,15h6v1h-6ZM17,15h1v1h-1ZM19,15h1v1h-1ZM21,15h7v1h-7ZM10,16h8v1h-8ZM19,16h9v1h-9ZM10,17h18v3h-18Z"/></g></svg>