<svg version="1.1" xmlns="http://www.w3.org/2000/svg" xmlns:xlink="http://www.w3.org/1999/xlink" shape-rendering="crispEdges" width="48" height="38" viewBox="0 0 48 38"><g><path fill="rgba(0,0,0,0)" d="M0,0h1v34h-1ZM0,34h48v4h-48Z"/><path fill="rgba(255,255,255,0)" d="M1,0h47v4h-47ZM1,4h11v1h-11ZM19,4h29v1h-29ZM1,5h10v1h-10ZM20,5h28v1h-28ZM1,6h9v1h-9ZM21,6h27v1h-27ZM1,7h8v14h-8ZM29,7h19v5h-19ZM29,12h3v1h-3ZM39,12h9v1h-9ZM29,13h4v1h-4ZM38,13h10v1h-10ZM29,14h5v1h-5ZM37,14h11v1h-11ZM29,15h6v1h-6ZM36,15h12v1h-12ZM29,16h19v5h-19ZM1,21h47v4h-47ZM1,25h3v9h-3ZM9,25h22v1h-22ZM32,25h16v1h-16ZM5,26h28v2h-28ZM34,26h14v2h-14ZM5,28h6v1h-6ZM14,28h2v1h-2ZM17,28h3v2h-3ZM21,28h2v1h-2ZM26,28h2v1h-2ZM30,28h1v2h-1ZM32,28h1v5h-1ZM35,28h2v1h-2ZM40,28h3v1h-3ZM45,28h3v1h-3ZM8,29h6v1h-6ZM15,29h1v1h-1ZM21,29h1v1h-1ZM23,29h3v4h-3ZM27,29h1v4h-1ZM34,29h2v4h-2ZM37,29h3v1h-3ZM41,29h1v1h-1ZM43,29h2v1h-2ZM46,29h2v1h-2ZM5,30h6v1h-6ZM15,30h2v2h-2ZM18,30h1v2h-1ZM20,30h2v2h-2ZM29,30h2v4h-2ZM41,30h2v1h-2ZM44,30h4v1h-4ZM5,31h5v2h-5ZM11,31h3v2h-3ZM37,31h7v1h-7ZM45,31h3v1h-3ZM15,32h3v2h-3ZM19,32h3v1h-3ZM37,32h3v1h-3ZM41,32h1v1h-1ZM43,32h2v1h-2ZM46,32h2v1h-2ZM5,33h6v1h-6ZM19,33h4v1h-4ZM26,33h2v1h-2ZM32,33h2v1h-2ZM35,33h2v1h-2ZM40,33h3v1h-3ZM45,33h3v1h-3Z"/><path fill="rgba(0,0,0,255)" d="M12,4h7v1h-7ZM11,5h1v1h-1ZM19,5h1v1h-1ZM10,6h1v1h-1ZM20,6h1v1h-1ZM9,7h20v1h-20ZM9,8h1v12h-1ZM28,8h1v12h-1ZM32,12h7v1h-7ZM33,13h5v1h-5ZM34,14h3v1h-3ZM35,15h1v1h-1ZM9,20h20v1h-20ZM4,25h5v1h-5ZM31,25h1v1h-1ZM4,26h1v3h-1ZM33,26h1v2h-1ZM11,28h3v1h-3ZM16,28h1v2h-1ZM20,28h1v2h-1ZM23,28h3v1h-3ZM28,28h2v1h-2ZM31,28h1v6h-1ZM33,28h2v1h-2ZM37,28h3v1h-3ZM43,28h2v1h-2ZM4,29h4v1h-4ZM14,29h1v1h-1ZM22,29h1v4h-1ZM26,29h1v4h-1ZM28,29h1v5h-1ZM33,29h1v4h-1ZM36,29h1v1h-1ZM40,29h1v1h-1ZM42,29h1v1h-1ZM45,29h1v1h-1ZM4,30h1v4h-1ZM11,30h4v1h-4ZM17,30h1v2h-1ZM19,30h1v2h-1ZM36,30h5v1h-5ZM43,30h1v1h-1ZM10,31h1v2h-1ZM14,31h1v2h-1ZM36,31h1v2h-1ZM44,31h1v1h-1ZM18,32h1v2h-1ZM40,32h1v1h-1ZM42,32h1v1h-1ZM45,32h1v1h-1ZM11,33h4v1h-4ZM23,33h3v1h-3ZM34,33h1v1h-1ZM37,33h3v1h-3ZM43,33h2v1h-2Z"/><path fill="rgba(255,255,0,255)" d="M12,5h1v1h-1ZM14,5h1v1h-1ZM16,5h1v1h-1ZM18,5h1v1h-1ZM11,6h1v1h-1ZM13,6h1v1h-1ZM15,6h1v1h-1ZM17,6h1v1h-1ZM19,6h1v1h-1ZM11,8h1v1h-1ZM13,8h1v1h-1ZM15,8h1v1h-1ZM17,8h1v1h-1ZM19,8h1v1h-1ZM21,8h1v1h-1ZM23,8h1v1h-1ZM25,8h1v1h-1ZM27,8h1v1h-1ZM10,9h1v1h-1ZM12,9h1v1h-1ZM14,9h1v1h-1ZM16,9h1v1h-1ZM18,9h1v1h-1ZM20,9h1v1h-1ZM22,9h1v1h-1ZM24,9h1v1h-1ZM26,9h1v1h-1ZM11,10h1v1h-1ZM13,10h1v1h-1ZM15,10h1v1h-1ZM17,10h1v1h-1ZM19,10h1v1h-1ZM21,10h1v1h-1ZM23,10h1v1h-1ZM25,10h1v1h-1ZM27,10h1v1h-1ZM10,11h1v1h-1ZM12,11h1v1h-1ZM14,11h1v1h-1ZM22,11h1v1h-1ZM24,11h1v1h-1ZM26,11h1v1h-1ZM11,12h1v1h-1ZM13,12h1v1h-1ZM15,12h1v1h-1ZM21,12h1v1h-1ZM23,12h1v1h-1ZM25,12h1v1h-1ZM27,12h1v1h-1ZM10,13h1v1h-1ZM12,13h1v1h-1ZM14,13h1v1h-1ZM18,13h1v1h-1ZM22,13h1v1h-1ZM24,13h1v1h-1ZM26,13h1v1h-1ZM11,14h1v1h-1ZM13,14h1v1h-1ZM15,14h1v1h-1ZM21,14h1v1h-1ZM23,14h1v1h-1ZM25,14h1v1h-1ZM27,14h1v1h-1ZM10,15h1v1h-1ZM12,15h1v1h-1ZM14,15h1v1h-1ZM22,15h1v1h-1ZM24,15h1v1h-1ZM26,15h1v1h-1ZM11,16h1v1h-1ZM13,16h1v1h-1ZM15,16h1v1h-1ZM17,16h1v1h-1ZM19,16h1v1h-1ZM21,16h1v1h-1ZM23,16h1v1h-1ZM25,16h1v1h-1ZM27,16h1v1h-1ZM10,17h1v1h-1ZM12,17h1v1h-1ZM14,17h1v1h-1ZM16,17h1v1h-1ZM18,17h1v1h-1ZM20,17h1v1h-1ZM22,17h1v1h-1ZM24,17h1v1h-1ZM26,17h1v1h-1ZM11,18h1v1h-1ZM13,18h1v1h-1ZM15,18h1v1h-1ZM17,18h1v1h-1ZM19,18h1v1h-1ZM21,18h1v1h-1ZM23,18h1v1h-1ZM25,18h1v1h-1ZM27,18h1v1h-1ZM10,19h1v1h-1ZM12,19h1v1h-1ZM14,19h1v1h-1ZM16,19h1v1h-1ZM18,19h1v1h-1ZM20,19h1v1h-1ZM22,19h1v1h-1ZM24,19h1v1h-1ZM26,19h1v1h-1Z"/><path fill="rgba(192,192,192,255)" d="M13,5h1v1h-1ZM15,5h1v1h-1ZM17,5h1v1h-1ZM12,6h1v1h-1ZM14,6h1v1h-1ZM16,6h1v1h-1ZM18,6h1v1h-1ZM10,8h1v1h-1ZM12,8h1v1h-1ZM14,8h1v1h-1ZM16,8h1v1h-1ZM18,8h1v1h-1ZM20,8h1v1h-1ZM22,8h1v1h-1ZM24,8h1v1h-1ZM26,8h1v1h-1ZM11,9h1v1h-1ZM13,9h1v1h-1ZM15,9h1v1h-1ZM17,9h1v1h-1ZM19,9h1v1h-1ZM21,9h1v1h-1ZM23,9h1v1h-1ZM25,9h1v1h-1ZM27,9h1v1h-1ZM10,10h1v1h-1ZM12,10h1v1h-1ZM14,10h1v1h-1ZM16,10h1v1h-1ZM20,10h1v1h-1ZM22,10h1v1h-1ZM24,10h1v1h-1ZM26,10h1v1h-1ZM11,11h1v1h-1ZM13,11h1v1h-1ZM15,11h1v1h-1ZM17,11h1v1h-1ZM19,11h1v1h-1ZM21,11h1v1h-1ZM23,11h1v1h-1ZM25,11h1v1h-1ZM27,11h1v1h-1ZM10,12h1v1h-1ZM12,12h1v1h-1ZM14,12h1v1h-1ZM16,12h1v1h-1ZM20,12h1v1h-1ZM22,12h1v1h-1ZM24,12h1v1h-1ZM26,12h1v1h-1ZM11,13h1v1h-1ZM13,13h1v1h-1ZM23,13h1v1h-1ZM25,13h1v1h-1ZM27,13h1v1h-1ZM10,14h1v1h-1ZM12,14h1v1h-1ZM14,14h1v1h-1ZM16,14h1v1h-1ZM20,14h1v1h-1ZM22,14h1v1h-1ZM24,14h1v1h-1ZM26,14h1v1h-1ZM11,15h1v1h-1ZM13,15h1v1h-1ZM15,15h1v1h-1ZM17,15h1v1h-1ZM19,15h1v1h-1ZM21,15h1v1h-1ZM23,15h1v1h-1ZM25,15h1v1h-1ZM27,15h1v1h-1ZM10,16h1v1h-1ZM12,16h1v1h-1ZM14,16h1v1h-1ZM16,16h1v1h-1ZM20,16h1v1h-1ZM22,16h1v1h-1ZM24,16h1v1h-1ZM26,16h1v1h-1ZM11,17h1v1h-1ZM13,17h1v1h-1ZM15,17h1v1h-1ZM17,17h1v1h-1ZM19,17h1v1h-1ZM21,17h1v1h-1ZM23,17h1v1h-1ZM25,17h1v1h-1ZM27,17h1v1h-1ZM10,18h1v1h-1ZM12,18h1v1h-1ZM14,18h1v1h-1ZM16,18h1v1h-1ZM18,18h1v1h-1ZM20,18h1v1h-1ZM22,18h1v1h-1ZM24,18h1v1h-1ZM26,18h1v1h-1ZM11,19h1v1h-1ZM13,19h1v1h-1ZM15,19h1v1h-1ZM17,19h1v1h-1ZM19,19h1v1h-1ZM21,19h1v1h-1ZM23,19h1v1h-1ZM25,19h1v1h-1ZM27,19h1v1h-1ZM29,29h1v1h-1Z"/><path fill="rgba(0,0,255,255)" d="M18,10h1v2h-1ZM16,11h1v1h-1ZM20,11h1v1h-1ZM17,12h3v1h-3ZM15,13h3v1h-3ZM19,13h3v1h-3ZM17,14h3v1h-3ZM16,15h1v1h-1ZM18,15h1v2h-1ZM20,15h1v1h-1Z"/></g></svg>