<svg version="1.1" xmlns="http://www.w3.org/2000/svg" xmlns:xlink="http://www.w3.org/1999/xlink" shape-rendering="crispEdges" width="48" height="38" viewBox="0 0 48 38"><g><path fill="rgba(0,0,0,0)" d="M0,0h48v5h-48ZM0,5h7v29h-7ZM44,5h4v29h-4ZM0,34h48v4h-48Z"/><path fill="rgba(255,255,255,0)" d="M7,5h17v4h-17ZM25,5h19v1h-19ZM26,6h18v1h-18ZM27,7h17v1h-17ZM28,8h16v1h-16ZM7,9h9v5h-9ZM29,9h15v1h-15ZM30,10h14v1h-14ZM31,11h13v1h-13ZM30,12h14v1h-14ZM29,13h15v1h-15ZM7,14h17v4h-17ZM28,14h16v1h-16ZM27,15h17v1h-17ZM26,16h18v1h-18ZM25,17h19v1h-19ZM7,18h37v7h-37ZM12,25h31v1h-31ZM8,26h35v2h-35ZM8,28h6v1h-6ZM17,28h2v1h-2ZM21,28h1v1h-1ZM23,28h2v2h-2ZM26,28h2v2h-2ZM29,28h2v1h-2ZM34,28h2v1h-2ZM38,28h2v1h-2ZM11,29h2v1h-2ZM14,29h3v4h-3ZM18,29h1v4h-1ZM20,29h2v3h-2ZM29,29h5v1h-5ZM35,29h1v5h-1ZM37,29h2v4h-2ZM40,29h3v4h-3ZM8,30h5v3h-5ZM23,30h1v2h-1ZM25,30h1v2h-1ZM27,30h1v2h-1ZM29,30h2v1h-2ZM29,31h1v1h-1ZM31,31h3v2h-3ZM20,32h3v2h-3ZM24,32h3v2h-3ZM28,32h2v1h-2ZM8,33h6v1h-6ZM17,33h2v1h-2ZM28,33h3v1h-3ZM37,33h3v1h-3Z"/><path fill="rgba(0,0,0,255)" d="M24,5h1v1h-1ZM24,6h2v1h-2ZM24,7h1v2h-1ZM26,7h1v1h-1ZM27,8h1v1h-1ZM16,9h9v1h-9ZM28,9h1v1h-1ZM16,10h1v3h-1ZM29,10h1v1h-1ZM30,11h1v1h-1ZM29,12h1v1h-1ZM16,13h9v1h-9ZM28,13h1v1h-1ZM24,14h1v2h-1ZM27,14h1v1h-1ZM26,15h1v1h-1ZM24,16h2v1h-2ZM24,17h1v1h-1ZM7,25h5v1h-5ZM43,25h1v3h-1ZM7,26h1v3h-1ZM14,28h3v1h-3ZM19,28h2v1h-2ZM22,28h1v4h-1ZM25,28h1v2h-1ZM28,28h1v4h-1ZM31,28h3v1h-3ZM36,28h2v1h-2ZM40,28h4v1h-4ZM7,29h4v1h-4ZM13,29h1v4h-1ZM17,29h1v4h-1ZM19,29h1v5h-1ZM34,29h1v1h-1ZM36,29h1v5h-1ZM39,29h1v4h-1ZM43,29h1v4h-1ZM7,30h1v4h-1ZM24,30h1v2h-1ZM26,30h1v2h-1ZM31,30h4v1h-4ZM30,31h1v2h-1ZM34,31h1v2h-1ZM23,32h1v2h-1ZM27,32h1v2h-1ZM14,33h3v1h-3ZM31,33h4v1h-4ZM40,33h4v1h-4Z"/><path fill="rgba(255,255,255,255)" d="M25,7h1v1h-1ZM25,8h2v1h-2ZM25,9h3v1h-3ZM17,10h12v1h-12ZM17,11h13v1h-13ZM17,12h12v1h-12ZM25,13h3v1h-3ZM25,14h2v1h-2ZM25,15h1v1h-1Z"/></g></svg>