<svg version="1.1" xmlns="http://www.w3.org/2000/svg" xmlns:xlink="http://www.w3.org/1999/xlink" shape-rendering="crispEdges" width="48" height="38" viewBox="0 0 48 38"><g><path fill="rgba(0,0,0,0)" d="M0,0h48v2h-48ZM0,2h12v32h-12ZM39,2h9v32h-9ZM0,34h48v4h-48Z"/><path fill="rgba(255,255,255,0)" d="M12,2h11v1h-11ZM24,2h3v1h-3ZM30,2h9v7h-9ZM12,3h10v1h-10ZM25,3h2v1h-2ZM12,4h9v1h-9ZM26,4h1v1h-1ZM12,5h8v1h-8ZM12,6h7v1h-7ZM12,7h6v1h-6ZM12,8h5v1h-5ZM12,9h4v1h-4ZM31,9h8v1h-8ZM12,10h3v1h-3ZM32,10h7v1h-7ZM12,11h2v2h-2ZM33,11h6v2h-6ZM12,13h3v9h-3ZM32,13h7v9h-7ZM12,22h27v3h-27ZM13,25h4v4h-4ZM18,25h21v3h-21ZM18,28h3v1h-3ZM24,28h2v1h-2ZM29,28h1v1h-1ZM32,28h3v1h-3ZM38,28h1v1h-1ZM18,29h2v4h-2ZM21,29h3v4h-3ZM25,29h1v4h-1ZM27,29h2v5h-2ZM30,29h2v5h-2ZM33,29h1v4h-1ZM35,29h3v1h-3ZM13,30h4v4h-4ZM35,31h4v1h-4ZM35,32h3v1h-3ZM18,33h3v1h-3ZM24,33h2v1h-2ZM33,33h2v1h-2ZM38,33h1v1h-1Z"/><path fill="rgba(0,0,0,255)" d="M23,2h1v1h-1ZM27,2h3v1h-3ZM22,3h1v1h-1ZM24,3h1v1h-1ZM27,3h1v2h-1ZM29,3h1v4h-1ZM21,4h1v1h-1ZM25,4h1v1h-1ZM20,5h1v1h-1ZM23,5h1v1h-1ZM26,5h2v1h-2ZM19,6h1v1h-1ZM22,6h1v1h-1ZM24,6h1v1h-1ZM27,6h1v1h-1ZM18,7h1v1h-1ZM21,7h1v1h-1ZM25,7h1v1h-1ZM28,7h2v1h-2ZM17,8h1v1h-1ZM20,8h1v1h-1ZM26,8h1v1h-1ZM29,8h1v1h-1ZM16,9h1v1h-1ZM19,9h1v1h-1ZM27,9h1v1h-1ZM30,9h1v1h-1ZM15,10h1v1h-1ZM18,10h1v1h-1ZM28,10h1v1h-1ZM31,10h1v1h-1ZM14,11h1v1h-1ZM17,11h1v1h-1ZM29,11h1v1h-1ZM32,11h1v1h-1ZM14,12h3v1h-3ZM30,12h3v1h-3ZM15,13h1v8h-1ZM31,13h1v8h-1ZM21,15h5v1h-5ZM21,16h1v5h-1ZM25,16h1v5h-1ZM15,21h17v1h-17ZM12,25h1v4h-1ZM17,25h1v4h-1ZM21,28h3v1h-3ZM26,28h3v1h-3ZM30,28h2v1h-2ZM35,28h3v1h-3ZM12,29h6v1h-6ZM20,29h1v4h-1ZM24,29h1v4h-1ZM26,29h1v5h-1ZM29,29h1v5h-1ZM32,29h1v5h-1ZM34,29h1v1h-1ZM38,29h1v1h-1ZM12,30h1v4h-1ZM17,30h1v4h-1ZM34,30h5v1h-5ZM34,31h1v2h-1ZM38,32h1v1h-1ZM21,33h3v1h-3ZM35,33h3v1h-3Z"/><path fill="rgba(255,255,0,255)" d="M23,3h1v1h-1ZM22,4h3v1h-3ZM21,5h2v1h-2ZM24,5h2v1h-2ZM20,6h2v1h-2ZM25,6h2v1h-2ZM19,7h2v1h-2ZM26,7h2v1h-2ZM18,8h2v1h-2ZM27,8h2v1h-2ZM17,9h2v1h-2ZM28,9h2v1h-2ZM16,10h2v1h-2ZM29,10h2v1h-2ZM15,11h2v1h-2ZM30,11h2v1h-2ZM22,16h3v5h-3Z"/><path fill="rgba(255,0,0,255)" d="M28,3h1v4h-1Z"/><path fill="rgba(255,255,255,255)" d="M23,6h1v1h-1ZM22,7h3v1h-3ZM21,8h5v1h-5ZM20,9h7v1h-7ZM19,10h9v1h-9ZM18,11h11v1h-11ZM17,12h13v1h-13ZM16,13h15v2h-15ZM16,15h5v6h-5ZM26,15h5v6h-5Z"/></g></svg>