<svg version="1.1" xmlns="http://www.w3.org/2000/svg" xmlns:xlink="http://www.w3.org/1999/xlink" shape-rendering="crispEdges" width="38" height="40" viewBox="0 0 38 40"><g><path fill="rgba(0,0,0,255)" d="M0,0h38v4h-38ZM0,4h26v1h-26ZM32,4h6v1h-6ZM0,5h23v1h-23ZM33,5h5v1h-5ZM0,6h18v1h-18ZM19,6h2v1h-2ZM27,6h5v1h-5ZM34,6h4v3h-4ZM0,7h14v1h-14ZM25,7h8v1h-8ZM0,8h12v1h-12ZM27,8h6v1h-6ZM0,9h10v1h-10ZM28,9h5v1h-5ZM35,9h3v1h-3ZM0,10h9v1h-9ZM30,10h3v1h-3ZM34,10h4v4h-4ZM0,11h8v1h-8ZM31,11h1v2h-1ZM0,12h7v1h-7ZM13,12h1v1h-1ZM0,13h6v2h-6ZM11,13h2v1h-2ZM10,14h2v1h-2ZM18,14h3v1h-3ZM33,14h5v3h-5ZM0,15h5v4h-5ZM9,15h2v1h-2ZM16,15h6v1h-6ZM8,16h2v1h-2ZM16,16h7v1h-7ZM7,17h3v1h-3ZM16,17h1v1h-1ZM19,17h1v1h-1ZM21,17h1v1h-1ZM34,17h4v6h-4ZM6,18h3v1h-3ZM0,19h8v1h-8ZM0,20h7v2h-7ZM0,22h6v2h-6ZM16,23h22v1h-22ZM0,24h5v2h-5ZM16,24h7v1h-7ZM34,24h4v1h-4ZM17,25h5v1h-5ZM33,25h5v2h-5ZM0,26h4v3h-4ZM19,26h2v1h-2ZM32,27h6v1h-6ZM31,28h7v1h-7ZM0,29h3v4h-3ZM7,29h1v1h-1ZM30,29h8v1h-8ZM7,30h2v1h-2ZM29,30h9v1h-9ZM7,31h4v1h-4ZM28,31h10v1h-10ZM7,32h6v1h-6ZM26,32h12v1h-12ZM0,33h4v2h-4ZM9,33h2v1h-2ZM23,33h15v1h-15ZM14,34h24v1h-24ZM0,35h6v1h-6ZM12,35h26v1h-26ZM0,36h38v4h-38Z"/><path fill="rgba(0,48,48,255)" d="M26,4h1v1h-1ZM31,4h1v1h-1ZM26,6h1v1h-1ZM14,7h1v1h-1ZM26,8h1v1h-1ZM14,11h1v2h-1ZM12,12h1v1h-1ZM6,13h1v1h-1ZM33,13h1v1h-1ZM12,14h1v1h-1ZM17,14h1v1h-1ZM21,14h1v1h-1ZM32,14h1v1h-1ZM5,15h1v1h-1ZM8,15h1v1h-1ZM11,15h1v1h-1ZM7,16h1v1h-1ZM6,17h1v1h-1ZM33,18h1v1h-1ZM17,22h2v1h-2ZM20,22h3v1h-3ZM24,22h1v1h-1ZM26,22h1v1h-1ZM28,22h1v1h-1ZM30,22h1v1h-1ZM32,22h1v1h-1ZM22,25h1v1h-1ZM32,26h1v1h-1ZM7,28h1v1h-1ZM8,29h1v1h-1ZM3,30h1v2h-1Z"/><path fill="rgba(0,44,156,255)" d="M27,4h1v1h-1ZM15,7h1v1h-1ZM12,8h1v1h-1ZM5,24h1v1h-1ZM11,31h1v1h-1ZM9,35h1v1h-1Z"/><path fill="rgba(0,102,156,255)" d="M28,4h3v1h-3ZM24,5h1v1h-1ZM28,5h1v1h-1ZM31,5h1v1h-1ZM22,6h1v1h-1ZM16,7h1v1h-1ZM33,7h1v5h-1ZM25,8h1v1h-1ZM27,9h1v1h-1ZM9,10h1v1h-1ZM15,10h1v1h-1ZM8,11h1v1h-1ZM13,11h1v1h-1ZM10,13h1v1h-1ZM19,13h1v1h-1ZM6,14h1v1h-1ZM5,16h1v2h-1ZM23,16h1v1h-1ZM9,18h1v1h-1ZM7,21h1v1h-1ZM15,24h1v1h-1ZM23,24h1v1h-1ZM32,25h1v1h-1ZM4,27h1v1h-1ZM31,27h1v1h-1ZM6,30h1v2h-1ZM28,30h1v1h-1ZM24,32h1v1h-1ZM4,33h1v1h-1ZM7,33h1v1h-1ZM13,33h2v1h-2ZM18,33h3v1h-3ZM12,34h1v1h-1ZM7,35h2v1h-2Z"/><path fill="rgba(2,3,42,255)" d="M23,5h1v1h-1ZM18,6h1v1h-1ZM21,6h1v1h-1ZM34,9h1v1h-1ZM29,10h1v1h-1ZM15,11h1v1h-1ZM30,11h1v1h-1ZM32,11h1v1h-1ZM22,15h1v1h-1ZM10,16h1v1h-1ZM17,17h2v1h-2ZM20,17h1v1h-1ZM22,17h1v1h-1ZM33,17h1v1h-1ZM5,18h1v1h-1ZM7,20h1v1h-1ZM16,22h1v1h-1ZM19,22h1v1h-1ZM23,22h1v1h-1ZM25,22h1v1h-1ZM27,22h1v1h-1ZM29,22h1v1h-1ZM31,22h1v1h-1ZM33,22h1v1h-1ZM33,24h1v1h-1ZM18,26h1v1h-1ZM3,29h1v1h-1ZM9,30h1v1h-1ZM3,32h1v1h-1ZM8,33h1v1h-1ZM11,33h1v1h-1ZM4,34h1v1h-1ZM11,35h1v1h-1Z"/><path fill="rgba(0,154,207,255)" d="M25,5h1v1h-1ZM27,5h1v1h-1ZM18,7h1v1h-1ZM13,8h1v1h-1ZM24,8h1v1h-1ZM11,9h1v1h-1ZM17,10h1v1h-1ZM28,10h1v1h-1ZM16,11h1v1h-1ZM29,11h1v1h-1ZM11,12h1v1h-1ZM20,13h1v1h-1ZM13,14h1v1h-1ZM22,14h1v1h-1ZM31,14h1v1h-1ZM15,15h1v1h-1ZM32,16h1v1h-1ZM10,17h1v1h-1ZM6,23h1v1h-1ZM5,25h1v1h-1ZM22,26h1v1h-1ZM19,27h1v1h-1ZM4,28h1v1h-1ZM6,28h1v1h-1ZM29,29h1v1h-1ZM10,30h1v1h-1ZM12,31h1v1h-1ZM26,31h1v1h-1ZM6,32h1v1h-1ZM5,34h1v1h-1ZM9,34h3v1h-3Z"/><path fill="rgba(0,154,255,255)" d="M26,5h1v1h-1ZM23,6h2v1h-2ZM17,7h1v1h-1ZM19,7h5v1h-5ZM14,8h10v1h-10ZM12,9h15v1h-15ZM10,10h5v1h-5ZM18,10h10v1h-10ZM9,11h4v1h-4ZM17,11h12v1h-12ZM8,12h3v1h-3ZM15,12h15v1h-15ZM7,13h3v1h-3ZM14,13h4v1h-4ZM21,13h10v1h-10ZM7,14h2v1h-2ZM14,14h2v1h-2ZM23,14h8v1h-8ZM6,15h2v1h-2ZM12,15h3v1h-3ZM23,15h9v1h-9ZM6,16h1v1h-1ZM11,16h4v2h-4ZM24,16h8v1h-8ZM24,17h9v1h-9ZM10,18h23v1h-23ZM9,19h24v1h-24ZM8,20h25v2h-25ZM7,22h8v2h-8ZM6,24h9v1h-9ZM24,24h9v1h-9ZM6,25h10v1h-10ZM23,25h9v2h-9ZM5,26h12v1h-12ZM5,27h14v1h-14ZM20,27h11v1h-11ZM5,28h1v1h-1ZM8,28h22v1h-22ZM4,29h2v4h-2ZM9,29h20v1h-20ZM11,30h17v1h-17ZM13,31h13v1h-13ZM14,32h10v1h-10ZM5,33h2v1h-2ZM6,34h3v1h-3Z"/><path fill="rgba(0,48,104,255)" d="M29,5h1v1h-1ZM32,6h2v1h-2ZM24,7h1v1h-1ZM10,9h1v1h-1ZM16,10h1v1h-1ZM7,12h1v1h-1ZM13,13h1v1h-1ZM31,13h1v1h-1ZM32,15h1v1h-1ZM15,16h1v2h-1ZM8,19h1v1h-1ZM33,19h1v1h-1ZM33,21h1v1h-1ZM6,22h1v1h-1ZM15,22h1v2h-1ZM16,25h1v1h-1ZM4,26h1v1h-1ZM21,26h1v1h-1ZM27,31h1v1h-1ZM13,32h1v1h-1ZM25,32h1v1h-1ZM12,33h1v1h-1ZM15,33h2v1h-2ZM22,33h1v1h-1ZM13,34h1v1h-1ZM6,35h1v1h-1ZM10,35h1v1h-1Z"/><path fill="rgba(45,46,106,255)" d="M30,5h1v1h-1ZM33,12h1v1h-1ZM9,14h1v1h-1ZM23,17h1v1h-1ZM21,33h1v1h-1Z"/><path fill="rgba(48,48,157,255)" d="M32,5h1v1h-1ZM32,13h1v1h-1Z"/><path fill="rgba(0,99,211,255)" d="M25,6h1v1h-1ZM30,12h1v1h-1ZM18,13h1v1h-1ZM16,14h1v1h-1ZM30,28h1v1h-1ZM6,29h1v1h-1Z"/><path fill="rgba(0,102,102,255)" d="M32,12h1v1h-1ZM33,20h1v1h-1ZM17,26h1v1h-1ZM17,33h1v1h-1Z"/></g></svg>