<svg version="1.1" xmlns="http://www.w3.org/2000/svg" xmlns:xlink="http://www.w3.org/1999/xlink" shape-rendering="crispEdges" width="48" height="38" viewBox="0 0 48 38"><g><path fill="rgba(0,0,0,0)" d="M0,0h48v1h-48ZM0,1h2v37h-2Z"/><path fill="rgba(255,255,255,0)" d="M2,1h46v2h-46ZM2,3h14v19h-14ZM29,3h19v1h-19ZM30,4h18v1h-18ZM31,5h17v1h-17ZM32,6h16v1h-16ZM33,7h15v15h-15ZM2,22h46v3h-46ZM2,25h5v9h-5ZM12,25h10v1h-10ZM23,25h15v1h-15ZM39,25h9v3h-9ZM8,26h4v3h-4ZM13,26h8v2h-8ZM22,26h16v2h-16ZM13,28h3v1h-3ZM19,28h2v1h-2ZM23,28h1v1h-1ZM26,28h2v1h-2ZM31,28h3v1h-3ZM36,28h2v1h-2ZM39,28h1v1h-1ZM42,28h6v1h-6ZM12,29h3v1h-3ZM16,29h3v1h-3ZM20,29h1v2h-1ZM22,29h2v5h-2ZM25,29h2v4h-2ZM28,29h3v1h-3ZM32,29h1v1h-1ZM34,29h2v1h-2ZM37,29h1v1h-1ZM40,29h2v1h-2ZM43,29h5v5h-5ZM8,30h4v4h-4ZM13,30h2v3h-2ZM32,30h2v1h-2ZM35,30h3v1h-3ZM39,30h3v4h-3ZM16,31h5v1h-5ZM28,31h7v1h-7ZM36,31h2v1h-2ZM16,32h3v1h-3ZM20,32h1v1h-1ZM28,32h3v1h-3ZM32,32h1v1h-1ZM34,32h2v1h-2ZM37,32h1v1h-1ZM13,33h3v1h-3ZM19,33h2v1h-2ZM25,33h3v1h-3ZM31,33h3v1h-3ZM36,33h2v1h-2ZM2,34h46v4h-46Z"/><path fill="rgba(0,0,0,255)" d="M16,3h13v1h-13ZM16,4h1v17h-1ZM28,4h2v1h-2ZM28,5h1v2h-1ZM30,5h1v1h-1ZM31,6h1v1h-1ZM28,7h5v1h-5ZM32,8h1v13h-1ZM16,21h17v1h-17ZM7,25h5v1h-5ZM22,25h1v1h-1ZM38,25h1v4h-1ZM7,26h1v3h-1ZM12,26h1v3h-1ZM21,26h1v2h-1ZM16,28h3v1h-3ZM21,28h2v1h-2ZM24,28h2v1h-2ZM28,28h3v1h-3ZM34,28h2v1h-2ZM40,28h2v1h-2ZM7,29h5v1h-5ZM15,29h1v1h-1ZM19,29h1v1h-1ZM21,29h1v5h-1ZM24,29h1v5h-1ZM27,29h1v1h-1ZM31,29h1v1h-1ZM33,29h1v1h-1ZM36,29h1v1h-1ZM38,29h2v1h-2ZM42,29h1v5h-1ZM7,30h1v4h-1ZM12,30h1v4h-1ZM15,30h5v1h-5ZM27,30h5v1h-5ZM34,30h1v1h-1ZM38,30h1v4h-1ZM15,31h1v2h-1ZM27,31h1v2h-1ZM35,31h1v1h-1ZM19,32h1v1h-1ZM31,32h1v1h-1ZM33,32h1v1h-1ZM36,32h1v1h-1ZM16,33h3v1h-3ZM28,33h3v1h-3ZM34,33h2v1h-2Z"/><path fill="rgba(255,255,255,255)" d="M17,4h11v3h-11ZM29,5h1v1h-1ZM29,6h2v1h-2ZM17,7h7v2h-7ZM25,7h3v1h-3ZM26,8h6v1h-6ZM17,9h5v1h-5ZM27,9h5v1h-5ZM17,10h4v3h-4ZM22,10h2v2h-2ZM26,10h6v1h-6ZM25,11h7v1h-7ZM22,12h10v1h-10ZM17,13h10v1h-10ZM28,13h4v3h-4ZM17,14h7v1h-7ZM25,14h2v2h-2ZM17,15h6v1h-6ZM17,16h5v1h-5ZM27,16h5v1h-5ZM17,17h6v1h-6ZM25,17h7v2h-7ZM17,18h7v1h-7ZM17,19h15v2h-15Z"/><path fill="rgba(0,128,0,255)" d="M24,7h1v1h-1ZM24,8h2v1h-2ZM22,9h5v1h-5ZM21,10h1v3h-1ZM24,10h2v1h-2ZM24,11h1v1h-1ZM27,13h1v3h-1ZM24,14h1v1h-1ZM23,15h2v1h-2ZM22,16h5v1h-5ZM23,17h2v1h-2ZM24,18h1v1h-1Z"/></g></svg>