<svg version="1.1" xmlns="http://www.w3.org/2000/svg" xmlns:xlink="http://www.w3.org/1999/xlink" shape-rendering="crispEdges" width="48" height="38" viewBox="0 0 48 38"><g><path fill="rgba(0,0,0,0)" d="M0,0h48v2h-48ZM0,2h9v32h-9ZM42,2h6v32h-6ZM0,34h48v4h-48Z"/><path fill="rgba(255,255,255,0)" d="M9,2h11v1h-11ZM27,2h15v1h-15ZM9,3h9v1h-9ZM29,3h13v1h-13ZM9,4h8v1h-8ZM30,4h12v1h-12ZM9,5h7v1h-7ZM31,5h11v1h-11ZM9,6h6v2h-6ZM32,6h10v2h-10ZM9,8h5v7h-5ZM33,8h9v7h-9ZM9,15h6v2h-6ZM32,15h10v3h-10ZM9,17h7v1h-7ZM9,18h8v1h-8ZM33,18h9v1h-9ZM9,19h9v1h-9ZM34,19h8v2h-8ZM9,20h11v1h-11ZM27,20h3v1h-3ZM9,21h22v1h-22ZM33,21h9v1h-9ZM9,22h33v3h-33ZM9,25h1v1h-1ZM13,25h24v1h-24ZM38,25h4v3h-4ZM10,26h3v1h-3ZM14,26h23v1h-23ZM10,27h27v1h-27ZM10,28h7v1h-7ZM20,28h3v1h-3ZM26,28h2v1h-2ZM30,28h2v1h-2ZM35,28h2v1h-2ZM38,28h1v1h-1ZM41,28h1v1h-1ZM9,29h1v1h-1ZM13,29h3v1h-3ZM17,29h3v1h-3ZM21,29h5v1h-5ZM27,29h1v5h-1ZM29,29h2v4h-2ZM32,29h3v1h-3ZM36,29h1v1h-1ZM39,29h2v1h-2ZM9,30h4v2h-4ZM14,30h2v3h-2ZM21,30h2v1h-2ZM32,30h5v2h-5ZM38,30h3v4h-3ZM17,31h5v1h-5ZM23,31h3v2h-3ZM10,32h3v1h-3ZM17,32h3v1h-3ZM21,32h1v1h-1ZM32,32h3v1h-3ZM36,32h1v1h-1ZM9,33h1v1h-1ZM13,33h4v1h-4ZM20,33h3v1h-3ZM29,33h3v1h-3ZM35,33h2v1h-2Z"/><path fill="rgba(0,0,0,255)" d="M20,2h7v1h-7ZM18,3h2v1h-2ZM27,3h2v1h-2ZM17,4h1v1h-1ZM29,4h1v1h-1ZM16,5h1v1h-1ZM30,5h1v1h-1ZM15,6h1v2h-1ZM31,6h1v2h-1ZM14,8h1v7h-1ZM32,8h1v7h-1ZM23,9h5v1h-5ZM22,10h1v1h-1ZM28,10h1v1h-1ZM21,11h1v5h-1ZM29,11h1v5h-1ZM15,15h1v2h-1ZM31,15h1v1h-1ZM22,16h1v1h-1ZM28,16h1v1h-1ZM30,16h2v1h-2ZM16,17h1v1h-1ZM23,17h5v1h-5ZM31,17h1v1h-1ZM17,18h1v1h-1ZM28,18h1v1h-1ZM32,18h1v1h-1ZM18,19h2v1h-2ZM27,19h3v1h-3ZM33,19h1v2h-1ZM20,20h7v1h-7ZM30,20h1v1h-1ZM31,21h2v1h-2ZM10,25h3v1h-3ZM37,25h1v4h-1ZM9,26h1v3h-1ZM13,26h1v1h-1ZM17,28h3v1h-3ZM23,28h3v1h-3ZM28,28h2v1h-2ZM32,28h3v1h-3ZM39,28h2v1h-2ZM10,29h3v1h-3ZM16,29h1v1h-1ZM20,29h1v1h-1ZM26,29h1v1h-1ZM28,29h1v5h-1ZM31,29h1v4h-1ZM35,29h1v1h-1ZM37,29h2v1h-2ZM41,29h1v5h-1ZM13,30h1v3h-1ZM16,30h5v1h-5ZM23,30h4v1h-4ZM37,30h1v4h-1ZM16,31h1v2h-1ZM22,31h1v2h-1ZM26,31h1v2h-1ZM9,32h1v1h-1ZM20,32h1v1h-1ZM35,32h1v1h-1ZM10,33h3v1h-3ZM17,33h3v1h-3ZM23,33h4v1h-4ZM32,33h3v1h-3Z"/><path fill="rgba(192,192,192,255)" d="M20,3h1v1h-1ZM23,3h1v1h-1ZM18,4h1v1h-1ZM22,4h1v1h-1ZM26,4h2v1h-2ZM17,5h1v1h-1ZM29,5h1v1h-1ZM16,6h1v1h-1ZM23,6h1v1h-1ZM25,6h1v1h-1ZM17,7h1v1h-1ZM22,7h1v1h-1ZM24,7h1v1h-1ZM26,7h1v1h-1ZM28,7h2v1h-2ZM15,8h1v2h-1ZM27,8h1v1h-1ZM30,8h1v1h-1ZM17,9h1v1h-1ZM29,9h1v1h-1ZM31,9h1v1h-1ZM18,10h1v1h-1ZM20,10h2v1h-2ZM24,10h1v1h-1ZM26,10h1v1h-1ZM30,10h1v1h-1ZM15,11h1v1h-1ZM17,11h1v1h-1ZM19,11h2v1h-2ZM27,11h1v3h-1ZM31,11h1v1h-1ZM16,12h1v1h-1ZM18,12h1v1h-1ZM20,12h1v1h-1ZM22,12h1v1h-1ZM30,12h1v1h-1ZM15,13h1v1h-1ZM17,13h1v1h-1ZM31,13h1v1h-1ZM16,14h1v1h-1ZM18,14h1v1h-1ZM20,14h1v1h-1ZM22,14h1v1h-1ZM26,14h2v1h-2ZM30,14h1v1h-1ZM19,15h2v1h-2ZM23,15h4v1h-4ZM17,16h2v1h-2ZM20,16h2v1h-2ZM17,17h1v1h-1ZM19,17h1v1h-1ZM21,17h2v1h-2ZM18,18h1v1h-1ZM20,18h1v1h-1ZM22,18h1v1h-1ZM24,18h1v1h-1ZM26,18h1v1h-1Z"/><path fill="rgba(255,255,255,255)" d="M21,3h2v1h-2ZM19,4h3v1h-3ZM24,4h2v1h-2ZM18,5h2v1h-2ZM21,5h7v1h-7ZM17,6h2v1h-2ZM20,6h3v1h-3ZM24,6h1v1h-1ZM26,6h3v1h-3ZM16,7h1v1h-1ZM19,7h3v1h-3ZM23,7h1v1h-1ZM25,7h1v2h-1ZM27,7h1v1h-1ZM16,8h6v1h-6ZM28,8h2v1h-2ZM16,9h1v1h-1ZM18,9h4v1h-4ZM15,10h3v1h-3ZM19,10h1v1h-1ZM25,10h1v1h-1ZM16,11h1v1h-1ZM18,11h1v1h-1ZM23,11h4v2h-4ZM15,12h1v1h-1ZM17,12h1v1h-1ZM19,12h1v1h-1ZM16,13h1v1h-1ZM18,13h3v1h-3ZM22,13h5v1h-5ZM17,14h1v1h-1ZM19,14h1v1h-1ZM23,14h3v1h-3ZM16,15h3v1h-3ZM29,16h1v1h-1ZM28,17h3v1h-3ZM29,18h3v1h-3ZM30,19h3v1h-3ZM31,20h2v1h-2Z"/><path fill="rgba(128,128,128,255)" d="M24,3h3v1h-3ZM23,4h1v1h-1ZM28,4h1v2h-1ZM20,5h1v1h-1ZM19,6h1v1h-1ZM29,6h2v1h-2ZM18,7h1v1h-1ZM30,7h1v1h-1ZM22,8h3v1h-3ZM26,8h1v1h-1ZM31,8h1v1h-1ZM22,9h1v1h-1ZM28,9h1v1h-1ZM30,9h1v1h-1ZM23,10h1v1h-1ZM27,10h1v1h-1ZM29,10h1v1h-1ZM31,10h1v1h-1ZM22,11h1v1h-1ZM28,11h1v4h-1ZM30,11h1v1h-1ZM31,12h1v1h-1ZM30,13h1v1h-1ZM15,14h1v1h-1ZM31,14h1v1h-1ZM22,15h1v1h-1ZM27,15h2v1h-2ZM30,15h1v1h-1ZM16,16h1v1h-1ZM19,16h1v1h-1ZM23,16h5v1h-5ZM18,17h1v1h-1ZM20,17h1v1h-1ZM19,18h1v1h-1ZM21,18h1v1h-1ZM23,18h1v1h-1ZM25,18h1v1h-1ZM27,18h1v1h-1ZM20,19h7v1h-7Z"/></g></svg>