<svg version="1.1" xmlns="http://www.w3.org/2000/svg" xmlns:xlink="http://www.w3.org/1999/xlink" shape-rendering="crispEdges" width="48" height="38" viewBox="0 0 48 38"><g><path fill="rgba(255,255,255,0)" d="M0,0h48v2h-48ZM0,2h20v1h-20ZM27,2h21v1h-21ZM0,3h18v1h-18ZM29,3h19v1h-19ZM0,4h17v1h-17ZM30,4h18v1h-18ZM0,5h16v1h-16ZM31,5h17v1h-17ZM0,6h15v2h-15ZM32,6h16v2h-16ZM0,8h14v7h-14ZM33,8h15v7h-15ZM0,15h15v2h-15ZM32,15h16v3h-16ZM0,17h16v1h-16ZM0,18h17v1h-17ZM33,18h15v1h-15ZM0,19h18v1h-18ZM34,19h14v2h-14ZM0,20h20v1h-20ZM27,20h3v1h-3ZM0,21h31v1h-31ZM33,21h15v1h-15ZM0,22h48v3h-48ZM0,25h10v1h-10ZM13,25h24v1h-24ZM38,25h10v3h-10ZM0,26h9v3h-9ZM10,26h3v1h-3ZM14,26h23v1h-23ZM10,27h27v1h-27ZM10,28h7v1h-7ZM20,28h3v1h-3ZM26,28h2v1h-2ZM30,28h2v1h-2ZM35,28h2v1h-2ZM38,28h1v1h-1ZM41,28h7v1h-7ZM0,29h10v1h-10ZM13,29h3v1h-3ZM17,29h3v1h-3ZM21,29h5v1h-5ZM27,29h1v5h-1ZM29,29h2v4h-2ZM32,29h3v1h-3ZM36,29h1v1h-1ZM39,29h2v1h-2ZM42,29h6v5h-6ZM0,30h13v2h-13ZM14,30h2v3h-2ZM21,30h2v1h-2ZM32,30h5v2h-5ZM38,30h3v4h-3ZM17,31h5v1h-5ZM23,31h3v2h-3ZM0,32h9v1h-9ZM10,32h3v1h-3ZM17,32h3v1h-3ZM21,32h1v1h-1ZM32,32h3v1h-3ZM36,32h1v1h-1ZM0,33h10v1h-10ZM13,33h4v1h-4ZM20,33h3v1h-3ZM29,33h3v1h-3ZM35,33h2v1h-2Z"/><path fill="rgba(0,0,0,255)" d="M20,2h7v1h-7ZM18,3h2v1h-2ZM27,3h2v1h-2ZM17,4h1v1h-1ZM29,4h1v1h-1ZM16,5h1v1h-1ZM30,5h1v1h-1ZM15,6h1v2h-1ZM31,6h1v2h-1ZM14,8h1v7h-1ZM32,8h1v7h-1ZM23,9h5v1h-5ZM22,10h1v1h-1ZM28,10h1v1h-1ZM21,11h1v5h-1ZM29,11h1v5h-1ZM15,15h1v2h-1ZM31,15h1v1h-1ZM22,16h1v1h-1ZM28,16h1v1h-1ZM30,16h2v1h-2ZM16,17h1v1h-1ZM23,17h5v1h-5ZM31,17h1v1h-1ZM17,18h1v1h-1ZM28,18h1v1h-1ZM32,18h1v1h-1ZM18,19h2v1h-2ZM27,19h3v1h-3ZM33,19h1v2h-1ZM20,20h7v1h-7ZM30,20h1v1h-1ZM31,21h2v1h-2ZM10,25h3v1h-3ZM37,25h1v4h-1ZM9,26h1v3h-1ZM13,26h1v1h-1ZM17,28h3v1h-3ZM23,28h3v1h-3ZM28,28h2v1h-2ZM32,28h3v1h-3ZM39,28h2v1h-2ZM10,29h3v1h-3ZM16,29h1v1h-1ZM20,29h1v1h-1ZM26,29h1v1h-1ZM28,29h1v5h-1ZM31,29h1v4h-1ZM35,29h1v1h-1ZM37,29h2v1h-2ZM41,29h1v5h-1ZM13,30h1v3h-1ZM16,30h5v1h-5ZM23,30h4v1h-4ZM37,30h1v4h-1ZM16,31h1v2h-1ZM22,31h1v2h-1ZM26,31h1v2h-1ZM9,32h1v1h-1ZM20,32h1v1h-1ZM35,32h1v1h-1ZM10,33h3v1h-3ZM17,33h3v1h-3ZM23,33h4v1h-4ZM32,33h3v1h-3Z"/><path fill="rgba(192,192,192,255)" d="M20,3h1v1h-1ZM23,3h1v1h-1ZM18,4h1v1h-1ZM22,4h1v1h-1ZM16,6h1v1h-1ZM15,8h1v1h-1ZM28,12h1v3h-1ZM27,15h1v1h-1ZM24,16h3v1h-3Z"/><path fill="rgba(255,255,255,255)" d="M21,3h2v1h-2ZM19,4h3v1h-3ZM18,5h1v1h-1ZM17,6h1v1h-1ZM16,7h1v1h-1ZM17,8h1v1h-1ZM16,9h1v1h-1ZM15,10h1v1h-1ZM17,10h1v1h-1ZM25,10h1v1h-1ZM16,11h1v1h-1ZM23,11h4v1h-4ZM23,12h3v1h-3ZM27,12h1v1h-1ZM22,13h3v1h-3ZM26,13h1v1h-1ZM23,14h1v1h-1ZM25,14h1v1h-1ZM27,14h1v1h-1ZM24,15h1v1h-1ZM26,15h1v1h-1Z"/><path fill="rgba(0,0,255,255)" d="M24,3h3v1h-3ZM23,4h1v1h-1ZM26,4h3v1h-3ZM20,5h1v1h-1ZM28,5h2v1h-2ZM19,6h1v1h-1ZM29,6h2v1h-2ZM18,7h1v1h-1ZM30,7h1v2h-1ZM22,8h3v1h-3ZM26,8h1v1h-1ZM22,9h1v1h-1ZM29,9h1v1h-1ZM31,9h1v1h-1ZM20,10h2v1h-2ZM30,10h1v1h-1ZM19,11h2v5h-2ZM31,11h1v1h-1ZM30,12h1v1h-1ZM31,13h1v1h-1ZM30,14h1v1h-1ZM16,15h2v1h-2ZM16,16h6v1h-6ZM17,17h5v1h-5ZM18,18h2v1h-2ZM22,18h1v1h-1ZM24,18h1v1h-1ZM26,18h1v1h-1ZM21,19h1v1h-1ZM23,19h1v1h-1ZM25,19h1v1h-1Z"/><path fill="rgba(0,255,0,255)" d="M24,4h2v1h-2ZM21,5h3v1h-3ZM20,6h1v1h-1ZM19,7h1v1h-1ZM21,7h1v1h-1ZM18,8h1v1h-1ZM19,9h1v1h-1ZM18,10h1v1h-1ZM17,11h1v2h-1ZM15,12h1v1h-1ZM16,13h1v1h-1ZM15,14h1v1h-1Z"/><path fill="rgba(0,255,255,255)" d="M17,5h1v1h-1ZM19,5h1v1h-1ZM18,6h1v1h-1ZM17,7h1v1h-1ZM16,8h1v1h-1ZM15,9h1v1h-1ZM17,9h1v1h-1ZM16,10h1v1h-1ZM24,10h1v1h-1ZM26,10h1v1h-1ZM15,11h1v1h-1ZM27,11h1v1h-1ZM22,12h1v1h-1ZM26,12h1v1h-1ZM25,13h1v1h-1ZM27,13h1v1h-1ZM22,14h1v1h-1ZM24,14h1v1h-1ZM26,14h1v1h-1ZM23,15h1v1h-1ZM25,15h1v1h-1Z"/><path fill="rgba(0,128,0,255)" d="M24,5h4v1h-4ZM21,6h8v1h-8ZM20,7h1v1h-1ZM22,7h8v1h-8ZM19,8h3v1h-3ZM25,8h1v1h-1ZM27,8h3v1h-3ZM18,9h1v1h-1ZM20,9h2v1h-2ZM28,9h1v1h-1ZM19,10h1v1h-1ZM18,11h1v2h-1ZM16,12h1v1h-1ZM15,13h1v1h-1ZM17,13h2v1h-2ZM16,14h3v1h-3ZM18,15h1v1h-1ZM22,17h1v1h-1ZM21,18h1v1h-1Z"/><path fill="rgba(0,0,128,255)" d="M31,8h1v1h-1ZM30,9h1v1h-1ZM29,10h1v1h-1ZM31,10h1v1h-1ZM30,11h1v1h-1ZM31,12h1v1h-1ZM30,13h1v1h-1ZM31,14h1v1h-1ZM30,15h1v1h-1ZM20,18h1v2h-1ZM23,18h1v1h-1ZM25,18h1v1h-1ZM27,18h1v1h-1ZM22,19h1v1h-1ZM24,19h1v1h-1ZM26,19h1v1h-1Z"/><path fill="rgba(128,128,128,255)" d="M23,10h1v1h-1ZM27,10h1v1h-1ZM22,11h1v1h-1ZM28,11h1v1h-1ZM22,15h1v1h-1ZM28,15h1v1h-1ZM23,16h1v1h-1ZM27,16h1v1h-1Z"/><path fill="rgba(255,0,0,255)" d="M29,16h1v1h-1ZM28,17h3v1h-3ZM29,18h3v1h-3ZM30,19h3v1h-3ZM31,20h2v1h-2Z"/><path fill="rgba(0,0,0,0)" d="M0,34h48v4h-48Z"/></g></svg>