<svg version="1.1" xmlns="http://www.w3.org/2000/svg" xmlns:xlink="http://www.w3.org/1999/xlink" shape-rendering="crispEdges" width="48" height="38" viewBox="0 0 48 38"><g><path fill="rgba(0,0,0,0)" d="M0,0h48v3h-48ZM0,3h14v33h-14ZM36,3h12v33h-12ZM0,36h48v2h-48Z"/><path fill="rgba(255,255,255,0)" d="M14,3h6v1h-6ZM27,3h9v1h-9ZM14,4h4v1h-4ZM29,4h7v1h-7ZM14,5h3v1h-3ZM30,5h6v1h-6ZM14,6h2v1h-2ZM31,6h5v1h-5ZM14,7h1v2h-1ZM32,7h4v2h-4ZM33,9h3v7h-3ZM14,16h1v2h-1ZM32,16h4v2h-4ZM14,18h2v1h-2ZM31,18h5v1h-5ZM14,19h3v1h-3ZM30,19h6v1h-6ZM14,20h4v1h-4ZM29,20h7v1h-7ZM14,21h6v1h-6ZM27,21h9v1h-9ZM14,22h22v3h-22ZM14,25h2v1h-2ZM19,25h17v1h-17ZM14,26h1v3h-1ZM16,26h3v1h-3ZM20,26h2v1h-2ZM23,26h13v2h-13ZM16,27h6v2h-6ZM24,28h2v1h-2ZM29,28h2v1h-2ZM35,28h1v1h-1ZM14,29h2v1h-2ZM19,29h3v1h-3ZM23,29h2v4h-2ZM26,29h3v4h-3ZM30,29h1v4h-1ZM32,29h3v4h-3ZM14,30h5v2h-5ZM20,30h2v3h-2ZM14,32h1v1h-1ZM16,32h3v1h-3ZM14,33h2v1h-2ZM19,33h4v1h-4ZM24,33h2v1h-2ZM29,33h2v1h-2ZM35,33h1v1h-1ZM14,34h17v2h-17ZM32,34h4v2h-4Z"/><path fill="rgba(0,0,0,255)" d="M20,3h7v1h-7ZM18,4h2v1h-2ZM27,4h2v1h-2ZM17,5h1v1h-1ZM29,5h1v1h-1ZM16,6h1v1h-1ZM30,6h1v1h-1ZM15,7h1v2h-1ZM31,7h1v2h-1ZM14,9h1v7h-1ZM32,9h1v7h-1ZM15,16h1v2h-1ZM31,16h1v2h-1ZM16,18h1v1h-1ZM30,18h1v1h-1ZM17,19h1v1h-1ZM29,19h1v1h-1ZM18,20h2v1h-2ZM27,20h2v1h-2ZM20,21h7v1h-7ZM16,25h3v1h-3ZM15,26h1v3h-1ZM19,26h1v1h-1ZM22,26h1v2h-1ZM22,28h2v1h-2ZM26,28h3v1h-3ZM31,28h4v1h-4ZM16,29h3v1h-3ZM22,29h1v4h-1ZM25,29h1v4h-1ZM29,29h1v4h-1ZM31,29h1v4h-1ZM35,29h1v4h-1ZM19,30h1v3h-1ZM15,32h1v1h-1ZM16,33h3v1h-3ZM23,33h1v1h-1ZM26,33h3v1h-3ZM31,33h4v1h-4ZM31,34h1v2h-1Z"/><path fill="rgba(128,128,128,255)" d="M20,4h7v1h-7ZM18,5h11v1h-11ZM17,6h13v1h-13ZM16,7h15v2h-15ZM15,9h4v1h-4ZM22,9h3v1h-3ZM28,9h4v1h-4ZM15,10h5v1h-5ZM23,10h1v1h-1ZM27,10h5v1h-5ZM15,11h6v1h-6ZM26,11h6v1h-6ZM15,12h7v1h-7ZM25,12h7v1h-7ZM15,13h6v1h-6ZM26,13h6v1h-6ZM15,14h5v1h-5ZM23,14h1v1h-1ZM27,14h5v1h-5ZM15,15h4v1h-4ZM22,15h3v1h-3ZM28,15h4v1h-4ZM16,16h15v2h-15ZM17,18h13v1h-13ZM18,19h11v1h-11ZM20,20h7v1h-7Z"/><path fill="rgba(255,255,255,255)" d="M19,9h3v1h-3ZM25,9h3v1h-3ZM20,10h3v1h-3ZM24,10h3v1h-3ZM21,11h5v1h-5ZM22,12h3v1h-3ZM21,13h5v1h-5ZM20,14h3v1h-3ZM24,14h3v1h-3ZM19,15h3v1h-3ZM25,15h3v1h-3Z"/></g></svg>