<svg version="1.1" xmlns="http://www.w3.org/2000/svg" xmlns:xlink="http://www.w3.org/1999/xlink" shape-rendering="crispEdges" width="48" height="38" viewBox="0 0 48 38"><g><path fill="rgba(0,0,0,0)" d="M0,0h1v37h-1ZM0,37h48v1h-48Z"/><path fill="rgba(255,255,255,0)" d="M1,0h47v3h-47ZM1,3h19v1h-19ZM27,3h21v1h-21ZM1,4h17v1h-17ZM29,4h19v1h-19ZM1,5h16v1h-16ZM30,5h18v1h-18ZM1,6h15v1h-15ZM31,6h17v1h-17ZM1,7h14v2h-14ZM32,7h16v2h-16ZM1,9h13v7h-13ZM33,9h15v7h-15ZM1,16h14v2h-14ZM32,16h16v2h-16ZM1,18h15v1h-15ZM31,18h17v1h-17ZM1,19h16v1h-16ZM30,19h18v1h-18ZM1,20h17v1h-17ZM29,20h19v1h-19ZM1,21h19v1h-19ZM27,21h21v1h-21ZM1,22h47v3h-47ZM1,25h15v1h-15ZM19,25h29v1h-29ZM1,26h14v3h-14ZM16,26h3v1h-3ZM20,26h2v1h-2ZM23,26h25v2h-25ZM16,27h6v2h-6ZM24,28h2v1h-2ZM29,28h2v1h-2ZM35,28h13v1h-13ZM1,29h15v1h-15ZM19,29h3v1h-3ZM23,29h2v4h-2ZM26,29h3v4h-3ZM30,29h1v4h-1ZM32,29h3v4h-3ZM36,29h12v4h-12ZM1,30h18v2h-18ZM20,30h2v3h-2ZM1,32h14v1h-14ZM16,32h3v1h-3ZM1,33h15v1h-15ZM19,33h4v1h-4ZM24,33h2v1h-2ZM29,33h2v1h-2ZM35,33h13v1h-13ZM1,34h30v2h-30ZM32,34h16v2h-16ZM1,36h47v1h-47Z"/><path fill="rgba(0,0,0,255)" d="M20,3h7v1h-7ZM18,4h2v1h-2ZM27,4h2v1h-2ZM17,5h1v1h-1ZM29,5h1v1h-1ZM16,6h1v1h-1ZM30,6h1v1h-1ZM15,7h1v2h-1ZM31,7h1v2h-1ZM14,9h1v7h-1ZM32,9h1v7h-1ZM15,16h1v2h-1ZM31,16h1v2h-1ZM16,18h1v1h-1ZM30,18h1v1h-1ZM17,19h1v1h-1ZM29,19h1v1h-1ZM18,20h2v1h-2ZM27,20h2v1h-2ZM20,21h7v1h-7ZM16,25h3v1h-3ZM15,26h1v3h-1ZM19,26h1v1h-1ZM22,26h1v2h-1ZM22,28h2v1h-2ZM26,28h3v1h-3ZM31,28h4v1h-4ZM16,29h3v1h-3ZM22,29h1v4h-1ZM25,29h1v4h-1ZM29,29h1v4h-1ZM31,29h1v4h-1ZM35,29h1v4h-1ZM19,30h1v3h-1ZM15,32h1v1h-1ZM16,33h3v1h-3ZM23,33h1v1h-1ZM26,33h3v1h-3ZM31,33h4v1h-4ZM31,34h1v2h-1Z"/><path fill="rgba(255,0,0,255)" d="M20,4h7v1h-7ZM18,5h11v1h-11ZM17,6h13v1h-13ZM16,7h15v2h-15ZM15,9h4v1h-4ZM22,9h3v1h-3ZM28,9h4v1h-4ZM15,10h5v1h-5ZM23,10h1v1h-1ZM27,10h5v1h-5ZM15,11h6v1h-6ZM26,11h6v1h-6ZM15,12h7v1h-7ZM25,12h7v1h-7ZM15,13h6v1h-6ZM26,13h6v1h-6ZM15,14h5v1h-5ZM23,14h1v1h-1ZM27,14h5v1h-5ZM15,15h4v1h-4ZM22,15h3v1h-3ZM28,15h4v1h-4ZM16,16h15v2h-15ZM17,18h13v1h-13ZM18,19h11v1h-11ZM20,20h7v1h-7Z"/><path fill="rgba(255,255,255,255)" d="M19,9h3v1h-3ZM25,9h3v1h-3ZM20,10h3v1h-3ZM24,10h3v1h-3ZM21,11h5v1h-5ZM22,12h3v1h-3ZM21,13h5v1h-5ZM20,14h3v1h-3ZM24,14h3v1h-3ZM19,15h3v1h-3ZM25,15h3v1h-3Z"/></g></svg>