<svg version="1.1" xmlns="http://www.w3.org/2000/svg" xmlns:xlink="http://www.w3.org/1999/xlink" shape-rendering="crispEdges" width="16" height="16" viewBox="0 0 16 16"><g><path fill="rgba(255,255,255,0)" d="M0,0h5v1h-5ZM10,0h6v1h-6ZM0,1h3v1h-3ZM12,1h4v1h-4ZM0,2h2v1h-2ZM13,2h3v1h-3ZM0,3h1v2h-1ZM14,3h2v2h-2ZM15,5h1v6h-1ZM0,11h1v2h-1ZM14,11h2v1h-2ZM15,12h1v1h-1ZM0,13h2v1h-2ZM0,14h3v1h-3ZM12,14h1v1h-1ZM0,15h5v1h-5ZM10,15h4v1h-4Z"/><path fill="rgba(128,128,128,255)" d="M5,0h5v1h-5ZM3,1h2v1h-2ZM10,1h2v1h-2ZM2,2h1v1h-1ZM1,3h1v2h-1ZM0,5h1v6h-1ZM7,5h2v1h-2ZM6,6h1v1h-1ZM5,7h1v3h-1ZM6,10h1v1h-1ZM11,10h2v1h-2ZM7,11h1v1h-1ZM10,11h1v1h-1Z"/><path fill="rgba(192,192,192,255)" d="M5,1h1v1h-1ZM4,2h1v1h-1ZM3,3h1v1h-1ZM2,4h1v1h-1ZM1,5h1v1h-1ZM3,5h1v1h-1ZM9,6h1v1h-1ZM1,7h1v1h-1ZM3,7h2v1h-2ZM8,7h1v1h-1ZM10,7h1v1h-1ZM2,8h3v1h-3ZM7,8h1v1h-1ZM9,8h1v1h-1ZM2,9h1v1h-1ZM6,9h1v1h-1ZM8,9h1v1h-1ZM10,9h1v1h-1ZM5,10h1v1h-1ZM7,10h1v1h-1ZM9,10h1v1h-1Z"/><path fill="rgba(255,255,255,255)" d="M6,1h1v1h-1ZM3,2h1v1h-1ZM5,2h1v1h-1ZM2,3h1v1h-1ZM3,4h1v1h-1ZM2,5h1v1h-1ZM4,5h1v1h-1ZM1,6h3v1h-3ZM7,6h1v1h-1ZM2,7h1v1h-1ZM6,7h1v1h-1ZM11,11h1v1h-1Z"/><path fill="rgba(0,0,255,255)" d="M7,1h1v1h-1ZM6,2h1v1h-1ZM6,4h3v1h-3ZM5,5h2v1h-2ZM13,5h1v1h-1ZM4,6h1v1h-1ZM11,6h2v1h-2ZM12,7h1v1h-1ZM3,9h1v1h-1ZM12,9h1v1h-1ZM2,10h3v1h-3ZM1,11h1v1h-1ZM3,11h3v1h-3ZM2,12h5v1h-5ZM8,12h1v1h-1ZM3,13h2v1h-2ZM7,13h1v1h-1ZM9,13h1v1h-1Z"/><path fill="rgba(0,128,128,255)" d="M8,1h2v1h-2ZM4,3h1v1h-1ZM10,4h1v2h-1ZM13,6h1v1h-1ZM1,8h1v2h-1ZM4,9h1v1h-1ZM10,12h1v1h-1Z"/><path fill="rgba(0,128,0,255)" d="M7,2h5v1h-5ZM5,3h8v1h-8ZM4,4h2v1h-2ZM9,4h1v1h-1ZM11,4h2v2h-2ZM5,6h1v1h-1ZM1,10h1v1h-1ZM2,11h1v1h-1ZM6,11h1v1h-1ZM7,12h1v1h-1Z"/><path fill="rgba(0,0,128,255)" d="M12,2h1v1h-1ZM13,7h1v1h-1ZM12,8h2v1h-2ZM13,9h1v2h-1ZM1,12h1v1h-1ZM9,12h1v1h-1ZM2,13h1v1h-1ZM5,13h2v1h-2ZM8,13h1v1h-1ZM10,13h2v1h-2ZM3,14h7v1h-7Z"/><path fill="rgba(0,0,0,255)" d="M13,3h1v2h-1ZM9,5h1v1h-1ZM14,5h1v6h-1ZM10,6h1v1h-1ZM11,7h1v3h-1ZM10,10h1v1h-1ZM8,11h2v1h-2ZM10,14h2v1h-2ZM15,14h1v1h-1ZM5,15h5v1h-5ZM14,15h2v1h-2Z"/><path fill="rgba(0,255,255,255)" d="M8,6h1v1h-1ZM7,7h1v1h-1ZM9,7h1v1h-1ZM6,8h1v1h-1ZM8,8h1v1h-1ZM10,8h1v1h-1ZM7,9h1v1h-1ZM9,9h1v1h-1ZM8,10h1v1h-1Z"/><path fill="rgba(255,0,0,255)" d="M12,11h1v1h-1ZM13,12h1v1h-1ZM14,13h1v2h-1Z"/><path fill="rgba(128,0,0,255)" d="M13,11h1v1h-1ZM11,12h1v1h-1ZM14,12h1v1h-1ZM12,13h1v1h-1ZM15,13h1v1h-1ZM13,14h1v1h-1Z"/><path fill="rgba(255,0,255,255)" d="M12,12h1v1h-1ZM13,13h1v1h-1Z"/></g></svg>