<svg version="1.1" xmlns="http://www.w3.org/2000/svg" xmlns:xlink="http://www.w3.org/1999/xlink" shape-rendering="crispEdges" width="32" height="32" viewBox="0 0 32 32"><g><path fill="rgba(255,255,255,0)" d="M0,0h11v1h-11ZM20,0h12v1h-12ZM0,1h9v1h-9ZM22,1h10v1h-10ZM0,2h7v1h-7ZM24,2h8v1h-8ZM0,3h6v1h-6ZM25,3h7v1h-7ZM0,4h5v1h-5ZM26,4h6v1h-6ZM0,5h4v1h-4ZM27,5h5v1h-5ZM0,6h3v1h-3ZM28,6h4v1h-4ZM0,7h2v2h-2ZM29,7h3v2h-3ZM0,9h1v2h-1ZM30,9h2v2h-2ZM31,11h1v9h-1ZM0,20h1v2h-1ZM30,20h2v2h-2ZM0,22h2v2h-2ZM29,22h3v2h-3ZM0,24h3v1h-3ZM28,24h4v1h-4ZM0,25h4v1h-4ZM29,25h3v1h-3ZM0,26h5v1h-5ZM30,26h2v1h-2ZM0,27h6v1h-6ZM31,27h1v1h-1ZM0,28h7v1h-7ZM24,28h1v1h-1ZM0,29h9v1h-9ZM22,29h4v1h-4ZM0,30h11v1h-11ZM20,30h7v1h-7ZM0,31h28v1h-28ZM31,31h1v1h-1Z"/><path fill="rgba(128,128,128,255)" d="M11,0h9v1h-9ZM9,1h2v1h-2ZM20,1h2v1h-2ZM7,2h2v1h-2ZM22,2h2v1h-2ZM6,3h1v1h-1ZM5,4h1v1h-1ZM4,5h1v1h-1ZM3,6h1v1h-1ZM2,7h1v2h-1ZM1,9h1v2h-1ZM0,11h1v9h-1ZM18,12h3v1h-3ZM16,13h2v1h-2ZM21,13h1v1h-1ZM15,14h1v1h-1ZM14,15h1v2h-1ZM13,17h1v3h-1ZM1,20h1v2h-1ZM14,20h1v2h-1ZM2,22h1v2h-1ZM15,22h1v1h-1ZM24,22h1v1h-1ZM24,23h2v1h-2ZM3,24h1v1h-1ZM21,24h1v1h-1ZM25,24h1v1h-1ZM4,25h1v1h-1ZM22,25h1v1h-1ZM5,26h1v1h-1ZM23,26h1v1h-1ZM6,27h1v1h-1Z"/><path fill="rgba(255,255,255,255)" d="M11,1h1v1h-1ZM14,1h1v1h-1ZM9,2h1v1h-1ZM12,2h1v1h-1ZM7,3h2v1h-2ZM11,3h1v1h-1ZM6,4h1v1h-1ZM8,4h3v1h-3ZM5,5h3v1h-3ZM9,5h1v1h-1ZM4,6h1v1h-1ZM3,7h1v1h-1ZM7,7h2v1h-2ZM4,8h2v1h-2ZM7,8h1v1h-1ZM2,9h1v1h-1ZM4,9h5v1h-5ZM3,10h3v2h-3ZM1,11h1v1h-1ZM2,12h4v1h-4ZM9,12h1v1h-1ZM3,13h5v1h-5ZM2,14h4v1h-4ZM8,14h1v1h-1ZM17,14h1v1h-1ZM19,14h1v1h-1ZM3,15h3v1h-3ZM7,15h1v1h-1ZM16,15h1v1h-1ZM18,15h1v1h-1ZM4,16h1v1h-1ZM6,16h1v1h-1ZM8,16h1v1h-1ZM15,16h1v1h-1ZM17,16h1v1h-1ZM16,17h2v1h-2ZM15,18h1v1h-1ZM17,18h1v1h-1ZM16,19h1v1h-1ZM15,20h1v1h-1ZM17,20h1v1h-1ZM16,21h1v1h-1ZM23,24h1v1h-1ZM24,25h1v1h-1Z"/><path fill="rgba(0,128,128,255)" d="M12,1h2v1h-2ZM15,1h1v1h-1ZM17,1h3v1h-3ZM17,2h1v1h-1ZM9,3h2v1h-2ZM10,5h1v1h-1ZM5,6h1v1h-1ZM4,7h1v1h-1ZM16,8h1v1h-1ZM21,8h1v1h-1ZM9,10h1v1h-1ZM2,11h1v1h-1ZM22,11h1v1h-1ZM1,12h1v3h-1ZM22,14h1v1h-1ZM2,15h1v1h-1ZM23,15h1v1h-1ZM1,16h1v1h-1ZM3,16h1v1h-1ZM2,17h1v1h-1ZM24,17h1v3h-1ZM1,18h1v1h-1ZM3,18h1v1h-1ZM2,19h1v1h-1ZM10,19h2v1h-2ZM4,20h1v2h-1ZM23,20h1v1h-1ZM15,21h1v1h-1ZM22,21h2v1h-2ZM16,22h1v1h-1ZM21,22h2v1h-2ZM3,23h1v1h-1ZM18,23h3v1h-3ZM4,24h1v1h-1ZM12,24h1v2h-1ZM13,26h1v1h-1Z"/><path fill="rgba(0,0,255,255)" d="M16,1h1v1h-1ZM13,2h1v1h-1ZM18,2h1v1h-1ZM12,3h2v1h-2ZM11,4h1v1h-1ZM13,4h1v1h-1ZM12,5h1v1h-1ZM9,6h1v1h-1ZM6,7h1v1h-1ZM14,8h2v1h-2ZM17,8h2v1h-2ZM20,8h1v1h-1ZM11,9h5v1h-5ZM17,9h3v1h-3ZM21,9h1v1h-1ZM11,10h2v1h-2ZM15,10h1v1h-1ZM8,11h2v1h-2ZM11,11h8v1h-8ZM21,11h1v1h-1ZM7,12h2v1h-2ZM13,12h3v1h-3ZM22,12h3v1h-3ZM26,12h1v1h-1ZM24,13h4v1h-4ZM6,14h1v1h-1ZM24,14h3v1h-3ZM28,14h1v1h-1ZM25,15h1v1h-1ZM5,16h1v1h-1ZM25,16h2v1h-2ZM4,17h2v1h-2ZM27,17h1v1h-1ZM5,18h2v1h-2ZM26,18h1v1h-1ZM4,19h5v1h-5ZM3,20h1v1h-1ZM5,20h7v2h-7ZM26,20h1v1h-1ZM25,21h1v1h-1ZM4,22h8v1h-8ZM4,23h9v1h-9ZM5,24h7v2h-7ZM18,25h2v1h-2ZM21,25h1v1h-1ZM7,26h5v1h-5ZM16,26h1v1h-1ZM18,26h1v1h-1ZM20,26h1v1h-1ZM22,26h1v1h-1ZM8,27h1v1h-1ZM10,27h1v1h-1ZM12,27h1v1h-1ZM9,28h1v1h-1ZM11,28h1v1h-1Z"/><path fill="rgba(192,192,192,255)" d="M10,2h1v1h-1ZM7,4h1v1h-1ZM7,6h1v1h-1ZM5,7h1v1h-1ZM3,8h1v2h-1ZM6,8h1v1h-1ZM2,10h1v1h-1ZM6,10h1v1h-1ZM10,11h1v1h-1ZM6,12h1v1h-1ZM2,13h1v1h-1ZM18,13h1v1h-1ZM20,13h1v1h-1ZM16,14h1v1h-1ZM21,14h1v1h-1ZM1,15h1v1h-1ZM6,15h1v1h-1ZM15,15h1v1h-1ZM20,15h1v1h-1ZM22,15h1v1h-1ZM2,16h1v1h-1ZM7,16h1v1h-1ZM19,16h1v1h-1ZM21,16h1v1h-1ZM23,16h1v1h-1ZM1,17h1v1h-1ZM3,17h1v1h-1ZM6,17h1v1h-1ZM14,17h1v1h-1ZM18,17h1v1h-1ZM20,17h1v1h-1ZM22,17h1v1h-1ZM2,18h1v1h-1ZM4,18h1v1h-1ZM7,18h2v1h-2ZM19,18h1v1h-1ZM21,18h1v1h-1ZM23,18h1v1h-1ZM1,19h1v1h-1ZM3,19h1v1h-1ZM9,19h1v1h-1ZM14,19h1v1h-1ZM18,19h1v1h-1ZM20,19h1v1h-1ZM22,19h1v1h-1ZM19,20h1v1h-1ZM21,20h1v1h-1ZM18,21h1v1h-1ZM20,21h1v1h-1ZM17,22h1v1h-1ZM19,22h1v1h-1ZM23,23h1v1h-1ZM22,24h1v1h-1ZM24,24h1v1h-1ZM23,25h1v1h-1ZM25,26h1v1h-1ZM26,27h1v1h-1Z"/><path fill="rgba(0,128,0,255)" d="M11,2h1v1h-1ZM14,2h3v1h-3ZM19,2h3v1h-3ZM14,3h10v1h-10ZM14,4h11v1h-11ZM8,5h1v2h-1ZM11,5h1v1h-1ZM13,5h12v1h-12ZM6,6h1v1h-1ZM10,6h16v1h-16ZM9,7h16v1h-16ZM26,7h1v1h-1ZM8,8h6v1h-6ZM19,8h1v1h-1ZM22,8h4v1h-4ZM27,8h1v1h-1ZM9,9h2v1h-2ZM16,9h1v1h-1ZM22,9h5v1h-5ZM28,9h1v1h-1ZM7,10h2v1h-2ZM14,10h1v1h-1ZM16,10h10v1h-10ZM27,10h1v1h-1ZM6,11h2v1h-2ZM19,11h1v1h-1ZM23,11h4v1h-4ZM28,11h1v1h-1ZM10,12h3v1h-3ZM16,12h2v1h-2ZM27,12h1v1h-1ZM29,12h1v1h-1ZM8,13h8v1h-8ZM28,13h1v1h-1ZM7,14h1v1h-1ZM9,14h6v1h-6ZM29,14h1v1h-1ZM8,15h6v1h-6ZM28,15h1v2h-1ZM9,16h5v1h-5ZM7,17h6v1h-6ZM9,18h4v1h-4ZM12,19h1v1h-1ZM2,20h1v1h-1ZM12,20h2v2h-2ZM2,21h2v1h-2ZM3,22h1v1h-1ZM12,22h3v1h-3ZM13,23h3v1h-3ZM13,24h5v1h-5ZM13,25h4v1h-4ZM15,26h1v1h-1ZM14,27h1v1h-1Z"/><path fill="rgba(0,0,0,255)" d="M24,3h1v1h-1ZM25,4h1v1h-1ZM26,5h1v1h-1ZM27,6h1v1h-1ZM28,7h1v2h-1ZM29,9h1v2h-1ZM30,11h1v9h-1ZM22,13h1v1h-1ZM23,14h1v1h-1ZM24,15h1v2h-1ZM25,17h1v3h-1ZM24,20h1v2h-1ZM29,20h1v2h-1ZM23,22h1v1h-1ZM25,22h1v1h-1ZM28,22h1v2h-1ZM16,23h2v1h-2ZM21,23h2v1h-2ZM26,23h1v1h-1ZM18,24h3v1h-3ZM27,24h1v1h-1ZM28,25h1v1h-1ZM29,26h1v1h-1ZM30,27h1v1h-1ZM7,28h2v1h-2ZM22,28h2v1h-2ZM31,28h1v3h-1ZM9,29h2v1h-2ZM20,29h2v1h-2ZM11,30h9v1h-9ZM28,31h3v1h-3Z"/><path fill="rgba(0,0,128,255)" d="M12,4h1v1h-1ZM25,5h1v1h-1ZM26,6h1v1h-1ZM25,7h1v1h-1ZM27,7h1v1h-1ZM26,8h1v1h-1ZM20,9h1v1h-1ZM27,9h1v1h-1ZM10,10h1v1h-1ZM13,10h1v1h-1ZM26,10h1v1h-1ZM28,10h1v1h-1ZM20,11h1v1h-1ZM27,11h1v1h-1ZM29,11h1v1h-1ZM21,12h1v1h-1ZM25,12h1v1h-1ZM28,12h1v1h-1ZM23,13h1v1h-1ZM29,13h1v1h-1ZM27,14h1v1h-1ZM26,15h2v1h-2ZM29,15h1v2h-1ZM27,16h1v1h-1ZM26,17h1v1h-1ZM28,17h2v1h-2ZM27,18h3v1h-3ZM26,19h4v1h-4ZM25,20h1v1h-1ZM27,20h2v1h-2ZM26,21h3v1h-3ZM26,22h2v1h-2ZM27,23h1v1h-1ZM17,25h1v2h-1ZM20,25h1v1h-1ZM6,26h1v1h-1ZM12,26h1v1h-1ZM14,26h1v1h-1ZM19,26h1v1h-1ZM21,26h1v1h-1ZM7,27h1v1h-1ZM9,27h1v1h-1ZM11,27h1v1h-1ZM13,27h1v1h-1ZM15,27h9v1h-9ZM10,28h1v1h-1ZM12,28h10v1h-10ZM11,29h9v1h-9Z"/><path fill="rgba(0,255,255,255)" d="M19,13h1v1h-1ZM18,14h1v1h-1ZM20,14h1v1h-1ZM17,15h1v1h-1ZM19,15h1v1h-1ZM21,15h1v1h-1ZM16,16h1v1h-1ZM18,16h1v1h-1ZM20,16h1v1h-1ZM22,16h1v1h-1ZM15,17h1v1h-1ZM19,17h1v1h-1ZM21,17h1v1h-1ZM23,17h1v1h-1ZM14,18h1v1h-1ZM16,18h1v1h-1ZM18,18h1v1h-1ZM20,18h1v1h-1ZM22,18h1v1h-1ZM15,19h1v1h-1ZM17,19h1v1h-1ZM19,19h1v1h-1ZM21,19h1v1h-1ZM23,19h1v1h-1ZM16,20h1v1h-1ZM18,20h1v1h-1ZM20,20h1v1h-1ZM22,20h1v1h-1ZM17,21h1v1h-1ZM19,21h1v1h-1ZM21,21h1v1h-1ZM18,22h1v1h-1ZM20,22h1v1h-1Z"/><path fill="rgba(128,0,0,255)" d="M26,24h1v1h-1ZM26,25h2v1h-2ZM27,26h2v1h-2ZM24,27h1v1h-1ZM28,27h2v1h-2ZM25,28h1v1h-1ZM29,28h2v1h-2ZM26,29h1v1h-1ZM30,29h1v2h-1ZM27,30h1v1h-1Z"/><path fill="rgba(255,0,0,255)" d="M25,25h1v1h-1ZM24,26h1v1h-1ZM26,26h1v1h-1ZM25,27h1v1h-1ZM27,27h1v1h-1ZM26,28h1v1h-1ZM28,28h1v1h-1ZM27,29h1v1h-1ZM29,29h1v1h-1ZM28,30h2v1h-2Z"/><path fill="rgba(255,0,255,255)" d="M27,28h1v1h-1ZM28,29h1v1h-1Z"/></g></svg>