<svg version="1.1" xmlns="http://www.w3.org/2000/svg" xmlns:xlink="http://www.w3.org/1999/xlink" shape-rendering="crispEdges" width="16" height="16" viewBox="0 0 16 16"><g><path fill="rgba(0,0,0,0)" d="M0,0h16v1h-16ZM0,15h16v1h-16Z"/><path fill="rgba(255,255,255,0)" d="M0,1h6v1h-6ZM8,1h8v1h-8ZM0,2h5v1h-5ZM10,2h6v1h-6ZM0,3h4v1h-4ZM12,3h4v1h-4ZM0,4h3v1h-3ZM14,4h2v1h-2ZM0,5h2v1h-2ZM0,6h1v1h-1ZM15,10h1v1h-1ZM0,11h1v1h-1ZM14,11h2v1h-2ZM0,12h3v1h-3ZM13,12h3v1h-3ZM0,13h5v1h-5ZM12,13h4v1h-4ZM0,14h7v1h-7ZM11,14h5v1h-5Z"/><path fill="rgba(128,128,128,255)" d="M6,1h2v1h-2ZM5,2h1v1h-1ZM8,2h2v1h-2ZM4,3h1v1h-1ZM6,3h1v1h-1ZM10,3h2v1h-2ZM3,4h1v1h-1ZM12,4h2v1h-2ZM2,5h1v1h-1ZM14,5h2v1h-2ZM1,6h1v1h-1ZM12,6h1v1h-1ZM0,7h1v2h-1ZM3,7h2v1h-2ZM6,7h1v1h-1ZM5,8h1v1h-1ZM9,8h1v1h-1ZM14,8h2v1h-2ZM8,9h1v1h-1ZM13,9h1v1h-1ZM1,10h2v1h-2ZM5,10h1v1h-1ZM9,10h1v1h-1ZM12,10h1v1h-1ZM3,11h2v1h-2ZM6,11h2v1h-2ZM11,11h1v1h-1ZM5,12h2v1h-2ZM10,12h1v1h-1ZM7,13h2v1h-2Z"/><path fill="rgba(255,255,0,255)" d="M6,2h1v1h-1ZM9,3h1v1h-1ZM5,4h1v1h-1ZM12,5h1v1h-1ZM2,6h1v1h-1ZM5,6h1v1h-1ZM8,6h1v1h-1ZM10,7h1v1h-1ZM13,7h1v1h-1ZM2,8h1v1h-1ZM7,8h1v1h-1ZM5,9h1v1h-1ZM10,9h1v1h-1ZM7,10h1v1h-1Z"/><path fill="rgba(255,255,255,255)" d="M7,2h1v1h-1ZM5,3h1v1h-1ZM8,3h1v1h-1ZM4,4h1v1h-1ZM6,4h1v1h-1ZM10,4h2v1h-2ZM3,5h1v1h-1ZM6,5h3v1h-3ZM13,5h1v1h-1ZM4,6h1v1h-1ZM9,6h2v1h-2ZM13,6h2v1h-2ZM1,7h1v1h-1ZM7,7h1v1h-1ZM9,7h1v1h-1ZM11,7h2v2h-2ZM8,8h1v1h-1ZM3,9h1v1h-1ZM6,9h1v2h-1ZM9,9h1v1h-1ZM10,10h1v1h-1ZM8,11h2v1h-2Z"/><path fill="rgba(192,192,192,255)" d="M7,3h1v1h-1ZM9,4h1v1h-1ZM11,5h1v1h-1ZM7,6h1v1h-1ZM5,7h1v1h-1ZM15,7h1v1h-1ZM1,8h1v1h-1ZM6,8h1v1h-1ZM1,9h2v1h-2ZM4,9h1v1h-1ZM11,9h1v1h-1ZM14,9h1v1h-1ZM3,10h2v1h-2ZM8,10h1v1h-1ZM13,10h1v1h-1ZM5,11h1v1h-1ZM12,11h1v1h-1ZM7,12h2v1h-2ZM11,12h1v1h-1ZM10,13h1v1h-1Z"/><path fill="rgba(128,0,0,255)" d="M7,4h2v1h-2ZM9,5h2v1h-2ZM11,6h1v1h-1Z"/><path fill="rgba(0,0,0,255)" d="M4,5h2v1h-2ZM3,6h1v1h-1ZM6,6h1v1h-1ZM15,6h1v1h-1ZM2,7h1v1h-1ZM8,7h1v1h-1ZM14,7h1v1h-1ZM3,8h2v1h-2ZM10,8h1v1h-1ZM13,8h1v1h-1ZM0,9h1v2h-1ZM7,9h1v1h-1ZM12,9h1v1h-1ZM15,9h1v1h-1ZM11,10h1v1h-1ZM14,10h1v1h-1ZM1,11h2v1h-2ZM10,11h1v1h-1ZM13,11h1v1h-1ZM3,12h2v1h-2ZM9,12h1v2h-1ZM12,12h1v1h-1ZM5,13h2v1h-2ZM11,13h1v1h-1ZM7,14h4v1h-4Z"/></g></svg>