<svg version="1.1" xmlns="http://www.w3.org/2000/svg" xmlns:xlink="http://www.w3.org/1999/xlink" shape-rendering="crispEdges" width="32" height="32" viewBox="0 0 32 32"><g><path fill="rgba(255,255,255,0)" d="M0,0h9v1h-9ZM27,0h4v1h-4ZM0,1h8v1h-8ZM28,1h3v15h-3ZM0,2h7v1h-7ZM0,3h6v16h-6ZM30,16h1v1h-1ZM0,19h4v1h-4ZM0,20h3v7h-3ZM30,26h1v1h-1ZM0,27h2v1h-2ZM29,27h2v1h-2ZM0,28h1v1h-1ZM28,28h3v1h-3ZM27,29h4v1h-4ZM26,30h5v1h-5ZM0,31h1v1h-1ZM25,31h6v1h-6Z"/><path fill="rgba(128,128,128,255)" d="M9,0h18v1h-18ZM8,1h1v1h-1ZM26,1h1v1h-1ZM7,2h1v1h-1ZM25,2h2v15h-2ZM6,3h1v14h-1ZM9,4h14v1h-14ZM22,5h1v9h-1ZM12,8h1v3h-1ZM14,10h1v3h-1ZM9,14h14v1h-14ZM28,16h2v1h-2ZM6,17h20v1h-20ZM27,17h2v1h-2ZM26,18h2v1h-2ZM29,18h1v1h-1ZM4,19h23v1h-23ZM28,19h2v1h-2ZM3,20h1v6h-1ZM27,20h3v6h-3ZM15,22h10v1h-10ZM21,24h1v1h-1ZM3,26h3v1h-3ZM8,26h1v1h-1ZM11,26h1v1h-1ZM14,26h1v1h-1ZM17,26h1v1h-1ZM20,26h1v1h-1ZM23,26h1v1h-1ZM27,26h2v1h-2ZM2,27h1v1h-1ZM4,27h1v1h-1ZM7,27h1v1h-1ZM10,27h1v1h-1ZM13,27h1v1h-1ZM16,27h1v1h-1ZM19,27h1v1h-1ZM22,27h1v1h-1ZM25,27h2v1h-2ZM1,28h1v1h-1ZM3,28h1v1h-1ZM5,28h2v1h-2ZM8,28h2v1h-2ZM11,28h2v1h-2ZM14,28h2v1h-2ZM17,28h2v1h-2ZM20,28h2v1h-2ZM23,28h4v1h-4ZM0,29h1v2h-1ZM25,29h1v1h-1ZM24,30h1v1h-1Z"/><path fill="rgba(0,0,0,0)" d="M31,0h1v32h-1Z"/><path fill="rgba(192,192,192,255)" d="M9,1h16v1h-16ZM8,3h17v1h-17ZM8,4h1v12h-1ZM24,4h1v12h-1ZM8,16h17v1h-17ZM29,17h1v1h-1ZM28,18h1v1h-1ZM27,19h1v1h-1ZM5,21h22v1h-22ZM5,22h10v1h-10ZM25,22h2v2h-2ZM5,23h2v2h-2ZM9,23h6v1h-6ZM9,24h12v1h-12ZM22,24h5v1h-5ZM5,25h22v1h-22ZM24,29h1v1h-1ZM1,30h23v1h-23Z"/><path fill="rgba(255,255,255,255)" d="M25,1h1v1h-1ZM8,2h17v1h-17ZM7,3h1v14h-1ZM23,4h1v11h-1ZM13,8h4v1h-4ZM13,9h1v2h-1ZM15,10h4v3h-4ZM9,15h15v1h-15ZM4,20h23v1h-23ZM4,21h1v5h-1ZM7,26h1v1h-1ZM10,26h1v1h-1ZM13,26h1v1h-1ZM16,26h1v1h-1ZM19,26h1v1h-1ZM22,26h1v1h-1ZM25,26h1v1h-1ZM3,27h1v1h-1ZM6,27h1v1h-1ZM9,27h1v1h-1ZM12,27h1v1h-1ZM15,27h1v1h-1ZM18,27h1v1h-1ZM21,27h1v1h-1ZM24,27h1v1h-1ZM2,28h1v1h-1ZM1,29h23v1h-23Z"/><path fill="rgba(0,0,0,255)" d="M27,1h1v16h-1ZM9,5h13v1h-13ZM9,6h1v8h-1ZM12,7h6v1h-6ZM17,8h1v1h-1ZM19,9h1v4h-1ZM12,11h2v1h-2ZM14,13h6v1h-6ZM26,17h1v1h-1ZM30,17h1v9h-1ZM6,18h20v1h-20ZM15,23h10v1h-10ZM6,26h1v1h-1ZM9,26h1v1h-1ZM12,26h1v1h-1ZM15,26h1v1h-1ZM18,26h1v1h-1ZM21,26h1v1h-1ZM24,26h1v1h-1ZM26,26h1v1h-1ZM29,26h1v1h-1ZM5,27h1v1h-1ZM8,27h1v1h-1ZM11,27h1v1h-1ZM14,27h1v1h-1ZM17,27h1v1h-1ZM20,27h1v1h-1ZM23,27h1v1h-1ZM27,27h2v1h-2ZM4,28h1v1h-1ZM7,28h1v1h-1ZM10,28h1v1h-1ZM13,28h1v1h-1ZM16,28h1v1h-1ZM19,28h1v1h-1ZM22,28h1v1h-1ZM27,28h1v1h-1ZM26,29h1v1h-1ZM25,30h1v1h-1ZM1,31h24v1h-24Z"/><path fill="rgba(0,128,128,255)" d="M10,6h12v1h-12ZM10,7h1v2h-1ZM18,7h4v2h-4ZM10,9h2v3h-2ZM20,9h2v5h-2ZM10,12h4v2h-4Z"/><path fill="rgba(0,255,255,255)" d="M11,7h1v2h-1Z"/><path fill="rgba(0,0,128,255)" d="M14,9h1v1h-1Z"/><path fill="rgba(0,0,255,255)" d="M15,9h4v1h-4Z"/><path fill="rgba(0,255,0,255)" d="M7,23h2v1h-2Z"/><path fill="rgba(0,128,0,255)" d="M7,24h2v1h-2Z"/></g></svg>