<svg version="1.1" xmlns="http://www.w3.org/2000/svg" xmlns:xlink="http://www.w3.org/1999/xlink" shape-rendering="crispEdges" width="16" height="16" viewBox="0 0 16 16"><g><path fill="rgba(0,0,0,0)" d="M0,0h16v1h-16ZM0,1h1v14h-1ZM0,15h16v1h-16Z"/><path fill="rgba(255,255,255,0)" d="M1,1h5v1h-5ZM14,1h2v1h-2ZM1,2h4v1h-4ZM15,2h1v6h-1ZM1,3h3v7h-3ZM1,10h2v2h-2ZM1,12h1v1h-1ZM15,12h1v1h-1ZM14,13h2v1h-2ZM13,14h3v1h-3Z"/><path fill="rgba(128,128,128,255)" d="M6,1h8v1h-8ZM5,2h1v1h-1ZM13,2h1v1h-1ZM4,3h1v7h-1ZM12,3h2v5h-2ZM10,5h1v2h-1ZM7,7h4v1h-4ZM12,8h1v1h-1ZM14,8h2v1h-2ZM13,9h1v1h-1ZM3,10h1v2h-1ZM12,10h1v1h-1ZM14,10h1v1h-1ZM5,11h1v1h-1ZM7,11h1v1h-1ZM9,11h1v1h-1ZM11,11h1v1h-1ZM13,11h2v1h-2ZM2,12h1v1h-1ZM1,13h1v1h-1Z"/><path fill="rgba(192,192,192,255)" d="M6,2h7v1h-7ZM11,3h1v5h-1ZM6,8h6v1h-6ZM14,9h1v1h-1ZM4,10h8v1h-8ZM13,10h1v1h-1ZM4,12h1v1h-1ZM6,12h1v1h-1ZM8,12h1v1h-1ZM10,12h1v1h-1ZM12,12h1v2h-1Z"/><path fill="rgba(0,0,0,255)" d="M14,2h1v6h-1ZM6,4h5v1h-5ZM6,5h1v3h-1ZM13,8h1v1h-1ZM5,9h8v1h-8ZM15,9h1v3h-1ZM4,11h1v1h-1ZM6,11h1v1h-1ZM8,11h1v1h-1ZM10,11h1v1h-1ZM12,11h1v1h-1ZM3,12h1v1h-1ZM5,12h1v1h-1ZM7,12h1v1h-1ZM9,12h1v1h-1ZM11,12h1v1h-1ZM13,12h2v1h-2ZM13,13h1v1h-1ZM1,14h12v1h-12Z"/><path fill="rgba(255,255,255,255)" d="M5,3h6v1h-6ZM5,4h1v5h-1ZM2,13h10v1h-10Z"/><path fill="rgba(0,255,255,255)" d="M7,5h1v1h-1Z"/><path fill="rgba(0,128,128,255)" d="M8,5h2v1h-2ZM7,6h3v1h-3Z"/></g></svg>