<svg version="1.1" xmlns="http://www.w3.org/2000/svg" xmlns:xlink="http://www.w3.org/1999/xlink" shape-rendering="crispEdges" width="32" height="32" viewBox="0 0 32 32"><g><path fill="rgba(0,0,0,0)" d="M0,0h32v1h-32ZM0,1h1v30h-1ZM31,1h1v30h-1ZM0,31h32v1h-32Z"/><path fill="rgba(255,255,255,0)" d="M1,1h9v1h-9ZM12,1h1v1h-1ZM15,1h1v1h-1ZM18,1h1v1h-1ZM21,1h1v1h-1ZM24,1h1v1h-1ZM27,1h4v1h-4ZM1,2h8v1h-8ZM29,2h2v1h-2ZM1,3h7v2h-7ZM30,3h1v1h-1ZM1,5h6v2h-6ZM1,7h5v2h-5ZM1,9h4v2h-4ZM1,11h3v2h-3ZM1,13h2v2h-2ZM1,15h1v2h-1ZM1,20h1v1h-1ZM1,21h8v7h-8ZM1,28h9v1h-9ZM1,29h10v1h-10ZM30,29h1v1h-1ZM1,30h11v1h-11ZM29,30h2v1h-2Z"/><path fill="rgba(0,0,0,255)" d="M10,1h2v1h-2ZM13,1h2v1h-2ZM16,1h2v1h-2ZM19,1h2v1h-2ZM22,1h2v1h-2ZM25,1h2v1h-2ZM9,2h1v1h-1ZM11,2h2v1h-2ZM14,2h2v1h-2ZM17,2h2v1h-2ZM20,2h2v1h-2ZM23,2h2v1h-2ZM26,2h3v1h-3ZM8,3h1v2h-1ZM10,3h1v1h-1ZM13,3h1v1h-1ZM16,3h1v1h-1ZM19,3h1v1h-1ZM22,3h1v1h-1ZM25,3h1v1h-1ZM28,3h2v1h-2ZM27,4h1v2h-1ZM30,4h1v25h-1ZM7,5h1v2h-1ZM26,6h1v2h-1ZM6,7h1v2h-1ZM11,7h10v1h-10ZM25,8h1v2h-1ZM5,9h1v2h-1ZM10,9h10v1h-10ZM24,10h1v2h-1ZM4,11h1v2h-1ZM23,12h1v2h-1ZM3,13h1v2h-1ZM22,14h1v2h-1ZM2,15h1v2h-1ZM21,16h1v2h-1ZM1,17h1v3h-1ZM20,18h1v2h-1ZM2,20h18v1h-18ZM9,21h1v7h-1ZM10,28h1v1h-1ZM11,29h1v1h-1ZM29,29h1v1h-1ZM12,30h17v1h-17Z"/><path fill="rgba(255,255,255,255)" d="M10,2h1v1h-1ZM13,2h1v1h-1ZM16,2h1v1h-1ZM19,2h1v1h-1ZM22,2h1v1h-1ZM25,2h1v1h-1ZM27,11h1v2h-1ZM26,14h2v2h-2ZM25,17h3v2h-3ZM24,20h4v2h-4ZM23,23h5v2h-5ZM21,26h7v1h-7ZM10,27h17v1h-17Z"/><path fill="rgba(0,255,255,255)" d="M9,3h1v1h-1ZM11,3h1v1h-1ZM15,3h1v1h-1ZM17,3h1v1h-1ZM21,3h1v1h-1ZM23,3h1v1h-1ZM10,4h1v1h-1ZM12,4h1v1h-1ZM14,4h1v1h-1ZM16,4h1v1h-1ZM18,4h1v1h-1ZM20,4h1v1h-1ZM22,4h1v1h-1ZM24,4h1v1h-1ZM9,5h1v1h-1ZM11,5h1v1h-1ZM13,5h1v1h-1ZM15,5h1v1h-1ZM17,5h1v1h-1ZM19,5h1v1h-1ZM21,5h1v1h-1ZM23,5h1v1h-1ZM25,5h1v1h-1ZM8,6h1v1h-1ZM10,6h1v1h-1ZM12,6h1v1h-1ZM14,6h1v1h-1ZM16,6h1v1h-1ZM18,6h1v1h-1ZM20,6h1v1h-1ZM22,6h1v1h-1ZM24,6h1v1h-1ZM7,7h1v1h-1ZM9,7h1v1h-1ZM21,7h1v1h-1ZM23,7h1v1h-1ZM8,8h1v1h-1ZM10,8h1v1h-1ZM12,8h1v1h-1ZM14,8h1v1h-1ZM16,8h1v1h-1ZM18,8h1v1h-1ZM20,8h1v1h-1ZM22,8h1v1h-1ZM7,9h1v1h-1ZM9,9h1v1h-1ZM21,9h1v1h-1ZM23,9h1v1h-1ZM6,10h1v1h-1ZM8,10h1v1h-1ZM10,10h1v1h-1ZM12,10h1v1h-1ZM14,10h1v1h-1ZM16,10h1v1h-1ZM18,10h1v1h-1ZM20,10h1v1h-1ZM22,10h1v1h-1ZM5,11h1v1h-1ZM7,11h1v1h-1ZM9,11h1v1h-1ZM11,11h1v1h-1ZM13,11h1v1h-1ZM15,11h1v1h-1ZM17,11h1v1h-1ZM19,11h1v1h-1ZM21,11h1v1h-1ZM6,12h1v1h-1ZM8,12h1v1h-1ZM10,12h1v1h-1ZM12,12h1v1h-1ZM14,12h1v1h-1ZM16,12h1v1h-1ZM18,12h1v1h-1ZM20,12h1v1h-1ZM5,13h1v1h-1ZM7,13h1v1h-1ZM9,13h1v1h-1ZM11,13h1v1h-1ZM13,13h1v1h-1ZM15,13h1v1h-1ZM17,13h1v1h-1ZM19,13h1v1h-1ZM21,13h1v1h-1ZM4,14h1v1h-1ZM6,14h1v1h-1ZM8,14h1v1h-1ZM10,14h1v1h-1ZM12,14h1v1h-1ZM14,14h1v1h-1ZM16,14h1v1h-1ZM18,14h1v1h-1ZM20,14h1v1h-1ZM3,15h1v1h-1ZM5,15h1v1h-1ZM7,15h1v1h-1ZM9,15h1v1h-1ZM11,15h1v1h-1ZM13,15h1v1h-1ZM15,15h1v1h-1ZM17,15h1v1h-1ZM19,15h1v1h-1ZM4,16h1v1h-1ZM6,16h1v1h-1ZM8,16h1v1h-1ZM10,16h1v1h-1ZM12,16h1v1h-1ZM14,16h1v1h-1ZM16,16h1v1h-1ZM18,16h1v1h-1ZM3,17h1v1h-1ZM5,17h1v1h-1ZM7,17h1v1h-1ZM9,17h1v1h-1ZM11,17h1v1h-1ZM13,17h1v1h-1ZM15,17h1v1h-1ZM17,17h1v1h-1ZM19,17h1v1h-1ZM2,18h1v1h-1ZM4,18h1v1h-1ZM6,18h1v1h-1ZM8,18h1v1h-1ZM10,18h1v1h-1ZM12,18h1v1h-1ZM14,18h1v1h-1ZM16,18h1v1h-1ZM18,18h1v1h-1Z"/><path fill="rgba(192,192,192,255)" d="M12,3h1v1h-1ZM14,3h1v1h-1ZM18,3h1v1h-1ZM20,3h1v1h-1ZM24,3h1v1h-1ZM26,3h1v1h-1ZM9,4h1v1h-1ZM11,4h1v1h-1ZM13,4h1v1h-1ZM15,4h1v1h-1ZM17,4h1v1h-1ZM19,4h1v1h-1ZM21,4h1v1h-1ZM23,4h1v1h-1ZM25,4h1v1h-1ZM28,4h1v2h-1ZM8,5h1v1h-1ZM10,5h1v1h-1ZM12,5h1v1h-1ZM14,5h1v1h-1ZM16,5h1v1h-1ZM18,5h1v1h-1ZM20,5h1v1h-1ZM22,5h1v1h-1ZM24,5h1v1h-1ZM9,6h1v1h-1ZM11,6h1v1h-1ZM13,6h1v1h-1ZM15,6h1v1h-1ZM17,6h1v1h-1ZM19,6h1v1h-1ZM21,6h1v1h-1ZM23,6h1v1h-1ZM27,6h2v2h-2ZM8,7h1v1h-1ZM10,7h1v1h-1ZM22,7h1v1h-1ZM24,7h1v1h-1ZM7,8h1v1h-1ZM9,8h1v1h-1ZM11,8h1v1h-1ZM13,8h1v1h-1ZM15,8h1v1h-1ZM17,8h1v1h-1ZM19,8h1v1h-1ZM21,8h1v1h-1ZM23,8h1v1h-1ZM26,8h3v2h-3ZM6,9h1v1h-1ZM8,9h1v1h-1ZM20,9h1v1h-1ZM22,9h1v1h-1ZM7,10h1v1h-1ZM9,10h1v1h-1ZM11,10h1v1h-1ZM13,10h1v1h-1ZM15,10h1v1h-1ZM17,10h1v1h-1ZM19,10h1v1h-1ZM21,10h1v1h-1ZM28,10h1v17h-1ZM6,11h1v1h-1ZM8,11h1v1h-1ZM10,11h1v1h-1ZM12,11h1v1h-1ZM14,11h1v1h-1ZM16,11h1v1h-1ZM18,11h1v1h-1ZM20,11h1v1h-1ZM22,11h1v1h-1ZM25,11h2v1h-2ZM5,12h1v1h-1ZM7,12h1v1h-1ZM9,12h1v1h-1ZM11,12h1v1h-1ZM13,12h1v1h-1ZM15,12h1v1h-1ZM17,12h1v1h-1ZM19,12h1v1h-1ZM21,12h1v1h-1ZM24,12h3v1h-3ZM4,13h1v1h-1ZM6,13h1v1h-1ZM8,13h1v1h-1ZM10,13h1v1h-1ZM12,13h1v1h-1ZM14,13h1v1h-1ZM16,13h1v1h-1ZM18,13h1v1h-1ZM20,13h1v1h-1ZM5,14h1v1h-1ZM7,14h1v1h-1ZM9,14h1v1h-1ZM11,14h1v1h-1ZM13,14h1v1h-1ZM15,14h1v1h-1ZM17,14h1v1h-1ZM19,14h1v1h-1ZM23,14h3v2h-3ZM4,15h1v1h-1ZM6,15h1v1h-1ZM8,15h1v1h-1ZM10,15h1v1h-1ZM12,15h1v1h-1ZM14,15h1v1h-1ZM16,15h1v1h-1ZM18,15h1v1h-1ZM20,15h1v1h-1ZM3,16h1v1h-1ZM5,16h1v1h-1ZM7,16h1v1h-1ZM9,16h1v1h-1ZM11,16h1v1h-1ZM13,16h1v1h-1ZM15,16h1v1h-1ZM17,16h1v1h-1ZM19,16h1v1h-1ZM2,17h1v1h-1ZM4,17h1v1h-1ZM6,17h1v1h-1ZM8,17h1v1h-1ZM10,17h1v1h-1ZM12,17h1v1h-1ZM14,17h1v1h-1ZM16,17h1v1h-1ZM18,17h1v1h-1ZM22,17h3v1h-3ZM3,18h1v1h-1ZM5,18h1v1h-1ZM7,18h1v1h-1ZM9,18h1v1h-1ZM11,18h1v1h-1ZM13,18h1v1h-1ZM15,18h1v1h-1ZM17,18h1v1h-1ZM21,18h4v1h-4ZM20,20h4v1h-4ZM10,21h14v1h-14ZM10,23h13v2h-13ZM10,26h11v1h-11ZM27,27h2v1h-2ZM11,28h17v1h-17Z"/><path fill="rgba(0,128,128,255)" d="M27,3h1v1h-1ZM26,4h1v2h-1ZM25,6h1v2h-1ZM24,8h1v2h-1ZM23,10h1v2h-1ZM22,12h1v2h-1ZM21,14h1v2h-1ZM20,16h1v2h-1ZM19,18h1v1h-1ZM2,19h18v1h-18Z"/><path fill="rgba(128,128,128,255)" d="M29,4h1v24h-1ZM25,10h3v1h-3ZM24,13h4v1h-4ZM22,16h6v1h-6ZM21,19h7v1h-7ZM10,22h18v1h-18ZM10,25h18v1h-18ZM28,28h2v1h-2ZM12,29h17v1h-17Z"/></g></svg>