<svg version="1.1" xmlns="http://www.w3.org/2000/svg" xmlns:xlink="http://www.w3.org/1999/xlink" shape-rendering="crispEdges" width="16" height="16" viewBox="0 0 16 16"><g><path fill="rgba(255,255,255,0)" d="M0,0h5v1h-5ZM14,0h2v1h-2ZM0,1h4v1h-4ZM15,1h1v1h-1ZM0,2h3v2h-3ZM0,4h2v2h-2ZM0,6h1v2h-1ZM0,11h4v4h-4ZM0,15h5v1h-5ZM15,15h1v1h-1Z"/><path fill="rgba(0,0,0,255)" d="M5,0h9v1h-9ZM4,1h1v1h-1ZM13,1h2v1h-2ZM3,2h1v1h-1ZM13,2h1v2h-1ZM15,2h1v13h-1ZM2,4h1v1h-1ZM12,4h1v2h-1ZM1,6h1v1h-1ZM11,6h1v2h-1ZM0,8h1v1h-1ZM10,8h1v2h-1ZM0,10h10v1h-10ZM4,11h1v4h-1ZM5,15h10v1h-10Z"/><path fill="rgba(128,128,128,255)" d="M5,1h1v1h-1ZM8,1h1v1h-1ZM11,1h1v1h-1ZM14,14h1v1h-1Z"/><path fill="rgba(0,128,128,255)" d="M6,1h2v1h-2ZM9,1h2v1h-2ZM12,1h1v1h-1ZM3,3h1v1h-1ZM5,3h6v1h-6ZM12,3h1v1h-1ZM5,4h5v1h-5ZM2,5h1v1h-1ZM11,5h1v1h-1ZM1,7h1v1h-1ZM10,7h1v1h-1ZM0,9h1v1h-1ZM9,9h1v1h-1Z"/><path fill="rgba(0,255,255,255)" d="M4,2h9v1h-9ZM4,3h1v1h-1ZM11,3h1v1h-1ZM3,4h2v1h-2ZM10,4h2v1h-2ZM3,5h8v1h-8ZM2,6h9v1h-9ZM2,7h8v1h-8ZM1,8h9v1h-9ZM1,9h8v1h-8Z"/><path fill="rgba(192,192,192,255)" d="M14,2h1v2h-1ZM13,4h2v2h-2ZM12,6h3v2h-3ZM11,8h4v1h-4ZM11,9h2v1h-2ZM14,9h1v1h-1ZM10,10h5v1h-5ZM5,11h10v1h-10ZM5,12h7v1h-7ZM14,12h1v1h-1ZM5,13h10v1h-10ZM5,14h9v1h-9Z"/><path fill="rgba(255,255,255,255)" d="M13,9h1v1h-1ZM12,12h2v1h-2Z"/></g></svg>