<svg version="1.1" xmlns="http://www.w3.org/2000/svg" xmlns:xlink="http://www.w3.org/1999/xlink" shape-rendering="crispEdges" width="24" height="24" viewBox="0 0 24 24"><g><path fill="rgba(255,255,255,0)" d="M0,0h2v1h-2ZM10,0h14v1h-14ZM0,1h1v1h-1ZM11,1h13v1h-13ZM18,2h6v1h-6ZM19,3h5v1h-5ZM20,4h4v3h-4ZM0,16h1v1h-1ZM0,17h5v7h-5Z"/><path fill="rgba(128,128,128,255)" d="M2,0h8v1h-8ZM1,1h1v1h-1ZM10,1h1v1h-1ZM0,2h1v13h-1ZM11,2h7v1h-7ZM5,7h18v1h-18ZM5,8h1v15h-1ZM8,19h3v1h-3ZM13,19h3v1h-3ZM18,19h3v1h-3Z"/><path fill="rgba(255,255,255,255)" d="M2,1h1v1h-1ZM1,3h17v1h-17ZM1,4h1v11h-1ZM16,9h1v1h-1ZM18,9h1v1h-1ZM20,9h1v1h-1ZM7,12h15v2h-15ZM7,14h2v1h-2ZM11,14h2v3h-2ZM14,14h5v1h-5ZM20,14h2v1h-2ZM7,15h1v3h-1ZM16,15h3v1h-3ZM21,15h1v3h-1ZM16,16h2v2h-2ZM10,17h2v1h-2ZM7,18h15v1h-15ZM7,19h1v1h-1ZM11,19h2v1h-2ZM16,19h2v1h-2ZM21,19h1v1h-1ZM7,20h15v2h-15Z"/><path fill="rgba(255,255,0,255)" d="M3,1h7v1h-7ZM2,4h1v1h-1ZM4,4h1v1h-1ZM6,4h1v1h-1ZM8,4h1v1h-1ZM10,4h1v1h-1ZM12,4h1v1h-1ZM14,4h1v1h-1ZM16,4h1v1h-1ZM3,5h1v1h-1ZM5,5h1v1h-1ZM7,5h1v1h-1ZM9,5h1v1h-1ZM11,5h1v1h-1ZM13,5h1v1h-1ZM15,5h1v1h-1ZM17,5h1v1h-1ZM2,6h1v1h-1ZM4,6h1v1h-1ZM6,6h1v1h-1ZM8,6h1v1h-1ZM10,6h1v1h-1ZM12,6h1v1h-1ZM14,6h1v1h-1ZM16,6h1v1h-1ZM3,7h1v1h-1ZM2,8h1v1h-1ZM4,8h1v1h-1ZM3,9h1v1h-1ZM2,10h1v1h-1ZM4,10h1v1h-1ZM3,11h1v1h-1ZM2,12h1v1h-1ZM4,12h1v1h-1ZM3,13h1v1h-1ZM2,14h1v1h-1ZM4,14h1v1h-1ZM9,15h1v1h-1Z"/><path fill="rgba(192,192,192,255)" d="M1,2h10v1h-10ZM3,4h1v1h-1ZM5,4h1v1h-1ZM7,4h1v1h-1ZM9,4h1v1h-1ZM11,4h1v1h-1ZM13,4h1v1h-1ZM15,4h1v1h-1ZM17,4h1v1h-1ZM2,5h1v1h-1ZM4,5h1v1h-1ZM6,5h1v1h-1ZM8,5h1v1h-1ZM10,5h1v1h-1ZM12,5h1v1h-1ZM14,5h1v1h-1ZM16,5h1v1h-1ZM3,6h1v1h-1ZM5,6h1v1h-1ZM7,6h1v1h-1ZM9,6h1v1h-1ZM11,6h1v1h-1ZM13,6h1v1h-1ZM15,6h1v1h-1ZM17,6h1v1h-1ZM2,7h1v1h-1ZM4,7h1v1h-1ZM3,8h1v1h-1ZM6,8h17v1h-17ZM2,9h1v1h-1ZM4,9h1v1h-1ZM6,9h1v2h-1ZM22,9h1v2h-1ZM3,10h1v1h-1ZM2,11h1v1h-1ZM4,11h1v1h-1ZM6,11h17v1h-17ZM3,12h1v1h-1ZM6,12h1v10h-1ZM22,12h1v10h-1ZM2,13h1v1h-1ZM4,13h1v1h-1ZM3,14h1v1h-1ZM15,16h1v1h-1ZM8,17h1v1h-1ZM13,17h1v1h-1ZM6,22h17v1h-17Z"/><path fill="rgba(0,0,0,255)" d="M18,3h1v1h-1ZM19,4h1v3h-1ZM23,7h1v16h-1ZM17,9h1v1h-1ZM19,9h1v1h-1ZM21,9h1v1h-1ZM16,10h6v1h-6ZM1,16h4v1h-4ZM5,23h19v1h-19Z"/><path fill="rgba(128,128,0,255)" d="M18,4h1v3h-1ZM0,15h5v1h-5Z"/><path fill="rgba(0,0,128,255)" d="M7,9h9v2h-9Z"/><path fill="rgba(255,0,0,255)" d="M9,14h1v1h-1ZM8,15h1v1h-1ZM9,16h1v1h-1Z"/><path fill="rgba(128,0,0,255)" d="M10,14h1v3h-1ZM8,16h1v1h-1ZM9,17h1v1h-1Z"/><path fill="rgba(0,0,255,255)" d="M13,14h1v1h-1ZM14,15h2v1h-2ZM13,16h2v1h-2ZM20,16h1v1h-1Z"/><path fill="rgba(0,128,0,255)" d="M19,14h1v1h-1ZM19,15h2v1h-2ZM18,16h1v1h-1ZM18,17h3v1h-3Z"/><path fill="rgba(0,255,255,255)" d="M13,15h1v1h-1Z"/><path fill="rgba(0,255,0,255)" d="M19,16h1v1h-1Z"/><path fill="rgba(128,0,128,255)" d="M12,17h1v1h-1ZM14,17h2v1h-2Z"/></g></svg>