<svg version="1.1" xmlns="http://www.w3.org/2000/svg" xmlns:xlink="http://www.w3.org/1999/xlink" shape-rendering="crispEdges" width="16" height="16" viewBox="0 0 16 16"><g><path fill="rgba(255,255,255,0)" d="M0,0h2v1h-2ZM7,0h9v1h-9ZM0,1h1v1h-1ZM8,1h8v1h-8ZM14,2h2v1h-2ZM15,3h1v2h-1ZM0,12h1v1h-1ZM0,13h4v3h-4Z"/><path fill="rgba(128,128,128,255)" d="M2,0h5v1h-5ZM1,1h1v1h-1ZM7,1h1v1h-1ZM0,2h1v9h-1ZM8,2h6v1h-6ZM13,3h1v2h-1ZM4,5h11v1h-11ZM4,6h1v5h-1ZM0,11h5v1h-5ZM4,12h1v3h-1Z"/><path fill="rgba(192,192,192,255)" d="M2,1h1v1h-1ZM4,1h1v1h-1ZM6,1h1v1h-1ZM1,2h1v1h-1ZM3,2h1v1h-1ZM5,2h1v1h-1ZM7,2h1v1h-1ZM3,4h1v1h-1ZM5,4h1v1h-1ZM7,4h1v1h-1ZM9,4h1v1h-1ZM11,4h1v1h-1ZM2,5h1v1h-1ZM3,6h1v1h-1ZM5,6h10v1h-10ZM2,7h1v1h-1ZM5,7h1v2h-1ZM14,7h1v7h-1ZM3,8h1v1h-1ZM2,9h1v1h-1ZM3,10h1v1h-1ZM11,12h1v1h-1ZM5,14h10v1h-10Z"/><path fill="rgba(255,255,0,255)" d="M3,1h1v1h-1ZM5,1h1v1h-1ZM2,2h1v1h-1ZM4,2h1v1h-1ZM6,2h1v1h-1ZM2,4h1v1h-1ZM4,4h1v1h-1ZM6,4h1v1h-1ZM8,4h1v1h-1ZM10,4h1v1h-1ZM12,4h1v1h-1ZM3,5h1v1h-1ZM2,6h1v1h-1ZM3,7h1v1h-1ZM2,8h1v1h-1ZM3,9h1v1h-1ZM2,10h1v1h-1ZM7,10h1v1h-1Z"/><path fill="rgba(255,255,255,255)" d="M1,3h12v1h-12ZM1,4h1v7h-1ZM5,9h9v1h-9ZM5,10h2v1h-2ZM9,10h2v2h-2ZM12,10h2v1h-2ZM5,11h1v1h-1ZM13,11h1v2h-1ZM5,12h2v1h-2ZM8,12h2v1h-2ZM5,13h9v1h-9Z"/><path fill="rgba(0,0,0,255)" d="M14,3h1v2h-1ZM15,5h1v10h-1ZM1,12h3v1h-3ZM4,15h12v1h-12Z"/><path fill="rgba(0,0,128,255)" d="M6,7h8v2h-8Z"/><path fill="rgba(87,56,0,255)" d="M8,10h1v2h-1ZM6,11h1v1h-1ZM7,12h1v1h-1Z"/><path fill="rgba(0,0,255,255)" d="M11,10h1v1h-1ZM12,11h1v1h-1Z"/><path fill="rgba(255,0,0,255)" d="M7,11h1v1h-1Z"/><path fill="rgba(0,255,255,255)" d="M11,11h1v1h-1Z"/><path fill="rgba(128,0,128,255)" d="M10,12h1v1h-1ZM12,12h1v1h-1Z"/></g></svg>