<svg version="1.1" xmlns="http://www.w3.org/2000/svg" xmlns:xlink="http://www.w3.org/1999/xlink" shape-rendering="crispEdges" width="16" height="16" viewBox="0 0 16 16"><g><path fill="rgba(0,0,0,0)" d="M0,0h1v16h-1Z"/><path fill="rgba(255,255,255,0)" d="M1,0h4v1h-4ZM9,0h7v1h-7ZM1,1h2v1h-2ZM11,1h5v1h-5ZM13,2h3v1h-3ZM15,3h1v1h-1ZM1,6h1v4h-1ZM15,8h1v4h-1ZM1,10h2v3h-2ZM14,12h2v3h-2ZM1,13h4v1h-4ZM1,14h6v1h-6ZM1,15h8v1h-8ZM13,15h3v1h-3Z"/><path fill="rgba(128,128,128,255)" d="M5,0h4v1h-4ZM3,1h2v1h-2ZM6,1h1v1h-1ZM9,1h2v1h-2ZM1,2h2v1h-2ZM5,2h1v1h-1ZM11,2h2v1h-2ZM1,3h1v3h-1ZM4,3h2v1h-2ZM7,3h1v1h-1ZM13,3h2v1h-2ZM7,4h2v1h-2ZM8,5h1v1h-1ZM14,5h1v1h-1ZM2,6h1v4h-1ZM12,6h3v1h-3ZM11,7h4v1h-4ZM11,8h3v4h-3ZM3,10h1v2h-1ZM11,12h2v3h-2Z"/><path fill="rgba(255,255,255,255)" d="M5,1h1v1h-1ZM7,1h2v1h-2ZM3,2h2v1h-2ZM9,2h2v1h-2ZM2,3h2v1h-2ZM11,3h2v1h-2ZM4,4h2v1h-2ZM13,4h2v1h-2ZM6,5h2v1h-2ZM12,5h2v1h-2ZM8,6h4v1h-4Z"/><path fill="rgba(0,0,0,255)" d="M6,2h1v3h-1ZM15,4h1v4h-1ZM14,8h1v4h-1ZM3,12h2v1h-2ZM13,12h1v3h-1ZM5,13h2v1h-2ZM7,14h2v1h-2ZM9,15h4v1h-4Z"/><path fill="rgba(192,192,192,255)" d="M7,2h2v1h-2ZM8,3h3v1h-3ZM2,4h2v1h-2ZM9,4h4v1h-4ZM2,5h4v1h-4ZM9,5h3v1h-3ZM3,6h3v1h-3ZM3,7h2v1h-2ZM6,7h2v1h-2ZM10,7h1v2h-1ZM3,8h1v1h-1ZM7,8h1v1h-1ZM3,9h2v1h-2ZM6,9h5v1h-5ZM4,10h1v1h-1ZM6,10h1v1h-1ZM8,10h1v1h-1ZM10,10h1v2h-1ZM4,11h2v1h-2ZM5,12h2v1h-2ZM8,12h3v1h-3ZM7,13h4v1h-4ZM9,14h2v1h-2Z"/><path fill="rgba(0,128,0,255)" d="M6,6h2v1h-2ZM5,7h1v1h-1ZM8,7h2v2h-2ZM4,8h3v1h-3ZM5,9h1v2h-1ZM7,10h1v1h-1ZM9,10h1v1h-1ZM6,11h4v1h-4ZM7,12h1v1h-1Z"/></g></svg>