<svg version="1.1" xmlns="http://www.w3.org/2000/svg" xmlns:xlink="http://www.w3.org/1999/xlink" shape-rendering="crispEdges" width="32" height="32" viewBox="0 0 32 32"><g><path fill="rgba(0,0,0,0)" d="M0,0h1v32h-1ZM30,0h2v32h-2Z"/><path fill="rgba(255,255,255,0)" d="M1,0h9v1h-9ZM13,0h17v1h-17ZM1,1h6v1h-6ZM15,1h15v1h-15ZM1,2h3v1h-3ZM17,2h13v1h-13ZM1,3h1v1h-1ZM19,3h11v1h-11ZM21,4h9v1h-9ZM23,5h7v1h-7ZM25,6h5v1h-5ZM27,7h3v1h-3ZM29,8h1v1h-1ZM1,9h1v4h-1ZM1,13h2v4h-2ZM29,13h1v4h-1ZM1,17h3v4h-3ZM28,17h2v4h-2ZM1,21h4v4h-4ZM27,21h3v4h-3ZM1,25h5v1h-5ZM26,25h4v4h-4ZM1,26h7v1h-7ZM1,27h9v1h-9ZM1,28h11v1h-11ZM1,29h13v1h-13ZM25,29h5v1h-5ZM1,30h15v1h-15ZM23,30h7v1h-7ZM1,31h17v1h-17ZM21,31h9v1h-9Z"/><path fill="rgba(128,128,128,255)" d="M10,0h3v1h-3ZM7,1h3v1h-3ZM11,1h1v1h-1ZM13,1h2v1h-2ZM4,2h3v1h-3ZM10,2h1v1h-1ZM12,2h1v2h-1ZM15,2h2v1h-2ZM2,3h2v1h-2ZM7,3h4v1h-4ZM17,3h2v1h-2ZM1,4h1v5h-1ZM4,4h7v1h-7ZM12,4h2v2h-2ZM19,4h2v1h-2ZM3,5h8v1h-8ZM21,5h2v1h-2ZM4,6h7v1h-7ZM12,6h3v2h-3ZM23,6h2v1h-2ZM6,7h5v1h-5ZM25,7h2v1h-2ZM8,8h3v1h-3ZM12,8h4v2h-4ZM27,8h2v1h-2ZM2,9h1v4h-1ZM10,9h1v1h-1ZM12,10h5v1h-5ZM14,11h4v1h-4ZM27,11h2v1h-2ZM16,12h2v1h-2ZM24,12h5v1h-5ZM3,13h1v4h-1ZM11,13h1v1h-1ZM21,13h7v1h-7ZM19,14h9v3h-9ZM4,17h1v4h-1ZM19,17h8v4h-8ZM5,21h1v3h-1ZM8,21h1v1h-1ZM15,21h1v1h-1ZM19,21h7v4h-7ZM10,23h1v1h-1ZM5,24h3v1h-3ZM11,24h1v1h-1ZM8,25h2v1h-2ZM12,25h1v1h-1ZM19,25h6v4h-6ZM10,26h2v1h-2ZM12,27h2v1h-2ZM14,28h2v1h-2ZM16,29h2v1h-2ZM19,29h4v1h-4ZM18,30h3v1h-3Z"/><path fill="rgba(255,255,255,255)" d="M10,1h1v1h-1ZM12,1h1v1h-1ZM7,2h3v1h-3ZM13,2h2v1h-2ZM4,3h3v1h-3ZM15,3h2v1h-2ZM2,4h2v1h-2ZM17,4h2v1h-2ZM2,5h1v1h-1ZM19,5h2v1h-2ZM2,6h2v1h-2ZM21,6h2v1h-2ZM4,7h2v1h-2ZM23,7h2v1h-2ZM6,8h2v1h-2ZM25,8h2v1h-2ZM8,9h2v1h-2ZM27,9h2v2h-2ZM10,10h2v1h-2ZM12,11h2v1h-2ZM24,11h3v1h-3ZM14,12h2v1h-2ZM21,12h3v1h-3ZM16,13h5v1h-5Z"/><path fill="rgba(0,0,0,255)" d="M11,2h1v8h-1ZM29,9h1v4h-1ZM28,13h1v4h-1ZM27,17h1v4h-1ZM26,21h1v4h-1ZM6,25h2v1h-2ZM25,25h1v4h-1ZM8,26h2v1h-2ZM10,27h2v1h-2ZM12,28h2v1h-2ZM14,29h2v1h-2ZM23,29h2v1h-2ZM16,30h2v1h-2ZM21,30h2v1h-2ZM18,31h3v1h-3Z"/><path fill="rgba(192,192,192,255)" d="M13,3h2v1h-2ZM14,4h3v1h-3ZM14,5h5v1h-5ZM15,6h6v1h-6ZM2,7h2v1h-2ZM15,7h8v1h-8ZM2,8h4v1h-4ZM16,8h9v1h-9ZM3,9h5v1h-5ZM16,9h11v1h-11ZM3,10h7v1h-7ZM17,10h10v1h-10ZM3,11h9v1h-9ZM18,11h6v1h-6ZM3,12h11v1h-11ZM18,12h3v1h-3ZM4,13h7v1h-7ZM14,13h2v1h-2ZM4,14h6v1h-6ZM15,14h1v1h-1ZM17,14h2v4h-2ZM4,15h2v1h-2ZM10,15h3v1h-3ZM4,16h3v1h-3ZM10,16h4v1h-4ZM5,17h1v4h-1ZM10,17h3v1h-3ZM8,18h1v1h-1ZM10,18h9v1h-9ZM8,19h8v1h-8ZM17,19h2v4h-2ZM8,20h4v1h-4ZM13,20h3v1h-3ZM6,21h1v1h-1ZM9,21h2v1h-2ZM13,21h2v1h-2ZM6,22h2v1h-2ZM9,22h1v1h-1ZM6,23h4v1h-4ZM16,23h3v1h-3ZM8,24h3v1h-3ZM13,24h6v2h-6ZM10,25h2v1h-2ZM12,26h7v1h-7ZM14,27h5v1h-5ZM16,28h3v1h-3ZM18,29h1v1h-1Z"/><path fill="rgba(0,128,0,255)" d="M12,13h2v1h-2ZM10,14h5v1h-5ZM16,14h1v1h-1ZM6,15h4v1h-4ZM13,15h4v1h-4ZM7,16h3v1h-3ZM14,16h3v1h-3ZM6,17h4v1h-4ZM13,17h4v1h-4ZM6,18h2v3h-2ZM9,18h1v1h-1ZM16,19h1v3h-1ZM12,20h1v1h-1ZM7,21h1v1h-1ZM11,21h2v1h-2ZM8,22h1v1h-1ZM10,22h7v1h-7ZM11,23h5v1h-5ZM12,24h1v1h-1Z"/></g></svg>