<svg version="1.1" xmlns="http://www.w3.org/2000/svg" xmlns:xlink="http://www.w3.org/1999/xlink" shape-rendering="crispEdges" width="24" height="24" viewBox="0 0 24 24"><g><path fill="rgba(0,0,0,0)" d="M0,0h24v1h-24ZM0,23h24v1h-24Z"/><path fill="rgba(255,255,255,0)" d="M0,1h5v6h-5ZM0,9h1v4h-1ZM0,13h2v1h-2ZM0,14h3v2h-3ZM0,16h2v1h-2ZM0,17h1v4h-1ZM9,18h15v3h-15ZM10,21h14v2h-14Z"/><path fill="rgba(128,128,128,255)" d="M5,1h18v1h-18ZM5,2h1v5h-1ZM1,10h1v3h-1ZM7,10h1v3h-1ZM3,12h1v1h-1ZM2,13h1v1h-1ZM6,13h1v1h-1ZM12,13h3v1h-3ZM17,13h3v1h-3ZM3,14h1v2h-1ZM5,14h1v2h-1ZM2,16h1v1h-1ZM4,16h1v1h-1ZM6,16h1v1h-1ZM1,17h1v3h-1ZM7,17h1v3h-1Z"/><path fill="rgba(0,0,0,255)" d="M23,1h1v16h-1ZM17,3h1v1h-1ZM19,3h1v1h-1ZM21,3h1v1h-1ZM16,4h6v1h-6ZM9,7h1v2h-1ZM1,9h8v1h-8ZM8,10h1v3h-1ZM5,12h1v1h-1ZM4,13h1v1h-1ZM7,13h1v1h-1ZM6,14h1v2h-1ZM7,16h1v1h-1ZM8,17h16v1h-16ZM4,18h1v1h-1ZM8,18h1v2h-1ZM3,19h1v1h-1ZM5,19h1v1h-1ZM1,20h8v1h-8ZM9,21h1v1h-1ZM0,22h10v1h-10Z"/><path fill="rgba(192,192,192,255)" d="M6,2h17v1h-17ZM6,3h1v2h-1ZM22,3h1v2h-1ZM6,5h17v1h-17ZM6,6h1v1h-1ZM22,6h1v10h-1ZM2,8h2v1h-2ZM4,10h3v2h-3ZM14,10h1v1h-1ZM12,11h1v1h-1ZM2,12h1v1h-1ZM4,12h1v1h-1ZM6,12h1v1h-1ZM3,13h1v1h-1ZM5,13h1v1h-1ZM3,16h1v1h-1ZM5,16h1v1h-1ZM8,16h15v1h-15ZM2,17h1v1h-1ZM4,17h3v1h-3ZM5,18h2v1h-2ZM4,19h1v1h-1ZM6,19h1v1h-1ZM2,21h2v1h-2Z"/><path fill="rgba(0,0,128,255)" d="M7,3h9v2h-9Z"/><path fill="rgba(255,255,255,255)" d="M16,3h1v1h-1ZM18,3h1v1h-1ZM20,3h1v1h-1ZM7,6h15v1h-15ZM10,7h12v1h-12ZM10,8h2v1h-2ZM13,8h5v1h-5ZM19,8h3v1h-3ZM9,9h3v2h-3ZM15,9h3v1h-3ZM20,9h2v3h-2ZM2,10h2v2h-2ZM15,10h2v2h-2ZM9,11h2v1h-2ZM9,12h13v1h-13ZM8,13h4v1h-4ZM15,13h2v1h-2ZM20,13h2v1h-2ZM4,14h1v2h-1ZM7,14h15v2h-15ZM3,17h1v1h-1ZM2,18h2v1h-2ZM2,19h1v1h-1Z"/><path fill="rgba(128,0,0,255)" d="M0,7h9v1h-9ZM0,8h1v1h-1ZM0,21h1v1h-1Z"/><path fill="rgba(255,0,0,255)" d="M1,8h1v1h-1ZM4,8h5v1h-5ZM1,21h1v1h-1ZM4,21h5v1h-5Z"/><path fill="rgba(0,0,255,255)" d="M12,8h1v1h-1ZM13,9h2v1h-2ZM12,10h2v1h-2ZM19,10h1v1h-1Z"/><path fill="rgba(0,128,0,255)" d="M18,8h1v1h-1ZM18,9h2v1h-2ZM17,10h1v1h-1ZM17,11h3v1h-3Z"/><path fill="rgba(0,255,255,255)" d="M12,9h1v1h-1Z"/><path fill="rgba(0,255,0,255)" d="M18,10h1v1h-1Z"/><path fill="rgba(128,0,128,255)" d="M11,11h1v1h-1ZM13,11h2v1h-2Z"/></g></svg>