<svg version="1.1" xmlns="http://www.w3.org/2000/svg" xmlns:xlink="http://www.w3.org/1999/xlink" shape-rendering="crispEdges" width="24" height="24" viewBox="0 0 24 24"><g><path fill="rgba(128,128,128,255)" d="M0,0h16v1h-16ZM0,1h1v18h-1ZM15,1h1v5h-1ZM4,2h7v1h-7ZM4,3h1v6h-1ZM11,6h5v1h-5ZM10,7h1v1h-1ZM10,8h5v1h-5ZM18,8h2v1h-2ZM10,9h1v6h-1ZM13,9h2v6h-2ZM4,12h1v1h-1Z"/><path fill="rgba(0,0,0,255)" d="M16,0h1v7h-1ZM5,3h5v1h-5ZM5,4h1v2h-1ZM9,5h1v1h-1ZM5,6h2v1h-2ZM8,6h1v1h-1ZM5,7h1v2h-1ZM7,7h1v1h-1ZM15,7h2v2h-2ZM8,9h2v1h-2ZM15,9h3v1h-3ZM20,9h1v4h-1ZM15,10h1v2h-1ZM5,11h1v2h-1ZM9,12h1v1h-1ZM15,12h2v1h-2ZM8,13h1v1h-1ZM15,13h1v1h-1ZM17,13h1v1h-1ZM20,13h3v1h-3ZM9,14h1v1h-1ZM15,14h2v1h-2ZM23,14h1v4h-1ZM2,15h1v3h-1ZM10,15h6v1h-6ZM19,15h1v2h-1ZM6,16h1v1h-1ZM5,17h1v1h-1ZM9,17h2v1h-2ZM15,17h2v1h-2ZM20,17h1v1h-1ZM3,18h2v1h-2ZM8,18h1v1h-1ZM14,18h1v2h-1ZM20,18h3v1h-3ZM0,19h5v1h-5ZM7,19h1v2h-1ZM20,19h2v1h-2ZM9,20h2v1h-2ZM14,20h3v1h-3ZM20,20h1v2h-1ZM7,21h2v1h-2ZM14,21h1v2h-1ZM17,21h1v1h-1ZM6,22h2v1h-2ZM11,22h1v1h-1ZM18,22h2v1h-2ZM11,23h4v1h-4Z"/><path fill="rgba(255,255,255,0)" d="M17,0h7v8h-7ZM17,8h1v1h-1ZM20,8h4v1h-4ZM21,9h3v4h-3ZM23,13h1v1h-1ZM23,18h1v1h-1ZM22,19h2v1h-2ZM0,20h5v2h-5ZM21,20h3v2h-3ZM9,21h2v1h-2ZM15,21h2v1h-2ZM0,22h6v1h-6ZM8,22h3v1h-3ZM15,22h3v1h-3ZM20,22h4v1h-4ZM0,23h11v1h-11ZM15,23h9v1h-9Z"/><path fill="rgba(192,192,192,255)" d="M1,1h14v1h-14ZM1,2h3v8h-3ZM12,2h3v4h-3ZM10,3h1v1h-1ZM9,4h2v1h-2ZM8,5h1v1h-1ZM10,5h1v2h-1ZM7,6h1v1h-1ZM14,7h1v1h-1ZM8,8h2v1h-2ZM12,9h1v6h-1ZM1,10h4v2h-4ZM1,12h3v1h-3ZM1,13h1v5h-1ZM1,18h2v1h-2Z"/><path fill="rgba(255,255,255,255)" d="M11,2h1v4h-1ZM6,4h3v1h-3ZM6,5h2v1h-2ZM9,6h1v1h-1ZM6,7h1v1h-1ZM8,7h2v1h-2ZM11,7h3v1h-3ZM4,9h1v1h-1ZM7,9h1v1h-1ZM11,9h1v6h-1ZM19,9h1v1h-1ZM6,10h1v1h-1ZM8,10h1v1h-1ZM18,10h1v1h-1ZM7,11h1v1h-1ZM9,11h1v1h-1ZM17,11h1v1h-1ZM7,12h2v1h-2ZM18,12h1v1h-1ZM7,13h1v1h-1ZM9,13h1v1h-1ZM16,13h1v1h-1ZM19,13h1v1h-1ZM4,14h1v1h-1ZM6,14h1v1h-1ZM8,14h1v1h-1ZM18,14h1v1h-1ZM20,14h1v1h-1ZM22,14h1v1h-1ZM7,15h1v1h-1ZM9,15h1v1h-1ZM17,15h1v1h-1ZM8,16h1v1h-1ZM10,16h1v1h-1ZM12,16h1v1h-1ZM14,16h1v1h-1ZM16,16h1v1h-1ZM7,17h1v1h-1ZM13,17h1v1h-1ZM17,17h1v1h-1ZM19,17h1v1h-1ZM12,18h1v1h-1ZM18,18h1v1h-1ZM13,19h1v1h-1Z"/><path fill="rgba(128,128,0,255)" d="M6,8h2v1h-2ZM5,9h1v2h-1ZM9,10h1v1h-1ZM16,10h1v1h-1ZM6,11h1v2h-1ZM19,11h1v2h-1ZM2,13h4v1h-4ZM2,14h1v1h-1ZM3,15h4v1h-4ZM20,15h3v2h-3ZM3,16h3v1h-3ZM7,16h1v1h-1ZM18,16h1v1h-1ZM3,17h2v1h-2ZM11,17h1v1h-1ZM14,17h1v1h-1ZM21,17h2v1h-2ZM5,18h2v1h-2ZM9,18h3v1h-3ZM15,18h3v1h-3ZM19,18h1v1h-1ZM5,19h1v3h-1ZM8,19h4v1h-4ZM15,19h5v1h-5ZM8,20h1v1h-1ZM11,20h3v2h-3ZM17,20h3v1h-3ZM18,21h2v1h-2ZM12,22h2v1h-2Z"/><path fill="rgba(255,255,0,255)" d="M6,9h1v1h-1ZM18,9h1v1h-1ZM7,10h1v1h-1ZM17,10h1v1h-1ZM19,10h1v1h-1ZM8,11h1v1h-1ZM16,11h1v1h-1ZM18,11h1v1h-1ZM17,12h1v1h-1ZM6,13h1v1h-1ZM18,13h1v1h-1ZM3,14h1v1h-1ZM5,14h1v1h-1ZM7,14h1v1h-1ZM17,14h1v1h-1ZM19,14h1v1h-1ZM21,14h1v1h-1ZM8,15h1v1h-1ZM16,15h1v1h-1ZM18,15h1v1h-1ZM9,16h1v1h-1ZM11,16h1v1h-1ZM13,16h1v1h-1ZM15,16h1v1h-1ZM17,16h1v1h-1ZM6,17h1v1h-1ZM8,17h1v1h-1ZM12,17h1v1h-1ZM18,17h1v1h-1ZM7,18h1v1h-1ZM13,18h1v1h-1ZM6,19h1v3h-1ZM12,19h1v1h-1Z"/></g></svg>