<svg version="1.1" xmlns="http://www.w3.org/2000/svg" xmlns:xlink="http://www.w3.org/1999/xlink" shape-rendering="crispEdges" width="11" height="11" viewBox="0 0 11 11"><g><path fill="rgba(127,120,127,255)" d="M0,0h10v1h-10ZM0,1h1v9h-1Z"/><path fill="rgba(0,0,0,255)" d="M10,0h1v10h-1ZM4,2h4v1h-4ZM5,3h3v1h-3ZM4,4h4v1h-4ZM3,5h3v1h-3ZM7,5h1v1h-1ZM3,6h2v1h-2ZM3,7h1v1h-1ZM4,8h1v1h-1ZM0,10h11v1h-11Z"/><path fill="rgba(255,248,255,255)" d="M1,1h9v1h-9ZM1,2h3v1h-3ZM8,2h2v4h-2ZM1,3h4v1h-4ZM1,4h3v1h-3ZM1,5h2v3h-2ZM6,5h1v1h-1ZM5,6h5v1h-5ZM4,7h6v1h-6ZM1,8h3v1h-3ZM5,8h5v1h-5ZM1,9h9v1h-9Z"/></g></svg>