<svg version="1.1" xmlns="http://www.w3.org/2000/svg" xmlns:xlink="http://www.w3.org/1999/xlink" shape-rendering="crispEdges" width="24" height="24" viewBox="0 0 24 24"><g><path fill="rgba(255,255,255,0)" d="M0,0h5v1h-5ZM9,0h15v1h-15ZM0,1h3v1h-3ZM11,1h13v1h-13ZM0,2h1v1h-1ZM18,2h6v1h-6ZM20,3h4v1h-4ZM22,4h2v1h-2ZM23,5h1v1h-1ZM23,16h1v1h-1ZM0,17h2v1h-2ZM22,17h2v1h-2ZM0,18h4v1h-4ZM21,18h3v1h-3ZM0,19h6v1h-6ZM20,19h4v3h-4ZM0,20h8v1h-8ZM0,21h10v1h-10ZM0,22h12v1h-12ZM19,22h5v1h-5ZM0,23h14v1h-14ZM17,23h7v1h-7Z"/><path fill="rgba(128,128,128,255)" d="M5,0h4v1h-4ZM3,1h2v1h-2ZM9,1h2v1h-2ZM1,2h2v1h-2ZM11,2h7v1h-7ZM0,3h1v12h-1ZM13,3h2v1h-2ZM18,3h2v1h-2ZM15,4h2v1h-2ZM20,4h2v1h-2ZM4,5h2v1h-2ZM17,5h2v1h-2ZM22,5h1v1h-1ZM6,6h2v1h-2ZM21,6h2v1h-2ZM8,7h2v1h-2ZM17,7h2v1h-2ZM20,7h3v9h-3ZM10,8h2v1h-2ZM15,8h4v14h-4ZM12,9h1v1h-1ZM0,15h2v1h-2ZM0,16h1v1h-1ZM2,16h2v1h-2ZM20,16h2v1h-2ZM4,17h2v1h-2ZM20,17h1v1h-1ZM6,18h2v1h-2ZM8,19h2v1h-2ZM10,20h2v1h-2ZM12,21h2v1h-2ZM14,22h3v1h-3Z"/><path fill="rgba(192,192,192,255)" d="M5,1h4v1h-4ZM4,2h7v1h-7ZM6,3h7v1h-7ZM15,3h3v1h-3ZM2,4h4v1h-4ZM8,4h7v1h-7ZM17,4h3v1h-3ZM2,5h1v10h-1ZM6,5h2v1h-2ZM10,5h7v1h-7ZM19,5h3v1h-3ZM8,6h2v1h-2ZM12,6h7v1h-7ZM20,6h1v1h-1ZM10,7h2v1h-2ZM14,7h3v1h-3ZM12,8h2v1h-2ZM13,9h2v10h-2ZM2,15h3v1h-3ZM4,16h3v1h-3ZM6,17h3v1h-3ZM8,18h3v1h-3ZM10,19h5v1h-5ZM12,20h3v1h-3ZM14,21h1v1h-1Z"/><path fill="rgba(255,255,255,255)" d="M3,2h1v1h-1ZM1,3h5v1h-5ZM1,4h1v11h-1ZM6,4h2v1h-2ZM8,5h2v1h-2ZM10,6h2v1h-2ZM12,7h2v1h-2ZM14,8h1v1h-1ZM7,11h1v1h-1Z"/><path fill="rgba(0,0,0,255)" d="M3,5h1v9h-1ZM19,6h1v12h-1ZM23,6h1v10h-1ZM1,16h1v1h-1ZM22,16h1v1h-1ZM2,17h2v1h-2ZM21,17h1v1h-1ZM4,18h2v1h-2ZM19,18h2v1h-2ZM6,19h2v1h-2ZM19,19h1v3h-1ZM8,20h2v1h-2ZM10,21h2v1h-2ZM12,22h2v1h-2ZM17,22h2v1h-2ZM14,23h3v1h-3Z"/><path fill="rgba(0,0,128,255)" d="M4,6h2v1h-2ZM6,7h2v1h-2ZM8,8h2v1h-2ZM10,9h2v1h-2ZM12,10h1v8h-1ZM3,14h2v1h-2ZM5,15h2v1h-2ZM7,16h2v1h-2ZM9,17h2v1h-2ZM11,18h2v1h-2Z"/><path fill="rgba(0,0,255,255)" d="M4,7h2v1h-2ZM4,8h4v1h-4ZM4,9h3v1h-3ZM8,9h2v2h-2ZM4,10h1v1h-1ZM6,10h1v1h-1ZM11,10h1v1h-1ZM4,11h2v1h-2ZM8,11h1v1h-1ZM10,11h2v1h-2ZM4,12h1v1h-1ZM6,12h1v1h-1ZM9,12h3v1h-3ZM4,13h3v1h-3ZM8,13h4v1h-4ZM5,14h2v1h-2ZM8,14h1v1h-1ZM10,14h2v1h-2ZM7,15h5v1h-5ZM9,16h3v1h-3ZM11,17h1v1h-1Z"/><path fill="rgba(0,255,255,255)" d="M7,9h1v2h-1ZM5,10h1v1h-1ZM10,10h1v1h-1ZM6,11h1v1h-1ZM9,11h1v1h-1ZM5,12h1v1h-1ZM8,12h1v1h-1ZM7,13h1v2h-1ZM9,14h1v1h-1Z"/><path fill="rgba(255,255,0,255)" d="M7,12h1v1h-1Z"/></g></svg>