<svg version="1.1" xmlns="http://www.w3.org/2000/svg" xmlns:xlink="http://www.w3.org/1999/xlink" shape-rendering="crispEdges" width="16" height="16" viewBox="0 0 16 16"><g><path fill="rgba(255,255,255,0)" d="M0,0h7v1h-7ZM9,0h7v1h-7ZM0,1h6v1h-6ZM10,1h6v1h-6ZM0,2h5v1h-5ZM11,2h5v1h-5ZM0,3h4v1h-4ZM11,3h3v1h-3ZM15,3h1v1h-1ZM0,4h3v1h-3ZM11,4h2v1h-2ZM14,4h2v1h-2ZM0,5h1v1h-1ZM11,5h1v1h-1ZM13,5h3v1h-3ZM11,6h5v2h-5ZM11,8h1v1h-1ZM11,9h5v2h-5ZM0,10h1v1h-1ZM0,11h3v1h-3ZM11,11h1v1h-1ZM13,11h3v1h-3ZM0,12h4v1h-4ZM11,12h2v1h-2ZM14,12h2v1h-2ZM0,13h5v1h-5ZM11,13h3v1h-3ZM15,13h1v1h-1ZM0,14h6v1h-6ZM10,14h6v1h-6ZM0,15h7v1h-7ZM9,15h7v1h-7Z"/><path fill="rgba(0,0,0,255)" d="M7,0h2v1h-2ZM8,1h1v1h-1ZM7,2h1v1h-1ZM6,4h1v2h-1ZM6,6h2v1h-2ZM6,7h1v2h-1ZM8,7h1v2h-1ZM0,9h1v1h-1ZM6,9h2v1h-2ZM1,10h2v1h-2ZM6,10h1v2h-1ZM3,11h1v1h-1ZM4,12h1v1h-1ZM5,13h1v1h-1ZM7,13h1v1h-1ZM6,14h1v1h-1ZM8,14h1v1h-1ZM7,15h2v1h-2Z"/><path fill="rgba(128,128,0,255)" d="M6,1h1v1h-1ZM5,2h1v1h-1ZM4,3h1v1h-1ZM3,4h1v1h-1ZM1,5h2v1h-2ZM0,6h1v3h-1ZM1,9h1v1h-1ZM3,10h1v1h-1ZM4,11h1v1h-1ZM5,12h1v1h-1ZM6,13h1v1h-1ZM7,14h1v1h-1Z"/><path fill="rgba(128,128,128,255)" d="M7,1h1v1h-1ZM9,1h1v1h-1ZM6,3h2v1h-2ZM10,3h1v11h-1ZM14,3h1v1h-1ZM13,4h1v1h-1ZM12,5h1v1h-1ZM7,8h1v1h-1ZM12,8h4v1h-4ZM2,9h1v1h-1ZM12,11h1v1h-1ZM6,12h2v1h-2ZM13,12h1v1h-1ZM14,13h1v1h-1ZM9,14h1v1h-1Z"/><path fill="rgba(255,255,0,255)" d="M6,2h1v1h-1ZM5,3h1v1h-1ZM4,4h1v1h-1ZM3,5h1v1h-1ZM5,5h1v1h-1ZM4,6h1v1h-1ZM1,7h1v2h-1ZM3,7h1v1h-1ZM5,7h1v1h-1ZM4,8h1v1h-1ZM3,9h1v1h-1ZM5,9h1v1h-1ZM4,10h1v1h-1ZM5,11h1v1h-1Z"/><path fill="rgba(192,192,192,255)" d="M8,2h3v1h-3ZM8,3h1v1h-1ZM7,4h1v2h-1ZM2,6h1v3h-1ZM7,7h1v1h-1ZM7,10h1v2h-1ZM8,13h2v1h-2Z"/><path fill="rgba(255,255,255,255)" d="M9,3h1v1h-1ZM5,4h1v1h-1ZM8,4h2v3h-2ZM4,5h1v1h-1ZM1,6h1v1h-1ZM3,6h1v1h-1ZM5,6h1v1h-1ZM4,7h1v1h-1ZM9,7h1v2h-1ZM3,8h1v1h-1ZM5,8h1v1h-1ZM4,9h1v1h-1ZM8,9h2v4h-2ZM5,10h1v1h-1Z"/></g></svg>