<svg version="1.1" xmlns="http://www.w3.org/2000/svg" xmlns:xlink="http://www.w3.org/1999/xlink" shape-rendering="crispEdges" width="46" height="16" viewBox="0 0 46 16"><g><path fill="rgba(192,192,192,255)" d="M0,0h46v1h-46ZM0,1h9v1h-9ZM13,1h33v1h-33ZM0,2h7v1h-7ZM15,2h31v1h-31ZM1,3h5v1h-5ZM16,3h4v1h-4ZM24,3h22v1h-22ZM1,4h1v1h-1ZM3,4h1v1h-1ZM16,4h3v3h-3ZM21,4h2v1h-2ZM25,4h2v1h-2ZM29,4h13v2h-13ZM44,4h2v2h-2ZM0,5h2v1h-2ZM21,5h6v2h-6ZM1,6h5v1h-5ZM30,6h2v1h-2ZM36,6h2v1h-2ZM41,6h1v1h-1ZM45,6h1v1h-1ZM1,7h1v1h-1ZM3,7h1v1h-1ZM16,7h4v1h-4ZM24,7h3v1h-3ZM29,7h6v1h-6ZM37,7h1v5h-1ZM40,7h2v4h-2ZM44,7h2v4h-2ZM0,8h2v1h-2ZM16,8h7v2h-7ZM25,8h2v3h-2ZM29,8h3v1h-3ZM1,9h5v1h-5ZM29,9h2v2h-2ZM33,9h2v2h-2ZM1,10h1v1h-1ZM3,10h1v1h-1ZM16,10h3v1h-3ZM21,10h2v1h-2ZM0,11h2v1h-2ZM16,11h4v1h-4ZM24,11h4v1h-4ZM30,11h2v1h-2ZM40,11h3v1h-3ZM45,11h1v1h-1ZM1,12h5v1h-5ZM16,12h30v3h-30ZM1,13h1v1h-1ZM3,13h1v1h-1ZM9,13h4v1h-4ZM0,14h2v1h-2ZM7,14h8v1h-8ZM0,15h46v1h-46Z"/><path fill="rgba(0,0,0,255)" d="M9,1h4v1h-4ZM7,2h8v1h-8ZM0,3h1v2h-1ZM6,3h3v1h-3ZM10,3h2v3h-2ZM13,3h3v1h-3ZM20,3h4v1h-4ZM2,4h1v1h-1ZM4,4h4v1h-4ZM14,4h2v3h-2ZM19,4h2v3h-2ZM23,4h2v1h-2ZM27,4h2v2h-2ZM42,4h2v2h-2ZM2,5h6v1h-6ZM6,6h2v1h-2ZM9,6h4v1h-4ZM27,6h3v1h-3ZM32,6h4v1h-4ZM38,6h3v1h-3ZM42,6h3v1h-3ZM6,7h10v1h-10ZM20,7h4v1h-4ZM27,7h2v4h-2ZM35,7h2v1h-2ZM38,7h2v5h-2ZM42,7h2v4h-2ZM6,8h3v1h-3ZM10,8h2v3h-2ZM13,8h3v1h-3ZM23,8h2v3h-2ZM32,8h5v1h-5ZM6,9h2v3h-2ZM14,9h2v3h-2ZM31,9h2v2h-2ZM35,9h2v2h-2ZM19,10h2v1h-2ZM9,11h4v1h-4ZM20,11h4v1h-4ZM28,11h2v1h-2ZM32,11h5v1h-5ZM43,11h2v1h-2ZM0,12h1v2h-1ZM6,12h10v1h-10ZM2,13h1v1h-1ZM4,13h5v1h-5ZM13,13h3v1h-3ZM2,14h5v1h-5ZM15,14h1v1h-1Z"/><path fill="rgba(255,0,0,255)" d="M9,3h1v1h-1ZM8,4h2v2h-2ZM0,6h1v2h-1ZM8,6h1v1h-1ZM2,7h1v1h-1ZM4,7h2v1h-2ZM2,8h4v1h-4Z"/><path fill="rgba(0,255,0,255)" d="M12,3h1v1h-1ZM12,4h2v2h-2ZM13,6h1v1h-1Z"/><path fill="rgba(0,0,255,255)" d="M9,8h1v1h-1ZM0,9h1v2h-1ZM8,9h2v2h-2ZM2,10h1v1h-1ZM4,10h2v1h-2ZM2,11h4v1h-4ZM8,11h1v1h-1Z"/><path fill="rgba(255,255,0,255)" d="M12,8h1v1h-1ZM12,9h2v2h-2ZM13,11h1v1h-1Z"/></g></svg>