<svg version="1.1" xmlns="http://www.w3.org/2000/svg" xmlns:xlink="http://www.w3.org/1999/xlink" shape-rendering="crispEdges" width="21" height="125" viewBox="0 0 21 125"><g><path fill="rgba(128,128,128,255)" d="M0,0h21v3h-21ZM0,3h11v1h-11ZM15,3h6v1h-6ZM0,4h4v9h-4ZM6,4h4v1h-4ZM17,4h4v2h-4ZM6,5h3v6h-3ZM11,5h4v1h-4ZM10,6h6v4h-6ZM18,6h3v4h-3ZM11,10h5v1h-5ZM17,10h4v2h-4ZM6,11h4v1h-4ZM12,11h3v1h-3ZM12,12h2v1h-2ZM16,12h5v1h-5ZM0,13h21v1h-21ZM0,14h7v1h-7ZM15,14h6v1h-6ZM0,15h6v1h-6ZM12,15h2v1h-2ZM17,15h4v2h-4ZM0,16h5v2h-5ZM7,16h4v1h-4ZM13,16h3v2h-3ZM6,17h6v5h-6ZM18,17h3v6h-3ZM0,18h4v3h-4ZM14,18h3v3h-3ZM0,21h5v2h-5ZM13,21h4v1h-4ZM7,22h4v1h-4ZM13,22h3v1h-3ZM0,23h6v1h-6ZM12,23h3v1h-3ZM17,23h4v1h-4ZM0,24h7v1h-7ZM11,24h4v1h-4ZM16,24h5v1h-5ZM0,25h21v2h-21ZM0,27h13v1h-13ZM16,27h5v1h-5ZM0,28h8v1h-8ZM10,28h2v1h-2ZM17,28h4v2h-4ZM0,29h7v7h-7ZM10,29h1v3h-1ZM14,30h1v1h-1ZM18,30h3v5h-3ZM13,31h3v3h-3ZM9,32h2v2h-2ZM13,34h2v1h-2ZM13,35h1v1h-1ZM17,35h4v2h-4ZM0,36h8v2h-8ZM12,36h2v2h-2ZM16,37h5v1h-5ZM0,38h21v1h-21ZM0,39h7v4h-7ZM10,39h11v1h-11ZM13,40h8v1h-8ZM16,41h5v1h-5ZM18,42h3v4h-3ZM0,43h9v1h-9ZM0,44h11v1h-11ZM0,45h9v1h-9ZM0,46h7v3h-7ZM15,46h6v1h-6ZM13,47h8v1h-8ZM15,48h6v1h-6ZM0,49h9v1h-9ZM18,49h3v4h-3ZM0,50h11v1h-11ZM0,51h9v1h-9ZM0,52h7v4h-7ZM16,53h5v1h-5ZM13,54h8v1h-8ZM10,55h11v1h-11ZM0,56h10v1h-10ZM15,56h6v1h-6ZM0,57h8v2h-8ZM17,57h4v2h-4ZM0,59h7v5h-7ZM11,59h3v1h-3ZM18,59h3v5h-3ZM10,60h5v3h-5ZM11,63h3v1h-3ZM0,64h8v2h-8ZM17,64h4v2h-4ZM0,66h10v1h-10ZM15,66h6v1h-6ZM0,67h21v1h-21ZM0,68h4v4h-4ZM18,68h3v10h-3ZM0,72h7v5h-7ZM10,72h5v1h-5ZM9,73h7v1h-7ZM10,74h5v1h-5ZM0,77h8v2h-8ZM17,78h4v1h-4ZM0,79h10v1h-10ZM15,79h6v1h-6ZM0,80h21v1h-21ZM0,81h8v1h-8ZM18,81h3v4h-3ZM0,82h7v4h-7ZM10,85h11v2h-11ZM0,86h8v1h-8ZM0,87h7v4h-7ZM18,87h3v4h-3ZM0,91h21v1h-21ZM0,92h4v4h-4ZM6,92h1v4h-1ZM18,92h3v4h-3ZM0,96h21v1h-21ZM0,97h4v5h-4ZM6,97h15v1h-15ZM9,98h12v1h-12ZM12,99h9v1h-9ZM15,100h6v1h-6ZM18,101h3v4h-3ZM0,102h8v1h-8ZM0,103h11v1h-11ZM0,104h9v1h-9ZM0,105h6v1h-6ZM16,105h5v1h-5ZM0,106h4v3h-4ZM13,106h8v1h-8ZM11,107h10v1h-10ZM13,108h8v1h-8ZM0,109h6v1h-6ZM16,109h5v1h-5ZM0,110h9v1h-9ZM18,110h3v4h-3ZM0,111h11v1h-11ZM0,112h8v1h-8ZM0,113h4v5h-4ZM15,114h6v1h-6ZM12,115h9v1h-9ZM9,116h12v1h-12ZM6,117h15v1h-15ZM0,118h21v7h-21Z"/><path fill="rgba(192,192,192,255)" d="M11,3h4v1h-4ZM4,4h1v9h-1ZM10,4h1v1h-1ZM15,4h2v1h-2ZM9,5h1v1h-1ZM16,5h1v1h-1ZM17,6h1v4h-1ZM9,10h1v1h-1ZM10,11h1v1h-1ZM16,11h1v1h-1ZM15,12h1v1h-1ZM7,14h1v1h-1ZM14,14h1v1h-1ZM6,15h1v1h-1ZM16,15h1v1h-1ZM5,16h1v1h-1ZM12,16h1v1h-1ZM17,17h1v1h-1ZM4,18h1v3h-1ZM13,18h1v3h-1ZM5,22h1v1h-1ZM12,22h1v1h-1ZM17,22h1v1h-1ZM6,23h1v1h-1ZM11,23h1v1h-1ZM15,23h1v1h-1ZM7,24h4v1h-4ZM13,27h3v1h-3ZM8,28h2v1h-2ZM12,28h5v1h-5ZM7,29h3v3h-3ZM11,29h6v1h-6ZM11,30h3v1h-3ZM15,30h3v1h-3ZM11,31h2v3h-2ZM16,31h2v3h-2ZM7,32h2v2h-2ZM7,34h6v2h-6ZM15,34h3v1h-3ZM14,35h3v2h-3ZM8,36h4v2h-4ZM14,37h2v1h-2ZM7,39h3v1h-3ZM7,40h6v1h-6ZM7,41h9v1h-9ZM7,42h11v1h-11ZM9,43h9v1h-9ZM11,44h7v1h-7ZM9,45h9v1h-9ZM7,46h8v1h-8ZM7,47h6v1h-6ZM7,48h8v1h-8ZM9,49h9v1h-9ZM11,50h7v1h-7ZM9,51h9v1h-9ZM7,52h11v1h-11ZM7,53h9v1h-9ZM7,54h6v1h-6ZM7,55h3v1h-3ZM10,56h5v1h-5ZM8,57h9v2h-9ZM7,59h4v1h-4ZM14,59h4v1h-4ZM7,60h3v3h-3ZM15,60h3v3h-3ZM7,63h4v1h-4ZM14,63h4v1h-4ZM8,64h9v2h-9ZM10,66h5v1h-5ZM4,68h14v4h-14ZM7,72h3v1h-3ZM15,72h3v1h-3ZM7,73h2v1h-2ZM16,73h2v1h-2ZM7,74h3v1h-3ZM15,74h3v1h-3ZM7,75h11v2h-11ZM8,77h10v1h-10ZM8,78h9v1h-9ZM10,79h5v1h-5ZM8,81h10v1h-10ZM7,82h11v3h-11ZM7,85h3v1h-3ZM8,86h2v1h-2ZM7,87h11v4h-11ZM4,92h2v4h-2ZM7,92h11v4h-11ZM4,97h2v1h-2ZM4,98h5v1h-5ZM4,99h8v1h-8ZM4,100h11v1h-11ZM4,101h14v1h-14ZM8,102h10v1h-10ZM11,103h7v1h-7ZM9,104h9v1h-9ZM6,105h10v1h-10ZM4,106h9v1h-9ZM4,107h7v1h-7ZM4,108h9v1h-9ZM6,109h10v1h-10ZM9,110h9v1h-9ZM11,111h7v1h-7ZM8,112h10v1h-10ZM4,113h14v1h-14ZM4,114h11v1h-11ZM4,115h8v1h-8ZM4,116h5v1h-5ZM4,117h2v1h-2Z"/><path fill="rgba(255,255,255,255)" d="M5,4h1v8h-1ZM11,4h4v1h-4ZM10,5h1v1h-1ZM15,5h1v1h-1ZM9,6h1v4h-1ZM16,6h1v5h-1ZM10,10h1v1h-1ZM11,11h1v1h-1ZM15,11h1v1h-1ZM5,12h7v1h-7ZM14,12h1v1h-1ZM8,14h6v1h-6ZM7,15h5v1h-5ZM14,15h2v1h-2ZM6,16h1v1h-1ZM11,16h1v1h-1ZM16,16h1v2h-1ZM5,17h1v5h-1ZM12,17h1v5h-1ZM17,18h1v4h-1ZM6,22h1v1h-1ZM11,22h1v1h-1ZM16,22h1v2h-1ZM7,23h4v1h-4ZM15,24h1v1h-1Z"/></g></svg>