<svg version="1.1" xmlns="http://www.w3.org/2000/svg" xmlns:xlink="http://www.w3.org/1999/xlink" shape-rendering="crispEdges" width="16" height="16" viewBox="0 0 16 16"><g><path fill="rgba(0,0,0,0)" d="M0,0h1v16h-1ZM14,0h2v16h-2Z"/><path fill="rgba(255,255,255,0)" d="M1,0h2v1h-2ZM4,0h1v1h-1ZM6,0h1v1h-1ZM8,0h1v1h-1ZM10,0h1v1h-1ZM12,0h2v1h-2ZM1,1h1v1h-1ZM13,1h1v1h-1ZM1,15h1v1h-1ZM13,15h1v1h-1Z"/><path fill="rgba(0,0,0,255)" d="M3,0h1v1h-1ZM5,0h1v1h-1ZM7,0h1v1h-1ZM9,0h1v1h-1ZM11,0h1v1h-1ZM2,1h1v1h-1ZM12,1h1v1h-1ZM3,2h1v1h-1ZM5,2h1v1h-1ZM7,2h1v1h-1ZM9,2h1v1h-1ZM11,2h1v1h-1ZM13,2h1v13h-1ZM4,5h3v1h-3ZM8,5h2v1h-2ZM4,7h6v1h-6ZM4,9h6v1h-6ZM4,11h6v1h-6ZM2,15h11v1h-11Z"/><path fill="rgba(255,255,255,255)" d="M3,1h1v1h-1ZM5,1h1v1h-1ZM7,1h1v1h-1ZM9,1h1v1h-1ZM11,1h1v1h-1ZM2,2h1v1h-1ZM4,2h1v1h-1ZM6,2h1v1h-1ZM8,2h1v1h-1ZM10,2h1v1h-1ZM12,2h1v1h-1ZM2,3h10v2h-10ZM2,5h2v1h-2ZM7,5h1v1h-1ZM10,5h2v1h-2ZM2,6h10v1h-10ZM2,7h2v1h-2ZM10,7h2v1h-2ZM2,8h10v1h-10ZM2,9h2v1h-2ZM10,9h2v1h-2ZM2,10h10v1h-10ZM2,11h2v1h-2ZM10,11h2v1h-2ZM2,12h10v2h-10Z"/><path fill="rgba(128,128,128,255)" d="M4,1h1v1h-1ZM6,1h1v1h-1ZM8,1h1v1h-1ZM10,1h1v1h-1ZM1,2h1v13h-1Z"/><path fill="rgba(192,192,192,255)" d="M12,3h1v11h-1ZM2,14h11v1h-11Z"/></g></svg>