<svg version="1.1" xmlns="http://www.w3.org/2000/svg" xmlns:xlink="http://www.w3.org/1999/xlink" shape-rendering="crispEdges" width="32" height="32" viewBox="0 0 32 32"><g><path fill="rgba(255,255,255,0)" d="M0,0h5v1h-5ZM7,0h1v1h-1ZM10,0h1v1h-1ZM13,0h1v1h-1ZM16,0h1v1h-1ZM19,0h1v1h-1ZM22,0h1v1h-1ZM25,0h1v1h-1ZM27,0h5v1h-5ZM0,1h4v1h-4ZM29,1h3v1h-3ZM0,2h3v28h-3ZM30,2h2v28h-2ZM0,30h4v1h-4ZM29,30h3v1h-3ZM0,31h5v1h-5ZM28,31h4v1h-4Z"/><path fill="rgba(0,0,0,255)" d="M5,0h2v1h-2ZM8,0h2v1h-2ZM11,0h2v1h-2ZM14,0h2v1h-2ZM17,0h2v1h-2ZM20,0h2v1h-2ZM23,0h2v1h-2ZM26,0h1v1h-1ZM28,1h1v1h-1ZM5,2h1v2h-1ZM8,2h1v2h-1ZM11,2h1v2h-1ZM14,2h1v2h-1ZM17,2h1v2h-1ZM20,2h1v2h-1ZM23,2h1v2h-1ZM27,2h1v28h-1ZM29,2h1v28h-1ZM6,7h6v1h-6ZM19,7h1v1h-1ZM21,7h3v1h-3ZM6,9h6v1h-6ZM6,13h6v1h-6ZM6,16h18v1h-18ZM6,18h18v1h-18ZM6,20h18v1h-18ZM6,22h18v1h-18ZM6,25h6v1h-6ZM6,27h6v1h-6ZM26,30h1v1h-1ZM28,30h1v1h-1ZM5,31h23v1h-23Z"/><path fill="rgba(127,127,127,255)" d="M4,1h1v1h-1ZM6,1h2v1h-2ZM9,1h2v1h-2ZM12,1h2v1h-2ZM15,1h2v1h-2ZM18,1h2v1h-2ZM21,1h2v1h-2ZM24,1h2v1h-2ZM27,1h1v1h-1ZM3,2h1v28h-1ZM26,2h1v2h-1ZM4,30h1v1h-1Z"/><path fill="rgba(255,255,255,255)" d="M5,1h1v1h-1ZM8,1h1v1h-1ZM11,1h1v1h-1ZM14,1h1v1h-1ZM17,1h1v1h-1ZM20,1h1v1h-1ZM23,1h1v1h-1ZM26,1h1v1h-1ZM4,2h1v2h-1ZM6,2h2v2h-2ZM9,2h2v2h-2ZM12,2h2v2h-2ZM15,2h2v2h-2ZM18,2h2v2h-2ZM21,2h2v2h-2ZM24,2h2v2h-2ZM4,4h22v3h-22ZM4,7h2v1h-2ZM12,7h7v1h-7ZM20,7h1v1h-1ZM24,7h2v1h-2ZM4,8h22v1h-22ZM4,9h2v1h-2ZM12,9h14v1h-14ZM4,10h22v3h-22ZM4,13h2v1h-2ZM12,13h14v1h-14ZM4,14h22v2h-22ZM4,16h2v1h-2ZM24,16h2v1h-2ZM4,17h22v1h-22ZM4,18h2v1h-2ZM24,18h2v1h-2ZM4,19h22v1h-22ZM4,20h2v1h-2ZM24,20h2v1h-2ZM4,21h22v1h-22ZM4,22h2v1h-2ZM24,22h2v1h-2ZM4,23h22v2h-22ZM4,25h2v1h-2ZM12,25h14v1h-14ZM4,26h22v1h-22ZM4,27h2v1h-2ZM12,27h14v1h-14ZM4,28h22v2h-22Z"/><path fill="rgba(191,191,191,255)" d="M28,2h1v28h-1ZM26,4h1v26h-1ZM5,30h21v1h-21ZM27,30h1v1h-1Z"/></g></svg>