<svg version="1.1" xmlns="http://www.w3.org/2000/svg" xmlns:xlink="http://www.w3.org/1999/xlink" shape-rendering="crispEdges" width="32" height="32" viewBox="0 0 32 32"><g><path fill="rgba(255,255,255,0)" d="M0,0h13v1h-13ZM16,0h16v1h-16ZM0,1h12v1h-12ZM17,1h15v1h-15ZM0,2h11v2h-11ZM19,2h13v1h-13ZM20,3h12v1h-12ZM0,4h10v2h-10ZM21,4h11v2h-11ZM0,6h9v2h-9ZM22,6h10v2h-10ZM0,8h8v2h-8ZM23,8h9v2h-9ZM0,10h7v2h-7ZM24,10h8v2h-8ZM0,12h6v2h-6ZM25,12h7v2h-7ZM0,14h5v2h-5ZM26,14h6v2h-6ZM0,16h4v2h-4ZM27,16h5v2h-5ZM0,18h3v2h-3ZM28,18h4v2h-4ZM0,20h2v2h-2ZM29,20h3v2h-3ZM0,22h1v2h-1ZM30,22h2v2h-2ZM31,24h1v2h-1ZM0,28h1v1h-1ZM0,29h2v1h-2ZM0,30h4v1h-4ZM31,30h1v1h-1ZM0,31h5v1h-5ZM30,31h2v1h-2Z"/><path fill="rgba(128,128,0,255)" d="M13,0h3v1h-3ZM12,1h1v1h-1ZM11,2h1v2h-1ZM10,4h1v2h-1ZM9,6h1v2h-1ZM8,8h1v2h-1ZM7,10h1v2h-1ZM6,12h1v2h-1ZM5,14h1v2h-1ZM12,15h1v1h-1ZM16,15h1v1h-1ZM4,16h1v2h-1ZM3,18h1v2h-1ZM13,18h1v1h-1ZM15,18h1v1h-1ZM2,20h1v2h-1ZM1,22h1v2h-1ZM0,24h1v4h-1ZM1,28h1v1h-1ZM2,29h1v1h-1Z"/><path fill="rgba(255,255,0,255)" d="M13,1h2v1h-2ZM12,2h4v1h-4ZM12,3h5v1h-5ZM11,4h6v1h-6ZM11,5h7v1h-7ZM10,6h8v1h-8ZM10,7h9v1h-9ZM9,8h10v1h-10ZM9,9h3v1h-3ZM17,9h3v2h-3ZM8,10h4v2h-4ZM17,11h4v2h-4ZM7,12h5v2h-5ZM17,13h5v2h-5ZM6,14h6v2h-6ZM17,15h6v2h-6ZM5,16h7v1h-7ZM5,17h8v1h-8ZM16,17h8v2h-8ZM4,18h9v2h-9ZM16,19h9v1h-9ZM3,20h11v1h-11ZM15,20h10v1h-10ZM3,21h23v1h-23ZM2,22h11v2h-11ZM17,22h9v1h-9ZM17,23h10v2h-10ZM1,24h12v2h-12ZM17,25h11v1h-11ZM1,26h27v1h-27ZM1,27h26v1h-26ZM2,28h24v1h-24Z"/><path fill="rgba(192,192,192,255)" d="M15,1h1v1h-1ZM16,2h1v1h-1ZM17,4h1v1h-1ZM18,6h1v1h-1ZM19,8h1v1h-1ZM12,9h1v1h-1ZM16,9h1v1h-1ZM20,10h1v1h-1ZM21,12h1v1h-1ZM22,14h1v1h-1ZM12,16h1v1h-1ZM16,16h1v1h-1ZM23,16h1v1h-1ZM24,18h1v1h-1ZM13,19h1v1h-1ZM15,19h1v1h-1ZM25,20h1v1h-1ZM13,22h1v1h-1ZM16,22h1v1h-1ZM26,22h1v1h-1ZM27,24h1v1h-1ZM13,25h1v1h-1ZM16,25h1v1h-1ZM27,27h1v1h-1ZM26,28h1v1h-1Z"/><path fill="rgba(0,0,0,255)" d="M16,1h1v1h-1ZM17,2h1v2h-1ZM18,4h1v2h-1ZM19,6h1v2h-1ZM20,8h1v2h-1ZM13,9h3v1h-3ZM12,10h5v5h-5ZM21,10h1v2h-1ZM22,12h1v2h-1ZM23,14h1v2h-1ZM13,15h3v3h-3ZM24,16h1v2h-1ZM14,18h1v3h-1ZM25,18h1v2h-1ZM26,20h1v2h-1ZM14,22h2v1h-2ZM27,22h1v2h-1ZM13,23h4v2h-4ZM28,24h1v4h-1ZM14,25h2v1h-2ZM27,28h1v1h-1ZM3,29h24v1h-24Z"/><path fill="rgba(128,128,128,255)" d="M18,2h1v1h-1ZM18,3h2v1h-2ZM19,4h2v2h-2ZM20,6h2v2h-2ZM21,8h2v2h-2ZM22,10h2v2h-2ZM23,12h2v2h-2ZM24,14h2v2h-2ZM25,16h2v2h-2ZM26,18h2v2h-2ZM27,20h2v2h-2ZM28,22h2v2h-2ZM29,24h2v2h-2ZM29,26h3v2h-3ZM28,28h4v1h-4ZM27,29h5v1h-5ZM4,30h27v1h-27ZM5,31h25v1h-25Z"/></g></svg>