<svg version="1.1" xmlns="http://www.w3.org/2000/svg" xmlns:xlink="http://www.w3.org/1999/xlink" shape-rendering="crispEdges" width="32" height="32" viewBox="0 0 32 32"><g><path fill="rgba(0,0,0,0)" d="M0,0h3v32h-3ZM29,0h3v32h-3Z"/><path fill="rgba(128,128,128,255)" d="M3,0h20v1h-20ZM3,1h1v30h-1ZM22,1h1v1h-1ZM22,2h2v1h-2ZM22,3h1v4h-1ZM24,3h1v1h-1ZM25,4h1v1h-1ZM26,5h1v1h-1Z"/><path fill="rgba(255,255,255,0)" d="M23,0h6v1h-6ZM24,1h5v1h-5ZM25,2h4v1h-4ZM26,3h3v1h-3ZM27,4h2v1h-2ZM28,5h1v1h-1Z"/><path fill="rgba(255,255,255,255)" d="M4,1h18v6h-18ZM23,4h1v1h-1ZM23,5h2v1h-2ZM4,7h23v3h-23ZM4,10h13v1h-13ZM21,10h6v1h-6ZM4,11h11v1h-11ZM23,11h4v1h-4ZM4,12h4v2h-4ZM9,12h5v1h-5ZM24,12h3v12h-3ZM9,13h1v1h-1ZM11,13h1v1h-1ZM4,14h6v1h-6ZM4,15h4v2h-4ZM9,15h5v1h-5ZM9,16h1v1h-1ZM11,16h1v1h-1ZM4,17h6v1h-6ZM4,18h4v2h-4ZM9,18h5v1h-5ZM9,19h1v1h-1ZM11,19h1v1h-1ZM4,20h6v1h-6ZM4,21h4v2h-4ZM9,21h5v1h-5ZM9,22h1v1h-1ZM11,22h1v1h-1ZM17,22h4v1h-4ZM4,23h6v1h-6ZM15,23h8v1h-8ZM4,24h23v6h-23Z"/><path fill="rgba(0,0,0,255)" d="M23,1h1v1h-1ZM24,2h1v1h-1ZM25,3h1v1h-1ZM26,4h1v1h-1ZM27,5h1v1h-1ZM23,6h6v1h-6ZM28,7h1v24h-1ZM17,10h4v1h-4ZM15,11h8v1h-8ZM8,12h1v2h-1ZM14,12h3v1h-3ZM18,12h1v3h-1ZM21,12h3v1h-3ZM10,13h1v1h-1ZM12,13h4v1h-4ZM22,13h2v3h-2ZM10,14h5v1h-5ZM14,15h1v2h-1ZM17,15h4v1h-4ZM16,16h8v1h-8ZM14,17h3v1h-3ZM18,17h1v3h-1ZM21,17h3v1h-3ZM14,18h2v1h-2ZM22,18h2v3h-2ZM14,19h1v3h-1ZM17,20h4v1h-4ZM8,21h1v2h-1ZM16,21h8v1h-8ZM10,22h1v1h-1ZM12,22h5v1h-5ZM21,22h3v1h-3ZM10,23h5v1h-5ZM23,23h1v1h-1ZM3,31h26v1h-26Z"/><path fill="rgba(192,192,192,255)" d="M23,3h1v1h-1ZM24,4h1v1h-1ZM25,5h1v1h-1ZM27,7h1v23h-1ZM4,30h24v1h-24Z"/><path fill="rgba(255,0,0,255)" d="M17,12h1v1h-1ZM16,13h2v1h-2ZM15,14h3v1h-3ZM8,15h1v2h-1ZM15,15h2v1h-2ZM10,16h1v1h-1ZM12,16h2v1h-2ZM10,17h4v1h-4Z"/><path fill="rgba(0,128,0,255)" d="M19,12h2v1h-2ZM19,13h3v2h-3ZM21,15h1v1h-1Z"/><path fill="rgba(128,0,0,255)" d="M15,16h1v1h-1Z"/><path fill="rgba(0,0,255,255)" d="M17,17h1v1h-1ZM8,18h1v2h-1ZM16,18h2v1h-2ZM10,19h1v1h-1ZM12,19h2v1h-2ZM15,19h3v1h-3ZM10,20h4v1h-4ZM15,20h2v1h-2Z"/><path fill="rgba(255,255,0,255)" d="M19,17h2v1h-2ZM19,18h3v2h-3ZM21,20h1v1h-1Z"/><path fill="rgba(0,0,128,255)" d="M15,21h1v1h-1Z"/></g></svg>